<svg id="GRAPHICS" xmlns="http://www.w3.org/2000/svg" xmlns:xlink="http://www.w3.org/1999/xlink" viewBox="0 0 20 16"><defs><style>.cls-1{fill:url(#linear-gradient);}</style><linearGradient id="linear-gradient" x1="14.7" y1="12.7" x2="5.3" y2="3.3" gradientUnits="userSpaceOnUse"><stop offset="0" stop-color="#5f592c"/><stop offset="0.06" stop-color="#877f3f"/><stop offset="0.13" stop-color="#aba04f"/><stop offset="0.19" stop-color="#c4b85a"/><stop offset="0.25" stop-color="#d4c662"/><stop offset="0.29" stop-color="#d9cb64"/><stop offset="0.42" stop-color="#bbaf57"/><stop offset="0.53" stop-color="#9c9249"/><stop offset="0.54" stop-color="#c0b56b"/><stop offset="0.55" stop-color="#dbd185"/><stop offset="0.55" stop-color="#efe497"/><stop offset="0.56" stop-color="#fbf0a2"/><stop offset="0.57" stop-color="#fff4a6"/><stop offset="0.59" stop-color="#fff4a6"/><stop offset="0.72" stop-color="#fff4a6"/><stop offset="0.85" stop-color="#cdc276"/><stop offset="1" stop-color="#9c9147"/></linearGradient></defs><path class="cls-1" d="M18.7,7.3,14,2.62a1,1,0,0,0-1.41,0,1,1,0,0,0,0,1.42L15.1,6.52a.29.29,0,0,1-.2.49H2A1,1,0,1,0,2,9H14.9a.29.29,0,0,1,.2.49L12.61,12a1,1,0,0,0,0,1.41,1,1,0,0,0,1.41,0L18.7,8.71A1,1,0,0,0,18.7,7.3Z"/></svg>