<svg id="GRAPHICS" xmlns="http://www.w3.org/2000/svg" viewBox="0 0 200 200"><defs><style>.cls-1{fill:#460054;}.cls-1,.cls-2,.cls-3,.cls-4,.cls-5,.cls-6,.cls-7,.cls-8{stroke:#000;stroke-linecap:round;stroke-linejoin:round;stroke-width:1.42px;}.cls-2{fill:#9000ad;}.cls-4{fill:none;}.cls-5{fill:#007a85;}.cls-6{fill:#00eaff;}.cls-7{fill:#781222;}.cls-8{fill:#ff2547;}</style></defs><path class="cls-1" d="M72.54,125.69h-7.1a24.3,24.3,0,0,0,0,48.59h7.1a24.3,24.3,0,0,0,0-48.59Z"/><circle class="cls-2" cx="72.54" cy="149.98" r="24.29"/><circle class="cls-3" cx="66.92" cy="143.16" r="2.33"/><circle class="cls-3" cx="78.3" cy="143.16" r="2.33"/><path class="cls-4" d="M63.28,152a9.33,9.33,0,0,0,18.66,0"/><path class="cls-5" d="M134.56,125.69h-7.1a24.3,24.3,0,0,0,0,48.59h7.1a24.3,24.3,0,0,0,0-48.59Z"/><circle class="cls-6" cx="134.56" cy="149.98" r="24.29"/><circle class="cls-3" cx="128.94" cy="143.16" r="2.33"/><circle class="cls-3" cx="140.32" cy="143.16" r="2.33"/><path class="cls-4" d="M125.3,152A9.33,9.33,0,0,0,144,152"/><path class="cls-7" d="M103.55,69.46h-7.1a24.3,24.3,0,0,0,0,48.59h7.1a24.3,24.3,0,0,0,0-48.59Z"/><circle class="cls-8" cx="103.55" cy="93.75" r="24.29"/><circle class="cls-3" cx="97.93" cy="86.93" r="2.33"/><circle class="cls-3" cx="109.31" cy="86.93" r="2.33"/><path class="cls-4" d="M94.29,95.77a9.33,9.33,0,1,0,18.66,0"/></svg>