<svg id="GRAPHICS" xmlns="http://www.w3.org/2000/svg" xmlns:xlink="http://www.w3.org/1999/xlink" viewBox="0 0 200 200"><defs><style>.cls-1,.cls-10,.cls-11,.cls-12,.cls-13,.cls-14,.cls-15,.cls-2,.cls-3,.cls-4,.cls-5,.cls-6,.cls-7,.cls-8,.cls-9{stroke:#000;stroke-linecap:round;stroke-linejoin:round;stroke-width:1.42px;}.cls-1{fill:url(#linear-gradient);}.cls-2{fill:url(#linear-gradient-2);}.cls-3{fill:aqua;}.cls-4{fill:url(#linear-gradient-3);}.cls-5,.cls-7,.cls-8{fill:none;}.cls-6{fill:#98ff29;}.cls-7{opacity:0.3;}.cls-8{stroke-dasharray:1.4 2.81;}.cls-9{fill:#592bff;}.cls-10{fill:#fff2cc;}.cls-12{fill:#ff2547;}.cls-13{fill:#00d116;}.cls-14{fill:#00ff1b;}.cls-15{fill:#7aff33;}</style><linearGradient id="linear-gradient" x1="100" y1="174.28" x2="100" y2="73.14" gradientUnits="userSpaceOnUse"><stop offset="0" stop-color="#00ff1b"/><stop offset="1" stop-color="#acff1c"/></linearGradient><linearGradient id="linear-gradient-2" x1="156.51" y1="174.28" x2="156.51" y2="73.14" gradientUnits="userSpaceOnUse"><stop offset="0.26" stop-color="#00d116"/><stop offset="1" stop-color="#acff1c"/></linearGradient><linearGradient id="linear-gradient-3" x1="43.49" y1="174.28" x2="43.49" y2="73.14" xlink:href="#linear-gradient-2"/></defs><polygon class="cls-1" points="128.26 73.14 71.74 78.09 71.74 174.28 128.26 169.33 128.26 73.14"/><polygon class="cls-2" points="184.77 78.09 128.26 73.14 128.26 169.33 184.77 174.28 184.77 78.09"/><path class="cls-3" d="M146.9,74.2a11.35,11.35,0,0,0-.6,3.56c0,15.58,20,8.43,21.57,21.35.91,7.58,8,14,16.9,15.67V77.51Z"/><polygon class="cls-4" points="71.74 78.09 15.23 73.14 15.23 169.33 71.74 174.28 71.74 78.09"/><path class="cls-5" d="M90.07,93.13a4.76,4.76,0,0,1,8-.26,4.76,4.76,0,0,1,3.9-2.11,4.81,4.81,0,0,1,3.95,2,4.77,4.77,0,0,1,8,.08"/><path class="cls-6" d="M110,90.69h-.19a4.75,4.75,0,0,0-3.9,2.1,4.81,4.81,0,0,0-3.95-2A4.76,4.76,0,0,0,98,92.87a4.76,4.76,0,0,0-4-2h0c-.09-8,4.43-21.51,11-21.58S108.56,80.35,110,90.69Z"/><line class="cls-7" x1="151.99" y1="159.05" x2="164.59" y2="159.05"/><path class="cls-5" d="M150.22,159.05h-.71"/><path class="cls-8" d="M146.7,159c-24.23-1.26-36.91-15.48-49.58-29.7-12.92-14.5-25.84-29-51-29.76"/><path class="cls-5" d="M44.72,99.47H44"/><path class="cls-9" d="M57.46,51.9A19.67,19.67,0,0,0,23.88,65.81a20.26,20.26,0,0,0,.35,3.71.69.69,0,0,1,0,.13,20.08,20.08,0,0,0,1.13,3.69,19.42,19.42,0,0,0,1.81,3.4L41.73,98.5a2.19,2.19,0,0,0,3.64,0L59.91,76.74a20.45,20.45,0,0,0,1.81-3.4,19.71,19.71,0,0,0,1.5-7.53A19.58,19.58,0,0,0,57.46,51.9Z"/><path class="cls-10" d="M43.55,53.44a11.49,11.49,0,1,0,8.13,3.36A11.49,11.49,0,0,0,43.55,53.44Z"/><line class="cls-5" x1="43.55" y1="69.46" x2="43.55" y2="60.42"/><line class="cls-5" x1="39.02" y1="64.94" x2="48.07" y2="64.94"/><circle class="cls-10" cx="51.07" cy="43.45" r="7.52"/><circle class="cls-11" cx="51.07" cy="43.45" r="2.68"/><circle class="cls-10" cx="36.02" cy="43.45" r="7.52"/><circle class="cls-11" cx="36.02" cy="43.45" r="2.68"/><path class="cls-12" d="M170.36,111.48a19.66,19.66,0,0,0-33.22,17.62.51.51,0,0,0,0,.13,19.63,19.63,0,0,0,2.94,7.09l14.54,21.76a2.18,2.18,0,0,0,3.63,0l14.54-21.76a19.51,19.51,0,0,0,3.31-10.93A19.54,19.54,0,0,0,170.36,111.48Z"/><path class="cls-10" d="M156.45,113a11.47,11.47,0,1,0,8.14,3.36A11.47,11.47,0,0,0,156.45,113Z"/><line class="cls-5" x1="156.45" y1="129.04" x2="156.45" y2="120"/><line class="cls-5" x1="151.93" y1="124.52" x2="160.97" y2="124.52"/><circle class="cls-10" cx="163.97" cy="103.03" r="7.52"/><circle class="cls-11" cx="163.97" cy="103.03" r="2.68"/><circle class="cls-10" cx="148.93" cy="103.03" r="7.52"/><circle class="cls-11" cx="148.93" cy="103.03" r="2.68"/><path class="cls-13" d="M71.74,155.87V125.92H71.6a7.41,7.41,0,0,0-6.95,4.85,7.39,7.39,0,0,0-12.43,5.4c0,.2,0,.39,0,.58a7.52,7.52,0,0,0-1.7-.2,7.39,7.39,0,0,0-4.36,13.36,7.43,7.43,0,0,0-3,6"/><path class="cls-14" d="M100.05,155.87a7.43,7.43,0,0,0-3-6,7.39,7.39,0,0,0-4.35-13.36,7.54,7.54,0,0,0-1.71.2,5.49,5.49,0,0,0,0-.58,7.39,7.39,0,0,0-12.44-5.4,7.39,7.39,0,0,0-6.8-4.84v30"/><path class="cls-5" d="M73.65,133.11a2.27,2.27,0,0,1,3.7.77,2.28,2.28,0,0,1,3.64.84,2.28,2.28,0,0,1,2-.53,2.24,2.24,0,0,1,1.62,1.46"/><path class="cls-15" d="M83.11,134.22l-.08,0a2.28,2.28,0,0,0-2,.53,2.29,2.29,0,0,0-1.6-1.37,2.26,2.26,0,0,0-2,.53,2.27,2.27,0,0,0-1.6-1.37h0c.86-3.72,4.47-9.44,7.5-8.74S83.62,129.28,83.11,134.22Z"/><path class="cls-5" d="M64,136.76a2.92,2.92,0,0,0-2.84,0A3,3,0,0,0,59.63,139a2.94,2.94,0,0,0-4.28,2.28,2.94,2.94,0,0,0-4.29,2.4"/><path class="cls-15" d="M52.51,141.33l.1-.06a3,3,0,0,1,2.74,0A2.94,2.94,0,0,1,59.63,139a3,3,0,0,1,1.54-2.27h0c-2.33-4.37-8.78-10.33-12.34-8.43S50.21,135.32,52.51,141.33Z"/><circle class="cls-10" cx="78.86" cy="146.15" r="7.12"/><circle class="cls-11" cx="78.86" cy="146.15" r="2.54"/><circle class="cls-10" cx="64.63" cy="146.15" r="7.12"/><circle class="cls-11" cx="64.63" cy="146.15" r="2.54"/><path class="cls-5" d="M87.31,163.11a3.93,3.93,0,0,1,6.57-.21,3.92,3.92,0,0,1,6.47-.07,3.93,3.93,0,0,1,6.57.06"/><path class="cls-6" d="M103.72,161.1h-.15a3.92,3.92,0,0,0-3.22,1.74,3.92,3.92,0,0,0-6.47.07,4,4,0,0,0-3.26-1.67h0c-.07-6.63,3.66-17.75,9.06-17.81S102.57,152.57,103.72,161.1Z"/><path class="cls-3" d="M59.29,168.74c-7.72-7.59-18.79-7.35-27.77-12.12-8.61-4.57,3.51-10-1.48-15.68-3.68-4.2-9.58-6.92-14.81-8.7v37.09l45.85,4C61.47,172,61,170.44,59.29,168.74Z"/></svg>