<svg id="GRAPHICS" xmlns="http://www.w3.org/2000/svg" viewBox="0 0 200 200"><defs><style>.cls-1{fill:#592bff;}.cls-1,.cls-10,.cls-11,.cls-12,.cls-13,.cls-14,.cls-2,.cls-3,.cls-4,.cls-5,.cls-6,.cls-7,.cls-8,.cls-9{stroke:#000;stroke-linecap:round;stroke-linejoin:round;stroke-width:1.42px;}.cls-2{fill:aqua;}.cls-3{fill:#3e1eb3;}.cls-4{fill:#b38300;}.cls-5{fill:#fb0;}.cls-7{fill:none;}.cls-8{fill:#00ff1b;}.cls-9{fill:#fff2cc;}.cls-10{fill:#7aff33;}.cls-11{fill:#007840;}.cls-12{fill:#bdb397;}.cls-13{fill:#00b35f;}.cls-14{fill:#bf9926;}</style></defs><path class="cls-1" d="M31.93,42.27a6.09,6.09,0,0,0-6.09,6.09v99a6.09,6.09,0,0,0,6.09,6.09H168.07a6.09,6.09,0,0,0,6.09-6.09V66.61L149.83,42.27Z"/><polygon class="cls-2" points="36.55 52.98 36.55 142.74 163.45 142.74 163.45 63.04 153.4 52.98 36.55 52.98"/><path class="cls-3" d="M155.91,66.61h18.25L149.83,42.27V60.52A6.09,6.09,0,0,0,155.91,66.61Z"/><path class="cls-4" d="M118.58,64.34H114c-7,0-13.31,5-14.16,12a13.75,13.75,0,0,0,13.64,15.46h4.63c7,0,13.32-5,14.16-12A13.75,13.75,0,0,0,118.58,64.34Z"/><circle class="cls-5" cx="118.58" cy="78.09" r="13.74"/><circle class="cls-6" cx="115.4" cy="74.23" r="1.32"/><circle class="cls-6" cx="121.84" cy="74.23" r="1.32"/><path class="cls-7" d="M113.34,79.23a5.28,5.28,0,1,0,10.56,0"/><path class="cls-8" d="M163.45,142.74V103.26a8.74,8.74,0,0,0-12.29-.36,8.77,8.77,0,0,0-16.47,0,8.76,8.76,0,0,0-14.63,5A9.29,9.29,0,0,0,120,110a8.58,8.58,0,0,0-2-.24,8.76,8.76,0,0,0-5.16,15.85,8.76,8.76,0,0,0,3,15.59,8.85,8.85,0,0,0,4.85-.19v.08a8.87,8.87,0,0,0,.17,1.65Z"/><circle class="cls-9" cx="150.27" cy="121.34" r="7.34"/><circle class="cls-6" cx="150.27" cy="121.34" r="2.62"/><circle class="cls-9" cx="135.58" cy="121.34" r="7.34"/><circle class="cls-6" cx="135.58" cy="121.34" r="2.62"/><path class="cls-7" d="M143.43,106.46a3.2,3.2,0,0,0-5.14,1.47,3.2,3.2,0,0,0-5,1.55,3.19,3.19,0,0,0-2.92-.55,3.23,3.23,0,0,0-2.15,2.23"/><path class="cls-10" d="M130.21,109l.12,0a3.19,3.19,0,0,1,2.92.55,3.2,3.2,0,0,1,5-1.55,3.21,3.21,0,0,1,2.11-2.1h0C138.84,100.67,133.19,93,129,94.28S129,102.08,130.21,109Z"/><path class="cls-11" d="M74.31,80.94H64.46a15.68,15.68,0,0,0-11.75,5.53L36.55,104.83v37.91H135.6L86.06,86.47A15.68,15.68,0,0,0,74.31,80.94Z"/><path class="cls-12" d="M67.57,97.3c2.82,0,4.78,3.2,9,3.2,4.93,0,7-2.88,7.81-4.78l-.19-.22H94l-8-9a15.69,15.69,0,0,0-11.75-5.54H64.46a14.72,14.72,0,0,0-3.25.37,16.13,16.13,0,0,0-8.5,5.17l-8,9H66.82Z"/><path class="cls-13" d="M74.31,80.94a15.68,15.68,0,0,0-11.75,5.53L36.55,116v26.73H135.6L86.06,86.47A15.68,15.68,0,0,0,74.31,80.94Z"/><path class="cls-9" d="M65.33,103.45c6,0,6.71-6.15,12.09-6.15,2.82,0,4.78,3.2,9,3.2,4.94,0,7-2.88,7.82-4.78l-8.15-9.25a15.23,15.23,0,0,0-23.5,0l-8,9C56,98.49,59.12,103.45,65.33,103.45Z"/><circle class="cls-6" cx="70.71" cy="111.8" r="1.47"/><circle class="cls-6" cx="77.91" cy="111.8" r="1.47"/><path class="cls-7" d="M62.52,115.46a11.79,11.79,0,1,0,23.58,0"/><path class="cls-1" d="M129.74,36.19l-7.55-9.83a1.63,1.63,0,0,0-1.29-.64H79.1a1.63,1.63,0,0,0-1.29.64l-7.55,9.83a1.67,1.67,0,0,0,0,2L77.81,48a1.6,1.6,0,0,0,1.29.64h41.8a1.63,1.63,0,0,0,1.29-.64h0l7.55-9.83A1.64,1.64,0,0,0,129.74,36.19Z"/><line class="cls-7" x1="112.65" y1="32.78" x2="112.65" y2="41.59"/><line class="cls-7" x1="116.9" y1="32.78" x2="108.4" y2="32.78"/><line class="cls-7" x1="83.1" y1="32.78" x2="83.1" y2="41.59"/><line class="cls-7" x1="91.6" y1="41.59" x2="91.6" y2="32.78"/><line class="cls-7" x1="91.6" y1="37.19" x2="83.1" y2="32.78"/><line class="cls-7" x1="95.75" y1="32.78" x2="95.75" y2="41.59"/><line class="cls-7" x1="104.25" y1="32.78" x2="95.75" y2="32.78"/><line class="cls-7" x1="104.25" y1="37.19" x2="95.75" y2="37.19"/><rect class="cls-3" x="79.48" y="137.17" width="41.04" height="37.1" rx="5.56"/><rect class="cls-1" x="79.48" y="132.62" width="41.04" height="37.1" rx="5.56"/><line class="cls-7" x1="101.64" y1="164.26" x2="101.64" y2="155.07"/><line class="cls-7" x1="91.87" y1="151.05" x2="98.51" y2="157.7"/><line class="cls-7" x1="91.87" y1="151.05" x2="91.87" y2="145.77"/><circle class="cls-14" cx="91.87" cy="142.48" r="3.29"/><circle cx="91.87" cy="142.48" r="1.09"/><line class="cls-7" x1="101.64" y1="157.87" x2="101.64" y2="153.24"/><circle class="cls-14" cx="101.64" cy="149.95" r="3.29"/><circle cx="101.64" cy="149.95" r="1.09"/><line class="cls-7" x1="110.77" y1="153" x2="104.77" y2="159.01"/><line class="cls-7" x1="110.77" y1="153" x2="110.77" y2="148.9"/><circle class="cls-14" cx="110.77" cy="145.61" r="3.29"/><circle cx="110.77" cy="145.61" r="1.09"/><line class="cls-7" x1="98.51" y1="157.7" x2="98.51" y2="164.26"/><line class="cls-7" x1="104.77" y1="164.26" x2="104.77" y2="159.01"/><line class="cls-7" x1="107.89" y1="164.26" x2="107.89" y2="161.63"/><line class="cls-7" x1="111.02" y1="164.26" x2="111.02" y2="161.63"/><line class="cls-7" x1="114.14" y1="164.26" x2="114.14" y2="161.63"/><line class="cls-7" x1="95.35" y1="164.26" x2="95.35" y2="161.63"/><line class="cls-7" x1="92.19" y1="164.26" x2="92.19" y2="161.63"/><line class="cls-7" x1="85.86" y1="164.26" x2="85.86" y2="161.63"/></svg>