<?xml version="1.0" encoding="utf-8"?>
<!-- Generator: Adobe Illustrator 27.0.0, SVG Export Plug-In . SVG Version: 6.00 Build 0)  -->
<svg version="1.1" id="GRAPHICS" xmlns="http://www.w3.org/2000/svg" xmlns:xlink="http://www.w3.org/1999/xlink" x="0px" y="0px"
	 viewBox="0 0 90 80" style="enable-background:new 0 0 90 80;" xml:space="preserve">
<style type="text/css">
	.st0{fill:#592BFF;stroke:#000000;stroke-width:1.28;stroke-linecap:round;stroke-linejoin:round;}
	.st1{fill:#FFF2CC;stroke:#000000;stroke-width:1.28;stroke-linecap:round;stroke-linejoin:round;}
	.st2{fill:none;stroke:#000000;stroke-width:1.28;stroke-linecap:round;stroke-linejoin:round;}
	.st3{stroke:#000000;stroke-width:1.28;stroke-linecap:round;stroke-linejoin:round;}
	.st4{fill:#592BFF;stroke:#000000;stroke-width:0.85;stroke-linecap:round;stroke-linejoin:round;}
	.st5{fill:#592BFF;stroke:#000000;stroke-width:0.3977;stroke-linecap:round;stroke-linejoin:round;}
</style>
<g>
	<g>
		<path class="st0" d="M56.7,33.7c-3.1-3.1-7.3-4.9-11.7-4.9s-8.6,1.7-11.7,4.9c-3.1,3.1-4.9,7.3-4.9,11.7c0,1,0.1,2.1,0.3,3.1
			c0,0,0,0.1,0,0.1c0.2,1,0.5,2.1,0.9,3.1c0.4,1,0.9,2,1.5,2.9l12.2,18.3c0.3,0.5,0.9,0.8,1.5,0.8s1.2-0.3,1.5-0.8l12.2-18.3
			c0.6-0.9,1.1-1.8,1.5-2.9c0.4-1,0.7-2,0.9-3.1c0.2-1.1,0.3-2.2,0.3-3.2C61.5,40.9,59.8,36.8,56.7,33.7L56.7,33.7z"/>
		<g>
			<path class="st1" d="M45,34.9c-2.7,0-5.1,1.1-6.8,2.8c-1.8,1.8-2.8,4.2-2.8,6.8s1.1,5.1,2.8,6.8s4.2,2.8,6.8,2.8s5.1-1.1,6.8-2.8
				s2.8-4.2,2.8-6.8s-1.1-5.1-2.8-6.8S47.7,34.9,45,34.9z"/>
			<line class="st2" x1="45" y1="48.4" x2="45" y2="40.8"/>
			<line class="st2" x1="41.2" y1="44.6" x2="48.8" y2="44.6"/>
		</g>
	</g>
	<g>
		<g>
			<circle class="st1" cx="51.3" cy="26.5" r="6.3"/>
			<circle class="st3" cx="51.3" cy="26.5" r="2.3"/>
		</g>
		<g>
			<circle class="st1" cx="38.7" cy="26.5" r="6.3"/>
			<circle class="st3" cx="38.7" cy="26.5" r="2.3"/>
		</g>
	</g>
</g>
<path class="st4" d="M75.5,29.1c-0.2-0.6-0.8-1-1.4-1h-3.3l-1-3.1c-0.2-0.6-0.8-1-1.4-1s-1.2,0.4-1.4,1l-1,3.1h-3.3
	c-0.7,0-1.2,0.4-1.4,1s0,1.3,0.6,1.7l2.7,1.9l-1,3.1c-0.2,0.6,0,1.3,0.6,1.7s1.2,0.4,1.8,0l2.7-1.9l2.7,1.9c0.3,0.2,0.6,0.3,0.9,0.3
	s0.6-0.1,0.9-0.3c0.5-0.4,0.8-1.1,0.6-1.7l-1-3.1l2.7-1.9C75.5,30.4,75.7,29.8,75.5,29.1L75.5,29.1z"/>
<path class="st5" d="M54.7,11.9c-0.1-0.3-0.4-0.5-0.7-0.5h-1.5L52,10c-0.1-0.3-0.4-0.5-0.7-0.5c-0.3,0-0.6,0.2-0.7,0.5l-0.5,1.5
	h-1.5c-0.3,0-0.6,0.2-0.7,0.5s0,0.6,0.3,0.8l1.2,0.9L49,15.1c-0.1,0.3,0,0.6,0.3,0.8c0.2,0.2,0.6,0.2,0.8,0l1.2-0.9l1.2,0.9
	c0.1,0.1,0.3,0.1,0.4,0.1c0.1,0,0.3,0,0.4-0.1c0.2-0.2,0.4-0.5,0.3-0.8l-0.5-1.5l1.2-0.9C54.7,12.5,54.8,12.2,54.7,11.9L54.7,11.9z"
	/>
<path class="st4" d="M28.4,22.7c-0.1-0.4-0.5-0.7-1-0.7h-2.3l-0.7-2.2c-0.1-0.4-0.5-0.7-1-0.7s-0.9,0.3-1,0.7L21.7,22h-2.3
	c-0.5,0-0.9,0.3-1,0.7c-0.1,0.4,0,0.9,0.4,1.2l1.9,1.4l-0.7,2.2c-0.1,0.4,0,0.9,0.4,1.2s0.9,0.3,1.2,0l1.9-1.4l1.9,1.4
	c0.2,0.1,0.4,0.2,0.6,0.2s0.4-0.1,0.6-0.2c0.4-0.3,0.5-0.8,0.4-1.2l-0.7-2.2l1.9-1.4C28.4,23.6,28.5,23.1,28.4,22.7L28.4,22.7z"/>
</svg>
