<?xml version="1.0" encoding="UTF-8"?><svg id="GRAPHICS" xmlns="http://www.w3.org/2000/svg" viewBox="0 0 330.34 50"><defs><style>.cls-1{fill:#592bff;}</style></defs><path class="cls-1" d="M307.83,13.25H174.9c-.44,0-.86-.21-1.13-.56l-7.47-9.9c-.53-.71-1.73-.71-2.26,0l-7.47,9.9c-.27,.35-.69,.56-1.13,.56H22.5c-9.51,0-17.25,7.74-17.25,17.25s7.74,17.25,17.25,17.25H307.83c9.51,0,17.25-7.74,17.25-17.25s-7.74-17.25-17.25-17.25Z"/><path d="M306.31,29.69l-5.4-5.4c-.45-.45-1.18-.45-1.63,0-.45,.45-.45,1.18,0,1.63l2.88,2.88c.09,.09,.12,.23,.07,.36-.05,.12-.17,.2-.3,.2h-14.9c-.63,0-1.15,.52-1.15,1.15s.52,1.15,1.15,1.15h14.9c.13,0,.25,.08,.3,.2,.05,.12,.02,.26-.07,.36l-2.88,2.88c-.45,.45-.45,1.18,0,1.63,.43,.44,1.2,.44,1.63,0l5.4-5.4c.45-.45,.45-1.18,0-1.63Z"/></svg>