<?xml version="1.0" encoding="UTF-8"?><svg id="GRAPHICS" xmlns="http://www.w3.org/2000/svg" xmlns:xlink="http://www.w3.org/1999/xlink" viewBox="0 0 110 94"><defs><style>.cls-1{fill:url(#linear-gradient);}.cls-2{fill:aqua;}.cls-3{fill:#fff2cc;}.cls-4{fill:#4a24d4;}</style><linearGradient id="linear-gradient" x1="55" y1="90.49" x2="55" y2="8.23" gradientUnits="userSpaceOnUse"><stop offset="0" stop-color="#592bff"/><stop offset="1" stop-color="#07f"/></linearGradient></defs><g><path class="cls-1" d="M100.06,50.78c3.32-2.43,5.39-6.34,5.39-10.58,0-7.23-5.88-13.11-13.11-13.11-1.02,0-2.04,.12-3.02,.36,.03-.34,.04-.68,.04-1.03,0-7.23-5.88-13.11-13.11-13.11-3.39,0-6.56,1.29-8.94,3.52-1.84-5.01-6.66-8.6-12.31-8.6s-10.47,3.59-12.31,8.6c-2.38-2.23-5.55-3.52-8.94-3.52-7.23,0-13.11,5.88-13.11,13.11,0,.34,.01,.69,.04,1.03-.99-.24-2-.36-3.02-.36-7.23,0-13.11,5.88-13.11,13.11,0,4.25,2.07,8.15,5.39,10.58-3.32,2.42-5.39,6.33-5.39,10.58,0,7.23,5.88,13.11,13.11,13.11,1.4,0,2.78-.22,4.09-.65,0,.04,0,.08,0,.12,0,7.23,5.88,13.11,13.11,13.11,3.28,0,6.39-1.22,8.77-3.37,2.2,4.03,6.39,6.68,11.13,6.81,.05,0,.09,0,.14,0h.23s.09,0,.14,0c4.73-.13,8.93-2.79,11.13-6.81,2.38,2.15,5.48,3.37,8.77,3.37,7.23,0,13.11-5.88,13.11-13.11,0-.04,0-.08,0-.12,1.31,.43,2.68,.65,4.09,.65,7.23,0,13.11-5.88,13.11-13.11,0-4.25-2.07-8.15-5.39-10.58Z"/><path d="M55.11,91.43h-.23c-.07,0-.14,0-.21,0-4.56-.13-8.8-2.52-11.3-6.33-2.44,1.87-5.43,2.89-8.53,2.89-7.37,0-13.44-5.71-14-12.94-1.04,.24-2.11,.37-3.19,.37-7.74,0-14.04-6.3-14.04-14.04,0-4.06,1.78-7.93,4.83-10.58-3.04-2.65-4.83-6.53-4.83-10.58,0-7.74,6.3-14.04,14.04-14.04,.68,0,1.37,.05,2.05,.15,.06-7.69,6.34-13.93,14.04-13.93,3.14,0,6.14,1.03,8.58,2.92,2.31-4.83,7.25-8,12.67-8s10.36,3.17,12.67,8c2.44-1.89,5.44-2.92,8.58-2.92,7.71,0,13.98,6.24,14.04,13.93,.68-.1,1.36-.15,2.05-.15,7.74,0,14.04,6.3,14.04,14.04,0,4.05-1.78,7.93-4.83,10.58,3.04,2.65,4.83,6.52,4.83,10.58,0,7.74-6.3,14.04-14.04,14.04-1.08,0-2.15-.12-3.19-.37-.56,7.23-6.63,12.94-14,12.94-3.1,0-6.09-1.02-8.53-2.89-2.5,3.81-6.75,6.21-11.34,6.33-.03,0-.09,0-.17,0Zm-11.49-8.69c.05,0,.11,0,.16,.01,.28,.05,.53,.22,.66,.47,2.06,3.78,6.02,6.21,10.33,6.33l.11,.94v-.94h.23s.1,0,.11,0c4.31-.12,8.27-2.54,10.33-6.33,.14-.25,.38-.43,.66-.47,.28-.05,.57,.04,.78,.23,2.23,2.02,5.13,3.12,8.14,3.12,6.71,0,12.17-5.46,12.17-12.17,0-.3,.13-.64,.38-.82,.24-.18,.56-.28,.85-.19,1.22,.4,2.5,.61,3.79,.61,6.71,0,12.17-5.46,12.17-12.17,0-3.86-1.87-7.54-5-9.83-.24-.18-.38-.46-.38-.75s.14-.58,.38-.75c3.13-2.29,5-5.96,5-9.83,0-6.71-5.46-12.17-12.17-12.17-.94,0-1.88,.11-2.81,.33-.29,.07-.6,0-.82-.2-.23-.2-.35-.49-.32-.79,.03-.32,.04-.63,.04-.95,0-6.71-5.46-12.17-12.17-12.17-3.1,0-6.05,1.16-8.3,3.27-.23,.21-.55,.3-.86,.23-.3-.07-.55-.29-.66-.59-1.76-4.78-6.35-7.99-11.43-7.99s-9.68,3.21-11.43,7.99c-.11,.29-.36,.52-.66,.59-.31,.08-.63-.01-.86-.23-2.25-2.11-5.2-3.27-8.3-3.27-6.71,0-12.17,5.46-12.17,12.17,0,.32,.01,.64,.04,.95,.02,.3-.1,.59-.32,.79-.23,.19-.54,.27-.82,.2-.92-.22-1.87-.33-2.81-.33-6.71,0-12.17,5.46-12.17,12.17,0,3.86,1.87,7.54,5,9.83,.24,.18,.38,.46,.38,.75s-.14,.58-.38,.75c-3.13,2.29-5,5.96-5,9.83,0,6.71,5.46,12.17,12.17,12.17,1.3,0,2.57-.2,3.79-.61,.29-.09,.61-.04,.85,.14,.24,.18,.38,.47,.38,.78,0,6.81,5.46,12.27,12.17,12.27,3.02,0,5.91-1.11,8.14-3.12,.17-.16,.4-.24,.63-.24Z"/></g><g><g><path class="cls-4" d="M60.02,42.53c-2.47,0-4.48,2.01-4.48,4.48,0,.3-.24,.54-.54,.54s-.54-.24-.54-.54c0-2.47-2.01-4.48-4.48-4.48s-4.48,2.01-4.48,4.48c0,5.24,4.26,9.5,9.49,9.5s9.5-4.26,9.5-9.5c0-2.47-2.01-4.48-4.48-4.48Z"/><path d="M55,57.44c-5.75,0-10.43-4.68-10.43-10.43,0-2.99,2.43-5.41,5.41-5.41,2.27,0,4.21,1.4,5.02,3.38,.8-1.98,2.75-3.38,5.02-3.38,2.99,0,5.41,2.43,5.41,5.41,0,5.75-4.68,10.43-10.43,10.43Zm-5.02-13.97c-1.95,0-3.54,1.59-3.54,3.54,0,4.72,3.84,8.56,8.56,8.56s8.56-3.84,8.56-8.56c0-1.95-1.59-3.54-3.54-3.54s-3.54,1.59-3.54,3.54c0,.81-.66,1.47-1.48,1.47s-1.47-.66-1.47-1.47c0-1.95-1.59-3.54-3.54-3.54Z"/></g><path d="M55,52.96c-3.28,0-5.95-2.67-5.95-5.95,0-.52,.42-.94,.94-.94s.94,.42,.94,.94c0,2.25,1.83,4.08,4.08,4.08s4.08-1.83,4.08-4.08c0-.52,.42-.94,.94-.94s.94,.42,.94,.94c0,3.28-2.67,5.95-5.95,5.95Z"/></g><g><g><path d="M75.03,25.22c-.39,0-.75-.24-.88-.63-.34-.98-1.15-1.71-2.16-1.95-.96-.22-1.97,.05-2.71,.71-.23,.21-.54,.29-.84,.22-.3-.07-.55-.28-.66-.57-.37-.92-1.16-1.6-2.12-1.83-.96-.23-1.97,.04-2.71,.71-.23,.21-.54,.29-.84,.22-.3-.07-.55-.28-.66-.57-.37-.92-1.16-1.6-2.12-1.83-1.01-.23-2.06,.07-2.8,.8-.37,.36-.96,.36-1.32,0-.36-.37-.36-.96,0-1.32,1.2-1.19,2.9-1.67,4.53-1.29,1.18,.27,2.2,.97,2.88,1.94,1.04-.57,2.27-.75,3.44-.47,1.18,.27,2.2,.97,2.88,1.94,1.04-.57,2.27-.75,3.44-.48,1.64,.38,2.95,1.56,3.51,3.15,.17,.49-.09,1.02-.57,1.19-.1,.04-.21,.05-.31,.05Z"/><g><path class="cls-2" d="M72.34,21.78s-.1-.03-.15-.04c-1.31-.3-2.62,.09-3.55,.93-.46-1.16-1.47-2.09-2.78-2.39-1.31-.3-2.62,.09-3.55,.93-.46-1.16-1.47-2.09-2.78-2.39-.01,0-.03,0-.04,0,1.5-6.47,7.76-16.42,13.04-15.2,5.28,1.22,.69,9.59-.21,18.17Z"/><path d="M68.65,23.6c-.07,0-.14,0-.21-.02-.3-.07-.55-.28-.66-.57-.37-.92-1.16-1.6-2.12-1.83-.96-.23-1.97,.04-2.7,.71-.23,.21-.54,.29-.84,.22-.3-.07-.55-.28-.66-.57-.37-.92-1.16-1.61-2.12-1.83-.25-.05-.47-.19-.61-.4-.14-.21-.18-.47-.13-.72,.8-3.46,2.87-7.71,5.27-10.84,2.99-3.89,6.15-5.7,8.89-5.06,1.15,.27,2,.84,2.54,1.71,1.31,2.13,.5,5.49-.53,9.75-.57,2.38-1.23,5.07-1.5,7.71-.03,.27-.17,.52-.4,.67-.22,.15-.5,.21-.77,.14-.02,0-.1-.03-.12-.04-.96-.22-1.97,.04-2.7,.71-.17,.16-.4,.24-.63,.24Zm-3.67-4.36c.37,0,.73,.04,1.1,.13,1.18,.27,2.2,.97,2.88,1.94,.78-.43,1.68-.64,2.56-.6,.33-2.44,.91-4.84,1.43-6.98,.85-3.53,1.66-6.86,.76-8.33-.27-.44-.71-.72-1.37-.87-1.96-.46-4.5,1.14-6.99,4.37-2.07,2.69-3.87,6.26-4.72,9.31,.82,.36,1.51,.93,2.01,1.64,.72-.39,1.52-.6,2.34-.6Z"/></g></g><g><path d="M79.96,78.05c-.49,0-.99-.08-1.47-.23-.49-.15-.77-.68-.61-1.17,.15-.49,.68-.77,1.17-.61,1,.31,2.06,.1,2.85-.58,.75-.64,1.14-1.61,1.04-2.6-.03-.3,.09-.61,.32-.81,.23-.2,.55-.27,.85-.19,.96,.26,1.98,.03,2.73-.61,.75-.64,1.14-1.61,1.04-2.6-.03-.31,.09-.61,.32-.81,.23-.2,.55-.27,.85-.19,.96,.26,1.98,.03,2.73-.61,.79-.67,1.17-1.69,1.02-2.72-.07-.51,.28-.99,.79-1.06,.51-.08,.99,.28,1.06,.79,.24,1.67-.38,3.32-1.66,4.41-.92,.78-2.07,1.2-3.27,1.16-.16,1.17-.75,2.26-1.67,3.05-.92,.78-2.11,1.2-3.27,1.16-.16,1.17-.75,2.26-1.67,3.05-.9,.76-2.01,1.16-3.15,1.16Z"/><g><path class="cls-2" d="M82.38,76.27s.08-.06,.12-.09c1.03-.87,1.49-2.16,1.37-3.4,1.21,.32,2.55,.07,3.58-.8,1.03-.87,1.49-2.16,1.37-3.4,1.21,.32,2.55,.07,3.58-.8,0,0,.02-.02,.03-.03,4.3,5.06,8.55,16.02,4.43,19.53-4.12,3.51-8.11-5.17-14.47-11Z"/><path d="M94.87,89.01c-.1,0-.21,0-.31-.01-2.49-.21-4.71-2.87-7.51-6.24-1.57-1.88-3.34-4.01-5.3-5.8-.2-.19-.31-.45-.3-.72,0-.27,.14-.53,.35-.7,.01-.01,.08-.06,.1-.07,.75-.64,1.14-1.61,1.04-2.59-.03-.3,.09-.61,.32-.81,.23-.2,.55-.27,.85-.19,.96,.26,1.98,.03,2.73-.61,.75-.64,1.14-1.61,1.04-2.6-.03-.31,.09-.61,.32-.81,.23-.2,.55-.27,.85-.19,.96,.26,1.98,.03,2.73-.61,.19-.16,.44-.26,.69-.23,.25,.02,.49,.12,.65,.31,4.27,5.02,9.15,16.74,4.32,20.85-.81,.69-1.67,1.03-2.58,1.03Zm-11.14-12.76c1.76,1.71,3.34,3.61,4.76,5.31,2.33,2.79,4.52,5.42,6.24,5.57,.53,.05,1-.14,1.52-.58,3.3-2.81-.02-12.41-4-17.56-.78,.44-1.65,.66-2.51,.64-.16,1.17-.75,2.26-1.67,3.05-.92,.78-2.08,1.2-3.28,1.16-.12,.88-.48,1.72-1.05,2.41Z"/></g></g><g><path d="M31.29,79.54c-1.14,0-2.25-.4-3.15-1.16-.92-.78-1.51-1.87-1.67-3.05-1.2,.05-2.35-.38-3.27-1.16-.92-.78-1.51-1.87-1.67-3.05-1.2,.04-2.35-.38-3.28-1.16-1.28-1.09-1.9-2.74-1.66-4.41,.07-.51,.54-.87,1.06-.79,.51,.07,.87,.55,.79,1.06-.15,1.03,.24,2.05,1.02,2.72,.75,.64,1.77,.87,2.73,.61,.29-.08,.61,0,.85,.19,.23,.2,.36,.5,.32,.81-.1,.99,.29,1.96,1.04,2.6,.75,.64,1.77,.87,2.73,.61,.29-.08,.61,0,.85,.19,.23,.2,.36,.5,.32,.81-.1,.99,.29,1.96,1.04,2.6,.79,.67,1.86,.89,2.85,.58,.49-.16,1.02,.12,1.17,.61s-.12,1.02-.61,1.17c-.49,.15-.98,.23-1.47,.23Z"/><g><path class="cls-2" d="M28.87,77.76s-.08-.06-.12-.09c-1.03-.87-1.49-2.16-1.37-3.4-1.21,.32-2.55,.07-3.58-.8-1.03-.87-1.49-2.16-1.37-3.4-1.21,.32-2.55,.07-3.58-.8,0,0-.02-.02-.03-.03-4.3,5.06-8.55,16.02-4.43,19.53,4.12,3.51,8.11-5.17,14.47-11Z"/><path d="M16.38,90.5c-.91,0-1.77-.35-2.58-1.03-2.14-1.82-2.58-5.43-1.24-10.15,1.08-3.8,3.26-7.99,5.56-10.69,.16-.19,.4-.31,.65-.33,.26-.02,.5,.07,.69,.23,.76,.65,1.78,.88,2.74,.63,.3-.08,.61,0,.85,.19,.23,.2,.35,.5,.32,.81-.1,.99,.29,1.96,1.04,2.6,.75,.64,1.77,.87,2.73,.61,.29-.08,.61,0,.85,.19,.23,.2,.36,.5,.32,.81-.1,.99,.29,1.96,1.04,2.6l.11,.08c.21,.17,.34,.43,.35,.7,0,.27-.1,.53-.3,.72-1.96,1.8-3.73,3.92-5.3,5.8-2.81,3.37-5.02,6.03-7.51,6.24-.1,0-.21,.01-.31,.01Zm2.63-20.01c-1.94,2.51-3.72,6.07-4.65,9.33-1.12,3.92-.88,6.91,.65,8.22,.52,.44,1,.63,1.52,.58,1.72-.15,3.91-2.78,6.24-5.57,1.41-1.7,2.99-3.59,4.75-5.31-.57-.69-.93-1.53-1.05-2.41-1.2,.05-2.35-.38-3.27-1.16-.92-.78-1.51-1.87-1.67-3.05-.88,.02-1.75-.2-2.52-.63Z"/></g></g><path d="M53.17,68.67c-1.17,0-2.29-.43-3.15-1.19-.86,.76-1.98,1.19-3.15,1.19-1.64,0-3.15-.83-4.03-2.23-.28-.44-.15-1.01,.29-1.29,.44-.27,1.02-.14,1.29,.29,.54,.85,1.45,1.36,2.45,1.36s1.84-.47,2.38-1.25c.35-.5,1.19-.5,1.54,0,.54,.78,1.43,1.25,2.38,1.25s1.84-.47,2.38-1.25c.29-.43,.88-.53,1.3-.24,.43,.29,.53,.88,.24,1.3-.89,1.29-2.36,2.06-3.92,2.06Z"/><path d="M69.96,73.95c-1.64,0-3.15-.83-4.03-2.23-.27-.44-.14-1.01,.29-1.29,.44-.27,1.01-.14,1.29,.29,.53,.85,1.45,1.36,2.45,1.36s1.84-.47,2.38-1.25c.29-.43,.87-.53,1.3-.24,.43,.29,.53,.88,.24,1.3-.89,1.29-2.36,2.06-3.92,2.06Z"/><path d="M42.43,29.88c-.13,0-.27-.03-.4-.09-.47-.22-.67-.78-.44-1.25,.67-1.42,1.99-2.41,3.54-2.67,1.62-.27,3.24,.31,4.34,1.55,.34,.39,.31,.98-.08,1.32-.39,.34-.98,.31-1.32-.08-.67-.75-1.66-1.1-2.64-.94-.94,.15-1.74,.76-2.15,1.62-.16,.34-.5,.53-.85,.53Z"/></g><g><g><g><circle class="cls-3" cx="29.85" cy="48.42" r="11.07"/><path d="M29.85,60.43c-6.62,0-12.01-5.39-12.01-12.01s5.39-12.01,12.01-12.01,12.01,5.39,12.01,12.01-5.39,12.01-12.01,12.01Zm0-22.15c-5.59,0-10.14,4.55-10.14,10.14s4.55,10.14,10.14,10.14,10.14-4.55,10.14-10.14-4.55-10.14-10.14-10.14Z"/></g><g><path d="M29.85,53.83c-.52,0-.94-.42-.94-.94v-8.95c0-.52,.42-.94,.94-.94s.94,.42,.94,.94v8.95c0,.52-.42,.94-.94,.94Z"/><path d="M34.33,49.35h-8.95c-.52,0-.94-.42-.94-.94s.42-.94,.94-.94h8.95c.52,0,.94,.42,.94,.94s-.42,.94-.94,.94Z"/></g></g><g><g><circle class="cls-3" cx="80.15" cy="48.42" r="11.07"/><path d="M80.15,60.43c-6.62,0-12.01-5.39-12.01-12.01s5.39-12.01,12.01-12.01,12.01,5.39,12.01,12.01-5.39,12.01-12.01,12.01Zm0-22.15c-5.59,0-10.14,4.55-10.14,10.14s4.55,10.14,10.14,10.14,10.14-4.55,10.14-10.14-4.55-10.14-10.14-10.14Z"/></g><g><path d="M80.15,53.83c-.52,0-.94-.42-.94-.94v-8.95c0-.52,.42-.94,.94-.94s.94,.42,.94,.94v8.95c0,.52-.42,.94-.94,.94Z"/><path d="M84.63,49.35h-8.95c-.52,0-.94-.42-.94-.94s.42-.94,.94-.94h8.95c.52,0,.94,.42,.94,.94s-.42,.94-.94,.94Z"/></g></g></g></svg>