<?xml version="1.0" encoding="UTF-8"?><svg id="GRAPHICS" xmlns="http://www.w3.org/2000/svg" viewBox="0 0 20 4"><defs><style>.cls-1{fill:#592bff;}</style></defs><path class="cls-1" d="M5.24,2.43H2.26c-.23,0-.43-.19-.43-.43s.19-.43,.43-.43h2.98c.23,0,.43,.19,.43,.43s-.19,.43-.43,.43Z"/><path class="cls-1" d="M11.49,2.43h-2.98c-.23,0-.43-.19-.43-.43s.19-.43,.43-.43h2.98c.23,0,.43,.19,.43,.43s-.19,.43-.43,.43Z"/><path class="cls-1" d="M17.74,2.43h-2.98c-.23,0-.43-.19-.43-.43s.19-.43,.43-.43h2.98c.23,0,.43,.19,.43,.43s-.19,.43-.43,.43Z"/></svg>