<?xml version="1.0" encoding="UTF-8"?><svg id="GRAPHICS" xmlns="http://www.w3.org/2000/svg" viewBox="0 0 150 4"><defs><style>.cls-1{fill:#592bff;}</style></defs><path class="cls-1" d="M123.69,2.55H26.31c-.31,0-.56-.25-.56-.55s.25-.55,.56-.55H123.69c.31,0,.56,.25,.56,.55s-.25,.55-.56,.55Z"/><path class="cls-1" d="M135.89,2.55h-6.59c-.31,0-.56-.25-.56-.55s.25-.55,.56-.55h6.59c.31,0,.56,.25,.56,.55s-.25,.55-.56,.55Z"/><path class="cls-1" d="M145.61,2.55h-4.12c-.31,0-.56-.25-.56-.55s.25-.55,.56-.55h4.12c.31,0,.56,.25,.56,.55s-.25,.55-.56,.55Z"/><path class="cls-1" d="M14.11,1.45h6.59c.31,0,.56,.25,.56,.55s-.25,.55-.56,.55h-6.59c-.31,0-.56-.25-.56-.55s.25-.55,.56-.55Z"/><path class="cls-1" d="M4.39,1.45h4.12c.31,0,.56,.25,.56,.55s-.25,.55-.56,.55H4.39c-.31,0-.56-.25-.56-.55s.25-.55,.56-.55Z"/></svg>