<?xml version="1.0" encoding="UTF-8"?><svg id="GRAPHICS" xmlns="http://www.w3.org/2000/svg" viewBox="0 0 50 60"><defs><style>.cls-1,.cls-2,.cls-3,.cls-4,.cls-5,.cls-6,.cls-7,.cls-8,.cls-9{stroke:#000;stroke-linecap:round;stroke-linejoin:round;stroke-width:.85px;}.cls-2{fill:#297a00;}.cls-3{fill:#592bff;}.cls-4{fill:#5f0;}.cls-5{fill:#3bb000;}.cls-6{fill:#a1ff73;}.cls-7{fill:#f80;}.cls-8{fill:#f200ff;}.cls-9{fill:#eaff00;}</style></defs><path class="cls-1" d="M6.39,1.98H43.61c2.56,0,4.64,2.08,4.64,4.64V53.38c0,2.56-2.08,4.64-4.64,4.64H6.39c-2.56,0-4.64-2.08-4.64-4.64V6.62C1.76,4.06,3.83,1.98,6.39,1.98Z"/><g><g><path class="cls-4" d="M35.14,50.26c-1.27,0-2.31-1.03-2.31-2.31,0-8.01-4.34-11.88-9.37-16.36-5.12-4.56-10.92-9.73-10.92-19.81,0-1.27,1.03-2.31,2.31-2.31s2.31,1.03,2.31,2.31c0,8.01,4.34,11.88,9.37,16.36,5.12,4.56,10.92,9.73,10.92,19.81,0,1.27-1.03,2.31-2.31,2.31Z"/><g><circle class="cls-6" cx="35.14" cy="47.95" r="2.31"/><circle class="cls-1" cx="35.14" cy="47.95" r=".78"/></g><g><path class="cls-4" d="M19.01,27.38c-3.53-3.75-6.47-8.43-6.47-15.6,0-1.27,1.03-2.31,2.31-2.31s2.31,1.03,2.31,2.31c0,5.75,2.24,9.37,5.36,12.61"/><path class="cls-7" d="M31.8,23.99h-11.56c-.64,0-1.15-.52-1.15-1.15s.52-1.15,1.15-1.15h11.56c.64,0,1.15,.52,1.15,1.15s-.52,1.15-1.15,1.15Z"/><path class="cls-9" d="M33.79,17.77H17.51c-.64,0-1.15-.52-1.15-1.15s.52-1.15,1.15-1.15h16.28c.64,0,1.15,.52,1.15,1.15s-.52,1.15-1.15,1.15Z"/><g><circle class="cls-6" cx="14.86" cy="11.79" r="2.31"/><circle class="cls-1" cx="14.86" cy="11.79" r=".78"/></g></g><g><path class="cls-8" d="M18.2,35.75h11.56c.64,0,1.15,.52,1.15,1.15s-.52,1.15-1.15,1.15h-11.56c-.64,0-1.15-.52-1.15-1.15s.52-1.15,1.15-1.15Z"/><path class="cls-3" d="M16.21,41.96h16.28c.64,0,1.15,.52,1.15,1.15s-.52,1.15-1.15,1.15H16.21c-.64,0-1.15-.52-1.15-1.15s.52-1.15,1.15-1.15Z"/></g><path class="cls-2" d="M37.45,11.79c0,10.08-5.8,15.24-10.92,19.81-5.03,4.48-9.37,8.35-9.37,16.36,0,1.27-1.03,2.31-2.31,2.31s-2.31-1.03-2.31-2.31c0-10.08,5.8-15.25,10.92-19.81,5.03-4.48,9.37-8.35,9.37-16.36"/><g><circle class="cls-5" cx="14.86" cy="47.95" r="2.31"/><circle class="cls-1" cx="14.86" cy="47.95" r=".78"/></g><g><circle class="cls-5" cx="35.14" cy="11.79" r="2.31"/><circle class="cls-1" cx="35.14" cy="11.79" r=".78"/></g></g><path class="cls-4" d="M25,53.38h2.78c2.93,0,3.99-.33,3.99-1.41,0-1.34-2.17-1.59-4.04-1.59,0,0,3.25-1.78,2.37-3.23-.74-1.22-3.46,.37-3.79,.69,0,0,.83-6.88-1.33-6.88-2.15,0-1.33,6.88-1.33,6.88-.32-.32-3.05-1.92-3.79-.69-.87,1.45,2.37,3.23,2.37,3.23-1.87,0-4.04,.25-4.04,1.59,0,1.08,1.06,1.41,3.99,1.41h2.78Z"/></g></svg>