<svg id="GRAPHICS" xmlns="http://www.w3.org/2000/svg" xmlns:xlink="http://www.w3.org/1999/xlink" viewBox="0 0 46 40"><defs><style>.cls-1{fill:#6b663a;}.cls-1,.cls-2,.cls-3,.cls-4{stroke:#000;stroke-linecap:round;stroke-linejoin:round;stroke-width:1.28px;}.cls-2{fill:url(#New_Gradient_Swatch_3);}.cls-4{fill:none;}</style><linearGradient id="New_Gradient_Swatch_3" x1="24.91" y1="37.51" x2="24.91" y2="2.47" gradientUnits="userSpaceOnUse"><stop offset="0" stop-color="#5f592c"/><stop offset="0.06" stop-color="#877f3f"/><stop offset="0.13" stop-color="#aba04f"/><stop offset="0.19" stop-color="#c4b85a"/><stop offset="0.25" stop-color="#d4c662"/><stop offset="0.29" stop-color="#d9cb64"/><stop offset="0.42" stop-color="#bbaf57"/><stop offset="0.53" stop-color="#9c9249"/><stop offset="0.54" stop-color="#c0b56b"/><stop offset="0.55" stop-color="#dbd185"/><stop offset="0.55" stop-color="#efe497"/><stop offset="0.56" stop-color="#fbf0a2"/><stop offset="0.57" stop-color="#fff4a6"/><stop offset="0.59" stop-color="#fff4a6"/><stop offset="0.72" stop-color="#fff4a6"/><stop offset="0.8" stop-color="#cdc276"/><stop offset="0.89" stop-color="#9c9147"/><stop offset="0.91" stop-color="#a3984c"/><stop offset="0.93" stop-color="#b6aa59"/><stop offset="0.97" stop-color="#d4c86e"/><stop offset="1" stop-color="#fff18c"/></linearGradient></defs><path class="cls-1" d="M41.57,19.83A3.8,3.8,0,0,0,39.33,13H31.07L28.52,5.1a3.8,3.8,0,0,0-3.61-2.63H21.09A3.8,3.8,0,0,0,17.48,5.1L14.93,13H6.67a3.8,3.8,0,0,0-2.24,6.88l6.68,4.85H34.89Z"/><path class="cls-1" d="M9.94,36.79a3.72,3.72,0,0,0,2,.71c.73,0,3.43,0,4.12,0a3.8,3.8,0,0,0,2.15-.72L23,33.32l4.77,3.47a3.83,3.83,0,0,0,2.24.72h3.81a3.79,3.79,0,0,0,3.62-5l-2.55-7.86H11.11L8.56,32.54A3.81,3.81,0,0,0,9.94,36.79Z"/><path class="cls-2" d="M43,15.58A3.8,3.8,0,0,0,39.33,13H31.07L28.52,5.1a3.8,3.8,0,0,0-7.23,0L18.74,13H10.48a3.8,3.8,0,0,0-2.23,6.88l6.68,4.86-2.55,7.85a3.8,3.8,0,0,0,5.85,4.25l6.68-4.85,6.68,4.85a3.8,3.8,0,0,0,5.85-4.25l-2.55-7.85,6.68-4.86A3.8,3.8,0,0,0,43,15.58Z"/><circle class="cls-3" cx="22.2" cy="17.73" r="1.11"/><circle class="cls-3" cx="27.62" cy="17.73" r="1.11"/><path class="cls-4" d="M20.47,21.93a4.44,4.44,0,0,0,8.88,0"/></svg>