<svg id="GRAPHICS" xmlns="http://www.w3.org/2000/svg" viewBox="0 0 380 4"><defs><style>.cls-1{fill:#07f;}</style></defs><path class="cls-1" d="M353.81,2.5H28.22a.5.5,0,0,1,0-1H353.81a.5.5,0,0,1,0,1Z"/><path class="cls-1" d="M364.8,2.5h-5.94a.5.5,0,0,1,0-1h5.94a.5.5,0,0,1,0,1Z"/><path class="cls-1" d="M373.56,2.5h-3.71a.5.5,0,0,1,0-1h3.71a.5.5,0,0,1,0,1Z"/><path class="cls-1" d="M17.23,1.5h5.93a.5.5,0,0,1,0,1H17.23a.5.5,0,0,1,0-1Z"/><path class="cls-1" d="M8.46,1.5h3.71a.5.5,0,0,1,0,1H8.46a.5.5,0,0,1,0-1Z"/></svg>