<?xml version="1.0" encoding="utf-8"?>
<!-- Generator: Adobe Illustrator 26.5.0, SVG Export Plug-In . SVG Version: 6.00 Build 0)  -->
<svg version="1.1" id="GRAPHICS" xmlns="http://www.w3.org/2000/svg" xmlns:xlink="http://www.w3.org/1999/xlink" x="0px" y="0px"
	 viewBox="0 0 270 4" style="enable-background:new 0 0 270 4;" xml:space="preserve">
<style type="text/css">
	.st0{fill:#00FF1B;}
</style>
<g>
	<path class="st0" d="M244.6,2.5H25.4c-0.3,0-0.5-0.2-0.5-0.5s0.2-0.5,0.5-0.5h219.2c0.3,0,0.5,0.2,0.5,0.5S244.9,2.5,244.6,2.5z"/>
	<path class="st0" d="M255.6,2.5h-5.9c-0.3,0-0.5-0.2-0.5-0.5s0.2-0.5,0.5-0.5h5.9c0.3,0,0.5,0.2,0.5,0.5S255.9,2.5,255.6,2.5z"/>
	<path class="st0" d="M264.3,2.5h-3.7c-0.3,0-0.5-0.2-0.5-0.5s0.2-0.5,0.5-0.5h3.7c0.3,0,0.5,0.2,0.5,0.5S264.6,2.5,264.3,2.5z"/>
	<path class="st0" d="M14.4,1.5h5.9c0.3,0,0.5,0.2,0.5,0.5s-0.2,0.5-0.5,0.5h-5.9c-0.3,0-0.5-0.2-0.5-0.5S14.1,1.5,14.4,1.5z"/>
	<path class="st0" d="M5.7,1.5h3.7c0.3,0,0.5,0.2,0.5,0.5S9.6,2.5,9.4,2.5H5.7C5.4,2.5,5.2,2.3,5.2,2S5.4,1.5,5.7,1.5z"/>
</g>
</svg>
