<?xml version="1.0" encoding="UTF-8"?><svg id="GUIDES" xmlns="http://www.w3.org/2000/svg" viewBox="0 0 360 180"><defs><style>.cls-1{fill:#ffca00;}.cls-2{fill:#ff007b;}</style></defs><path class="cls-2" d="M352.95,90.12c-5.19-2.45-8.84-7.07-10.02-12.67-.06-.28-.13-.65-.18-.95-.91-5.63,.81-11.24,4.73-15.4,.99-1.04,1.25-2.58,.68-3.89-.57-1.31-1.96-2.19-3.32-2.14-.8,.01-1.61-.04-2.45-.14-9.42-.94-16.53-8.81-16.53-18.3,0-1.67,.24-3.37,.72-5.04,.39-1.35-.06-2.81-1.14-3.72-1.08-.91-2.59-1.1-3.86-.49-5.11,2.46-10.94,2.43-16-.11l-.44-.23c-5.08-2.69-8.52-7.5-9.44-13.19-.23-1.42-1.29-2.57-2.68-2.91-1.4-.34-2.87,.19-3.72,1.34-3.51,4.73-9.2,7.5-15.18,7.35-.02,0-.51,0-.54,0-7.53,0-14.17-4.53-16.92-11.53-.54-1.37-1.86-2.27-3.33-2.27h0c-1.47,0-2.79,.91-3.33,2.28-2.73,7-9.36,11.53-16.97,11.53s-14.17-4.53-16.92-11.53c-.54-1.37-1.86-2.27-3.33-2.27h0c-1.47,0-2.79,.91-3.33,2.28-2.73,7-9.36,11.53-16.97,11.53s-14.17-4.53-16.92-11.53c-.54-1.37-1.86-2.27-3.33-2.27h0c-1.47,0-2.79,.91-3.33,2.28-2.73,7-9.36,11.53-16.97,11.53s-14.17-4.53-16.92-11.53c-.54-1.37-1.86-2.27-3.33-2.27h0c-1.47,0-2.79,.91-3.33,2.28-2.73,7-9.36,11.53-16.97,11.53s-13.84-4.33-16.7-11.02c-.58-1.35-1.93-2.22-3.39-2.17-1.47,.04-2.76,.97-3.26,2.35-2.25,6.2-7.69,10.69-14.3,11.73-5.71,.9-11.56-1-15.67-5.09-1.02-1.02-2.55-1.32-3.88-.78-1.33,.54-2.21,1.84-2.22,3.27-.06,5.8-2.91,11.27-7.64,14.64-4.75,3.42-10.91,4.34-16.47,2.45-1.37-.46-2.88-.06-3.83,1.02-.95,1.08-1.17,2.63-.54,3.93,2.55,5.25,2.44,11.22-.44,16.66-2.76,5.07-7.83,8.55-13.56,9.31-1.43,.19-2.6,1.22-2.98,2.61-.38,1.39,.11,2.87,1.24,3.76,4.56,3.58,7.16,9.16,6.96,14.96-.18,5.86-3.2,11.3-8.09,14.57-1.2,.8-1.8,2.24-1.53,3.66,.27,1.42,1.38,2.53,2.79,2.82,5.72,1.18,10.38,4.9,12.85,10.29,2.44,5.33,2.14,11.55-.79,16.63-.72,1.25-.62,2.81,.25,3.95s2.35,1.66,3.74,1.3c5.58-1.44,11.38-.2,15.89,3.4,.26,.21,.58,.48,.83,.7,4.2,3.76,6.4,9.14,6.03,14.78-.1,1.44,.68,2.8,1.97,3.44,1.29,.64,2.84,.45,3.94-.49,4.39-3.79,10.37-5.25,16.33-3.84,6.05,1.51,10.85,5.95,12.83,11.88,.47,1.39,1.73,2.35,3.19,2.44,1.46,.08,2.83-.73,3.45-2.05,2.97-6.33,9.41-10.42,16.49-10.42,7.53,0,14.17,4.53,16.92,11.53,.54,1.37,1.86,2.27,3.33,2.27h0c1.47,0,2.79-.91,3.33-2.28,2.73-7,9.36-11.53,16.97-11.53s14.17,4.53,16.92,11.53c.54,1.37,1.86,2.27,3.33,2.27h0c1.47,0,2.79-.91,3.33-2.28,2.73-7,9.36-11.52,16.97-11.52s14.17,4.53,16.92,11.53c.54,1.37,1.86,2.27,3.33,2.27h0c1.47,0,2.79-.91,3.33-2.28,2.73-7,9.36-11.52,16.97-11.52s14.17,4.53,16.92,11.53c.54,1.37,1.86,2.27,3.33,2.27h0c1.47,0,2.79-.91,3.33-2.28,2.73-7,9.36-11.52,16.97-11.52,6.33,0,12.11,3.22,15.45,8.61,.76,1.23,2.17,1.88,3.61,1.65,1.43-.23,2.57-1.29,2.91-2.7,1.37-5.69,5.43-10.4,10.86-12.6,5.41-2.22,11.6-1.69,16.56,1.42,1.22,.76,2.78,.73,3.96-.1,1.18-.83,1.75-2.28,1.44-3.69-1.23-5.68,.34-11.65,4.22-15.99,3.88-4.38,9.67-6.64,15.51-6.02,1.44,.15,2.82-.57,3.51-1.84,.69-1.26,.56-2.83-.35-3.95-3.64-4.56-4.86-10.4-3.31-16.13,1.53-5.65,5.72-10.25,11.22-12.3,1.35-.5,2.27-1.76,2.33-3.2,.06-1.44-.74-2.77-2.05-3.39Z"/><path class="cls-1" d="M122.28,84.89c10.93,0,19.82-8.94,19.82-19.94s-8.71-20.05-19.82-20.05-19.77,8.99-19.77,20.05,8.87,19.94,19.77,19.94Zm0-31.53c6.25,0,11.15,5.09,11.15,11.6s-4.9,11.48-11.15,11.48-11.09-5.04-11.09-11.48,4.87-11.6,11.09-11.6Zm-2.35,58.32l-4.61-1.35c-2.61-.74-3.93-1.98-3.93-3.67,0-2.15,1.98-3.71,4.72-3.71,2.13,0,3.96,.9,5.3,2.61,1.53,1.91,3.47,2.26,5.47,.98,1.69-1.08,2.24-3.08,1.32-4.85-2.14-4.18-6.51-6.57-11.97-6.57-7.7,0-13.5,5.06-13.5,11.77,0,5.35,3.44,9.13,10.21,11.22l4.55,1.26c1.48,.42,4.55,1.3,4.48,4.13-.05,2.32-2.17,3.82-5.39,3.82-3.74,0-5.35-2.19-5.97-3.49-.69-1.42-2.22-2.38-3.82-2.38-.52,0-1.03,.1-1.53,.29-2.04,.78-2.99,2.82-2.32,4.95,1.74,5.18,6.97,8.4,13.64,8.4s14-3.6,14.12-11.5c.17-5.81-3.44-9.82-10.74-11.92Zm-36.73-58.32c3,0,5.69,1.04,7.78,3.01,1.48,1.3,3.94,1.25,5.57-.15,.88-.79,1.44-2.1,1.45-3.4,0-1.02-.34-1.93-.94-2.49-3.62-3.5-8.54-5.42-13.86-5.42-10.99,0-19.6,8.78-19.6,19.99s8.61,19.99,19.6,19.99c5.32,0,10.21-1.89,13.77-5.34l.08-.08c.61-.56,.96-1.46,.95-2.51-.01-1.32-.59-2.62-1.54-3.47-1.61-1.37-4.02-1.36-5.62,.05-1.99,1.88-4.64,2.89-7.64,2.89-6.13,0-10.93-5.07-10.93-11.54s4.8-11.54,10.93-11.54Zm123.56,31.31c2.39,0,4.34-1.82,4.34-4.06v-31.48c0-2.24-1.95-4.06-4.34-4.06s-4.28,1.89-4.34,4.13v31.41c0,2.09,2.11,4.06,4.34,4.06Zm22.51-4.06v-9.48c0-1.13,.76-2.12,1.85-2.41,.22-.06,.43-.08,.65-.08,.89,0,1.72,.48,2.16,1.25l6.82,11.86c1.19,2.08,2.52,2.93,4.58,2.93h.73c2.14,0,3.89-1.95,3.89-4.34v-31.2c0-2.24-1.95-4.06-4.34-4.06-2.23,0-4.34,1.97-4.34,4.06v9.14c0,1.13-.76,2.12-1.86,2.41-1.1,.29-2.25-.19-2.81-1.18l-6.53-11.44c-1.18-2.1-2.6-3-4.76-3h-.73c-2.21,0-4,2-4,4.45v31.08c0,2.09,2.11,4.06,4.34,4.06,2.39,0,4.34-1.82,4.34-4.06Zm23.7,14.68c-2.23,0-4.34,1.97-4.34,4.06v9.14c0,1.13-.76,2.12-1.85,2.41-1.1,.29-2.25-.19-2.81-1.17l-6.53-11.44c-1.18-2.1-2.6-3-4.76-3h-.73c-2.21,0-4,2-4,4.45v31.09c0,2.08,2.11,4.06,4.34,4.06,2.39,0,4.34-1.82,4.34-4.06v-9.49c0-1.13,.76-2.12,1.85-2.41,.22-.06,.43-.08,.65-.08,.89,0,1.72,.48,2.16,1.25l6.83,11.87c1.19,2.08,2.52,2.92,4.58,2.92h.73c2.14,0,3.89-1.95,3.89-4.34v-31.2c0-2.24-1.95-4.06-4.34-4.06Zm-97.39-.17c-10.9,0-19.77,8.99-19.77,20.05s8.87,19.94,19.77,19.94,19.82-8.94,19.82-19.94-8.71-20.05-19.82-20.05Zm0,31.53c-6.22,0-11.09-5.05-11.09-11.49s4.87-11.59,11.09-11.59,11.15,5.09,11.15,11.59-4.9,11.49-11.15,11.49Zm140.23-62.27c-.45-.5-1.14-.74-2.11-.74h-14.37c-1.96,0-3.55,1.62-3.55,3.61s1.63,3.55,3.55,3.55h1.59c1.18,0,2.21,.84,2.45,1.99,.24,1.15-.37,2.33-1.45,2.8-1.3,.56-2.8,.85-4.48,.85-6.35,0-11.32-5.04-11.32-11.48s4.97-11.6,11.32-11.6c2.56,0,4.86,.71,6.66,2.05,1.5,1.07,3.71,.93,5.25-.37,.85-.76,1.39-2.21,1.34-3.59-.04-1.09-.41-1.95-1.03-2.43-3.44-2.73-7.54-4.11-12.21-4.11-11.21,0-19.99,8.81-19.99,20.05s8.97,19.94,19.99,19.94,17.64-6.19,18.92-17.9c.13-1.18-.06-2.06-.55-2.61Zm-95.17,30.73c-10.9,0-19.77,8.99-19.77,20.05s8.87,19.94,19.77,19.94,19.82-8.94,19.82-19.94-8.71-20.05-19.82-20.05Zm0,31.53c-6.22,0-11.09-5.05-11.09-11.49s4.87-11.59,11.09-11.59,11.15,5.09,11.15,11.59-4.9,11.49-11.15,11.49Zm-18.4-58.38c1.08,.18,1.93,1.08,2.06,2.17l1.24,10.52c.24,2.2,2.33,3.88,4.65,3.71,1.17-.09,2.3-.69,3.08-1.65,.68-.82,.99-1.79,.88-2.74l-3.85-31.33c-.26-2.17-1.96-3.87-3.89-3.87h-.84c-1.42,0-2.78,.2-3.92,2.61l-8.13,17.33c-.39,.83-1.26,1.35-2.26,1.35s-1.87-.52-2.26-1.35l-8.11-17.29c-.99-2.22-2.2-2.65-3.94-2.65h-.84c-1.89,0-3.63,1.73-3.89,3.85l-3.85,31.32c-.13,.95,.14,1.88,.81,2.71,.78,.97,1.96,1.61,3.17,1.71h.05s.31,.01,.31,.01c2.16,0,4.05-1.62,4.27-3.68l1.25-10.62c.13-1.09,.97-1.98,2.06-2.17,1.07-.19,2.18,.37,2.66,1.37l3.58,7.35c1.11,2.39,2.7,3.6,4.72,3.6s3.7-1.28,4.74-3.52l3.57-7.37c.47-.98,1.57-1.56,2.67-1.37Z"/></svg>