<svg id="GRAPHICS" xmlns="http://www.w3.org/2000/svg" xmlns:xlink="http://www.w3.org/1999/xlink" viewBox="0 0 70 60"><defs><style>.cls-1,.cls-2,.cls-3,.cls-4,.cls-5{stroke:#000;stroke-linecap:round;stroke-linejoin:round;stroke-width:1.13px;}.cls-1{fill:url(#New_Gradient_Swatch_1);}.cls-2{fill:none;}.cls-3{fill:#7aff33;}.cls-4{fill:#fff2cc;}</style><linearGradient id="New_Gradient_Swatch_1" x1="35" y1="51.78" x2="35" y2="8.83" gradientUnits="userSpaceOnUse"><stop offset="0" stop-color="#00ff1b"/><stop offset="1" stop-color="#0f9"/></linearGradient></defs><path class="cls-1" d="M58.52,31a6.84,6.84,0,0,0-5.6-12.18c0-.17,0-.35,0-.53a6.84,6.84,0,0,0-11.51-5,6.85,6.85,0,0,0-12.86,0,6.84,6.84,0,0,0-11.51,5c0,.18,0,.36,0,.53A6.83,6.83,0,0,0,11.48,31a6.84,6.84,0,0,0,4,12.37,6.93,6.93,0,0,0,2.13-.34v.06a6.84,6.84,0,0,0,11.42,5.09,6.85,6.85,0,0,0,5.81,3.56h.26a6.85,6.85,0,0,0,5.81-3.56,6.84,6.84,0,0,0,11.42-5.09v-.06a6.93,6.93,0,0,0,2.13.34,6.84,6.84,0,0,0,4-12.37Z"/><path class="cls-2" d="M33.67,16.84a2.73,2.73,0,0,1,4.46.93,2.73,2.73,0,0,1,4.37,1,2.73,2.73,0,0,1,4.41,1.12"/><path class="cls-3" d="M45.05,18.17l-.1,0a2.72,2.72,0,0,0-2.45.64,2.73,2.73,0,0,0-4.37-1,2.74,2.74,0,0,0-1.92-1.65h0c1-4.47,5.37-11.34,9-10.5S45.67,12.24,45.05,18.17Z"/><path class="cls-2" d="M54.06,34.6a2.72,2.72,0,0,1-3.4,3A2.75,2.75,0,0,1,49.71,40a2.7,2.7,0,0,1-2.47.55,2.73,2.73,0,0,1-3.53,2.88"/><path class="cls-3" d="M46.21,43l.09-.07a2.73,2.73,0,0,0,.94-2.35A2.7,2.7,0,0,0,49.71,40a2.75,2.75,0,0,0,.95-2.36,2.71,2.71,0,0,0,2.47-.55l0,0c3,3.5,5.91,11.07,3.06,13.5S50.6,47,46.21,43Z"/><path class="cls-2" d="M15.36,34.6a2.72,2.72,0,0,0,3.4,3A2.75,2.75,0,0,0,19.71,40a2.71,2.71,0,0,0,2.47.55,2.74,2.74,0,0,0,3.53,2.88"/><path class="cls-3" d="M23.21,43s-.06,0-.08-.07a2.71,2.71,0,0,1-.95-2.35A2.71,2.71,0,0,1,19.71,40a2.75,2.75,0,0,1-.95-2.36,2.71,2.71,0,0,1-2.47-.55l0,0c-3,3.5-5.91,11.07-3.06,13.5S18.82,47,23.21,43Z"/><circle class="cls-4" cx="41.59" cy="29.74" r="6.59"/><circle class="cls-5" cx="41.59" cy="29.74" r="2.35"/><circle class="cls-4" cx="28.41" cy="29.74" r="6.59"/><circle class="cls-5" cx="28.41" cy="29.74" r="2.35"/></svg>