<svg id="GRAPHICS" xmlns="http://www.w3.org/2000/svg" viewBox="0 0 140 145"><defs><style>.cls-1{fill:#592bff;stroke-width:1.13px;}.cls-1,.cls-2{stroke:#000;stroke-linecap:round;stroke-linejoin:round;}.cls-2{fill:#fff2cc;stroke-width:1.42px;}</style></defs><path class="cls-1" d="M60.47,94.26s.74-2.35-2.36-5.06c-.21-.18-.42-.33-.62-.47L33.68,116.44l-1.6-5.71L15.52,132l14.57-13.78,1.72,6.35,32-33.14A3.79,3.79,0,0,0,60.47,94.26Z"/><polygon class="cls-1" points="84.4 43.05 100.69 21.67 102.97 26.14 117.11 13.37 101.39 34.02 99.71 28 84.4 43.05"/><path class="cls-2" d="M73.71,95.52a6.5,6.5,0,0,0-2.54-7.75,8.19,8.19,0,0,0-7.17-.2s6.13-5.26,4.62-8.73c-2-4.64-6.11-4-9.29-1.92,0,0,2.46-7.73-4.08-9.82-4.49-1.43-7.84,3.57-7,6.34,0,0-6-7.22-12-2.91-6.78,4.85-.73,11.77-.73,11.77s-5-.09-7.07,4.36a7.24,7.24,0,0,0,3.4,9.56c2.43,1.25,6.21,2.16,8.68.46,0,0-5.56,6.88.46,12.14s12.7-3.53,12.7-3.53,2.69,7.89,8.41,5.65c5.92-2.32,5.53-8.62,3.53-10.83C65.62,100.11,71.48,100.77,73.71,95.52Z"/><path class="cls-1" d="M124.48,22.28,93.56,55.1l-2.33-5.66L57.49,88.73c.2.14.41.29.62.47,3.1,2.71,2.36,5.06,2.36,5.06a3.79,3.79,0,0,1,3.31-2.79L89.3,65l2,6.09Z"/><path class="cls-2" d="M60.47,94.26s.74-2.93,3.48-2.81a5.39,5.39,0,0,1,3.21,1.69"/><path class="cls-2" d="M51.94,88.77a4.93,4.93,0,0,1,6.17.43c3.1,2.71,2.36,5.06,2.36,5.06"/></svg>