<svg viewBox="0 0 140 86" xmlns="http://www.w3.org/2000/svg" xmlns:xlink="http://www.w3.org/1999/xlink"><linearGradient id="a" gradientUnits="userSpaceOnUse" x1="70" x2="70" y1="82.56" y2="7.74"><stop offset="0" stop-color="#5f592c"/><stop offset=".06" stop-color="#877f3f"/><stop offset=".13" stop-color="#aba04f"/><stop offset=".19" stop-color="#c4b85a"/><stop offset=".25" stop-color="#d4c662"/><stop offset=".29" stop-color="#d9cb64"/><stop offset=".42" stop-color="#bbaf57"/><stop offset=".53" stop-color="#9c9249"/><stop offset=".54" stop-color="#c0b56b"/><stop offset=".55" stop-color="#dbd185"/><stop offset=".55" stop-color="#efe497"/><stop offset=".56" stop-color="#fbf0a2"/><stop offset=".57" stop-color="#fff4a6"/><stop offset=".59" stop-color="#fff4a6"/><stop offset=".72" stop-color="#fff4a6"/><stop offset=".85" stop-color="#cdc276"/><stop offset="1" stop-color="#9c9147"/></linearGradient><linearGradient id="b" gradientUnits="userSpaceOnUse" x1="81.17" x2="81.17" y1="20.87" y2="3.44"><stop offset="0" stop-color="#fff38f"/><stop offset="1" stop-color="#847d3c"/></linearGradient><linearGradient id="c" x1="102.24" x2="102.24" xlink:href="#b" y1="80.36" y2="61.86"/><linearGradient id="d" x1="38.89" x2="38.89" xlink:href="#b" y1="81.71" y2="63.21"/><path d="m111 46.43a11.91 11.91 0 0 0 -7-21.54 12.09 12.09 0 0 0 -2.75.32c0-.31 0-.62 0-.93a11.92 11.92 0 0 0 -20-8.72 11.93 11.93 0 0 0 -22.4 0 11.92 11.92 0 0 0 -20 8.72v.93a12.09 12.09 0 0 0 -2.85-.32 11.91 11.91 0 0 0 -7 21.54 11.92 11.92 0 0 0 7 21.57 11.64 11.64 0 0 0 3.72-.6v.11a11.91 11.91 0 0 0 19.89 8.86 11.88 11.88 0 0 0 10.12 6.2h.46a11.88 11.88 0 0 0 10.12-6.2 11.91 11.91 0 0 0 19.89-8.86v-.11a11.64 11.64 0 0 0 3.8.6 11.92 11.92 0 0 0 7-21.55z" fill="url(#a)" stroke="#5e582c" stroke-linecap="round" stroke-linejoin="round" stroke-width="1.42"/><path d="m70 50.94a7.94 7.94 0 0 1 -7.93-7.94 3.37 3.37 0 1 1 6.73 0 1.2 1.2 0 1 0 2.4 0 3.37 3.37 0 1 1 6.73 0 7.94 7.94 0 0 1 -7.93 7.94z" fill="#9c9249"/><path d="m74.56 40.35a2.66 2.66 0 0 1 2.66 2.65 7.22 7.22 0 0 1 -14.44 0 2.66 2.66 0 1 1 5.31 0 1.91 1.91 0 0 0 3.82 0 2.66 2.66 0 0 1 2.65-2.66m0-1.41a4.07 4.07 0 0 0 -4.07 4.07.49.49 0 0 1 -1 0 4.08 4.08 0 0 0 -8.15 0 8.64 8.64 0 0 0 17.28 0 4.08 4.08 0 0 0 -4.08-4.07z" fill="#5e582c"/><g stroke="#5e582c" stroke-linecap="round" stroke-linejoin="round" stroke-width="1.42"><path d="m65.44 43a4.56 4.56 0 0 0 9.12 0" fill="none"/><path d="m70.8 18.32a3.58 3.58 0 0 1 5.86 1.22 3.58 3.58 0 0 1 5.75 1.33 3.58 3.58 0 0 1 5.81 1.47" fill="none"/><path d="m85.77 20.06h-.13a3.61 3.61 0 0 0 -3.23.85 3.58 3.58 0 0 0 -5.75-1.33 3.58 3.58 0 0 0 -2.53-2.18c1.33-5.93 7.03-14.97 11.87-13.86s.59 8.72-.23 16.52z" fill="url(#b)"/><path d="m105.23 58.64a3.59 3.59 0 0 1 -4.48 4 3.58 3.58 0 0 1 -4.5 3.83 3.58 3.58 0 0 1 -4.64 3.78" fill="none"/><path d="m94.9 69.62.11-.09a3.56 3.56 0 0 0 1.24-3.09 3.58 3.58 0 0 0 4.5-3.83 3.57 3.57 0 0 0 3.25-.73c3.91 4.6 7.78 14.57 4 17.76s-7.32-4.72-13.1-10.02z" fill="url(#c)"/><path d="m35.91 60a3.58 3.58 0 0 0 4.47 4 3.6 3.6 0 0 0 4.5 3.83 3.56 3.56 0 0 0 1.24 3.09 3.6 3.6 0 0 0 3.4.69" fill="none"/><path d="m46.23 71-.11-.08a3.56 3.56 0 0 1 -1.24-3.09 3.6 3.6 0 0 1 -4.5-3.83 3.59 3.59 0 0 1 -3.25-.73c-3.91 4.6-7.77 14.57-4 17.77s7.32-4.76 13.1-10.04z" fill="url(#d)"/><path d="m71.2 60.35a3.47 3.47 0 0 1 -5.73 0 3.48 3.48 0 0 1 -5.82-.12" fill="none"/><path d="m86.47 65.16a3.48 3.48 0 0 1 -5.81-.16" fill="none"/><path d="m58.57 26.58a3.48 3.48 0 0 1 5.76-.82" fill="none"/><circle cx="47.13" cy="44.29" fill="#fff2cc" r="10.07"/><path d="m47.13 40.22v8.14"/><path d="m51.2 44.29h-8.14"/><circle cx="92.87" cy="44.29" fill="#fff2cc" r="10.07"/><path d="m92.87 40.22v8.14"/><path d="m96.94 44.29h-8.14"/><path d="m130.86 45h6.26" fill="none"/><path d="m127.04 58.51 5.42 3.12" fill="none"/><path d="m127.04 31.5 5.42-3.13" fill="none"/><path d="m9.14 45h-6.26" fill="none"/><path d="m12.96 31.5-5.42-3.13" fill="none"/><path d="m12.96 58.51-5.42 3.12" fill="none"/></g></svg>