<svg id="GRAPHICS" xmlns="http://www.w3.org/2000/svg" viewBox="0 0 140 140"><defs><style>.cls-1{fill:#592bff;stroke-width:1.13px;}.cls-1,.cls-2{stroke:#000;stroke-linecap:round;stroke-linejoin:round;}.cls-2{fill:#fff2cc;stroke-width:1.42px;}</style></defs><path class="cls-1" d="M79.53,91.76s-.74-2.35,2.36-5.06c.21-.18.42-.33.62-.47l23.81,27.71,1.6-5.71,16.56,21.31-14.57-13.78-1.72,6.35L76.22,89A3.79,3.79,0,0,1,79.53,91.76Z"/><polygon class="cls-1" points="55.6 40.55 39.31 19.17 37.03 23.64 22.89 10.87 38.6 31.52 40.29 25.5 55.6 40.55"/><path class="cls-2" d="M66.29,93a6.5,6.5,0,0,1,2.54-7.75,8.19,8.19,0,0,1,7.17-.2s-6.13-5.26-4.62-8.73c2-4.64,6.11-4,9.29-1.92,0,0-2.46-7.73,4.08-9.82,4.49-1.43,7.84,3.57,7,6.34,0,0,6-7.22,12-2.91,6.78,4.85.73,11.77.73,11.77s5-.09,7.07,4.36a7.24,7.24,0,0,1-3.4,9.56c-2.43,1.25-6.21,2.16-8.68.46,0,0,5.56,6.88-.46,12.14s-12.7-3.53-12.7-3.53-2.69,7.89-8.41,5.65c-5.92-2.32-5.53-8.62-3.53-10.83C74.38,97.61,68.52,98.27,66.29,93Z"/><path class="cls-1" d="M15.52,19.78,46.44,52.6l2.33-5.66L82.51,86.23c-.2.14-.41.29-.62.47-3.1,2.71-2.36,5.06-2.36,5.06A3.79,3.79,0,0,0,76.22,89L50.7,62.51l-2,6.09Z"/><path class="cls-2" d="M79.53,91.76s-.74-2.93-3.48-2.81a5.39,5.39,0,0,0-3.21,1.69"/><path class="cls-2" d="M88.06,86.27a4.93,4.93,0,0,0-6.17.43c-3.1,2.71-2.36,5.06-2.36,5.06"/></svg>