<svg id="GRAPHICS" xmlns="http://www.w3.org/2000/svg" xmlns:xlink="http://www.w3.org/1999/xlink" viewBox="0 0 20 30"><defs><style>.cls-1{fill:url(#New_Gradient_Swatch_3);}</style><linearGradient id="New_Gradient_Swatch_3" x1="10" y1="28.2" x2="10" y2="1.8" gradientUnits="userSpaceOnUse"><stop offset="0" stop-color="#5f592c"/><stop offset="0.06" stop-color="#877f3f"/><stop offset="0.13" stop-color="#aba04f"/><stop offset="0.19" stop-color="#c4b85a"/><stop offset="0.25" stop-color="#d4c662"/><stop offset="0.29" stop-color="#d9cb64"/><stop offset="0.42" stop-color="#bbaf57"/><stop offset="0.53" stop-color="#9c9249"/><stop offset="0.54" stop-color="#c0b56b"/><stop offset="0.55" stop-color="#dbd185"/><stop offset="0.55" stop-color="#efe497"/><stop offset="0.56" stop-color="#fbf0a2"/><stop offset="0.57" stop-color="#fff4a6"/><stop offset="0.59" stop-color="#fff4a6"/><stop offset="0.72" stop-color="#fff4a6"/><stop offset="0.8" stop-color="#cdc276"/><stop offset="0.89" stop-color="#9c9147"/><stop offset="0.91" stop-color="#a3984c"/><stop offset="0.93" stop-color="#b6aa59"/><stop offset="0.97" stop-color="#d4c86e"/><stop offset="1" stop-color="#fff18c"/></linearGradient></defs><path class="cls-1" d="M10.7,27.91l7.68-7.67A1,1,0,0,0,17,18.83l-5.49,5.49a.3.3,0,0,1-.31.06.29.29,0,0,1-.18-.26V2.79a1,1,0,0,0-2,0V24.12a.29.29,0,0,1-.18.26.3.3,0,0,1-.31-.06L3,18.83a1,1,0,0,0-1.41,0,1,1,0,0,0,0,1.41l7.68,7.67A1,1,0,0,0,10.7,27.91Z"/></svg>