<svg id="GRAPHICS" xmlns="http://www.w3.org/2000/svg" viewBox="0 0 200 200"><defs><style>.cls-1,.cls-5{fill:none;}.cls-1{stroke:#592bff;}.cls-1,.cls-10,.cls-11,.cls-2,.cls-3,.cls-4,.cls-5,.cls-6,.cls-7,.cls-8,.cls-9{stroke-linecap:round;stroke-linejoin:round;stroke-width:1.42px;}.cls-2{fill:#592bff;}.cls-10,.cls-11,.cls-2,.cls-3,.cls-4,.cls-5,.cls-6,.cls-7,.cls-8,.cls-9{stroke:#000;}.cls-3{opacity:0.5;}.cls-4{fill:aqua;}.cls-6{fill:#ff2547;}.cls-7{fill:#00ff1b;}.cls-8{opacity:0.3;}.cls-9{fill:#fff2cc;}.cls-11{fill:#ff0080;}</style></defs><line class="cls-1" x1="130.85" y1="43.55" x2="136.98" y2="43.55"/><line class="cls-1" x1="128.95" y1="37" x2="134.5" y2="34.75"/><line class="cls-1" x1="134.5" y1="52.35" x2="129.19" y2="50.2"/><line class="cls-1" x1="77.52" y1="43.55" x2="71.39" y2="43.55"/><line class="cls-1" x1="79.42" y1="50.1" x2="73.87" y2="52.35"/><line class="cls-1" x1="73.87" y1="34.75" x2="79.18" y2="36.9"/><path class="cls-2" d="M111.83,9.66H96.54a2.86,2.86,0,1,0,0,5.71h15.29a2.86,2.86,0,1,0,0-5.71Z"/><rect class="cls-2" x="102.11" y="15.37" width="4.15" height="10.79"/><rect class="cls-3" x="102.11" y="15.37" width="4.15" height="2.6"/><circle class="cls-2" cx="104.18" cy="42.96" r="20.44"/><circle class="cls-4" cx="104.18" cy="42.96" r="15.37"/><polyline class="cls-5" points="104.19 35.93 104.19 42.96 109.66 42.96"/><line class="cls-5" x1="116.15" y1="42.96" x2="114.63" y2="42.96"/><line class="cls-5" x1="93.74" y1="42.96" x2="92.22" y2="42.96"/><line class="cls-5" x1="104.18" y1="54.92" x2="104.18" y2="53.4"/><line class="cls-5" x1="104.18" y1="32.52" x2="104.18" y2="31"/><line class="cls-5" x1="112.64" y1="51.42" x2="111.57" y2="50.34"/><line class="cls-5" x1="96.8" y1="35.58" x2="95.73" y2="34.5"/><line class="cls-5" x1="95.73" y1="51.42" x2="96.8" y2="50.34"/><line class="cls-5" x1="111.57" y1="35.58" x2="112.64" y2="34.5"/><polygon class="cls-6" points="139.36 132.35 144.56 128.2 145.87 134.72 152.52 134.88 149.34 140.72 154.32 145.12 148.13 147.55 149.13 154.12 142.82 152 139.36 157.68 135.89 152 129.59 154.12 130.58 147.55 124.39 145.12 129.38 140.72 126.19 134.88 132.84 134.72 134.16 128.2 139.36 132.35"/><path class="cls-7" d="M130.5,165.17H78.66a4.56,4.56,0,1,0,0,9.11H130.5a4.56,4.56,0,1,0,0-9.11Z"/><path class="cls-7" d="M120.53,157.45H88.63a3.86,3.86,0,0,0,0,7.72h31.9a3.86,3.86,0,0,0,0-7.72Z"/><path class="cls-2" d="M80.3,112.11l-32.41,32.4,10.72,10.72L91,122.83A7.58,7.58,0,0,0,80.3,112.11Z"/><circle class="cls-2" cx="53.25" cy="149.87" r="7.58"/><path class="cls-8" d="M91,112.11a7.57,7.57,0,0,0-10.71,0l-4.07,4.07s7.18,7.13,7.17,14.25l7.61-7.6A7.58,7.58,0,0,0,91,112.11Z"/><polygon class="cls-2" points="127.54 109.61 93.52 75.58 68.64 100.46 68.64 100.46 102.67 134.48 127.54 109.61 127.54 109.61"/><path class="cls-4" d="M93.52,75.58,92.3,74.36a7.56,7.56,0,0,0-10.67,0L67.42,88.57a7.56,7.56,0,0,0,0,10.67l1.22,1.22h0Z"/><path class="cls-4" d="M114.55,135.7l14.21-14.21a7.56,7.56,0,0,0,0-10.67l-1.22-1.21h0l-24.87,24.87,1.21,1.22A7.56,7.56,0,0,0,114.55,135.7Z"/><circle class="cls-9" cx="104.18" cy="86.25" r="8.97"/><circle class="cls-10" cx="104.18" cy="86.25" r="3.2"/><circle class="cls-9" cx="116.87" cy="98.94" r="8.97"/><circle class="cls-10" cx="116.87" cy="98.94" r="3.2"/><path class="cls-5" d="M106.31,117.43a3.85,3.85,0,0,1,5.45-5.45"/><line class="cls-5" x1="89.92" y1="95.59" x2="106.31" y2="111.98"/><path class="cls-11" d="M95.58,101.25,91,105.82a4.45,4.45,0,1,0,6.29,6.29l4.57-4.57Z"/><line class="cls-5" x1="94.16" y1="108.97" x2="98.72" y2="104.4"/></svg>