<?xml version="1.0" encoding="UTF-8"?><svg id="GRAPHICS" xmlns="http://www.w3.org/2000/svg" xmlns:xlink="http://www.w3.org/1999/xlink" viewBox="0 0 110 124"><defs><style>.cls-1{fill:#fff2cc;}.cls-1,.cls-2,.cls-3,.cls-4,.cls-5,.cls-6{stroke:#000;stroke-linecap:round;stroke-linejoin:round;stroke-width:1.28px;}.cls-3{fill:none;}.cls-4{fill:url(#New_Gradient_Swatch_1);}.cls-5{fill:#592bff;}.cls-6{fill:#7aff33;}</style><linearGradient id="New_Gradient_Swatch_1" x1="55" y1="120.47" x2="55" y2="68.57" gradientUnits="userSpaceOnUse"><stop offset="0" stop-color="#00ff1b"/><stop offset="1" stop-color="#0f9"/></linearGradient></defs><g><path class="cls-4" d="M83.43,95.41c2.1-1.53,3.4-4,3.4-6.68,0-4.56-3.71-8.27-8.27-8.27-.64,0-1.28,.08-1.91,.23,.02-.22,.03-.43,.03-.65,0-4.56-3.71-8.27-8.27-8.27-2.14,0-4.14,.81-5.64,2.22-1.16-3.16-4.2-5.43-7.77-5.43s-6.6,2.26-7.77,5.43c-1.5-1.41-3.5-2.22-5.64-2.22-4.56,0-8.27,3.71-8.27,8.27,0,.22,0,.43,.03,.65-.62-.15-1.26-.23-1.91-.23-4.56,0-8.27,3.71-8.27,8.27,0,2.68,1.3,5.14,3.4,6.68-2.1,1.53-3.4,4-3.4,6.67,0,4.56,3.71,8.27,8.27,8.27,.89,0,1.75-.14,2.58-.41,0,.03,0,.05,0,.08,0,4.56,3.71,8.27,8.27,8.27,2.07,0,4.03-.77,5.53-2.12,1.38,2.54,4.03,4.22,7.02,4.3,.03,0,.06,0,.09,0h.14s.06,0,.09,0c2.99-.08,5.63-1.76,7.02-4.3,1.5,1.35,3.46,2.12,5.53,2.12,4.56,0,8.27-3.71,8.27-8.27,0-.03,0-.05,0-.08,.83,.27,1.69,.41,2.58,.41,4.56,0,8.27-3.71,8.27-8.27,0-2.68-1.3-5.14-3.4-6.67Z"/><g><path class="cls-3" d="M53.4,78.25c.78-.77,1.92-1.14,3.06-.87,1.1,.25,1.94,1.03,2.32,2,.77-.7,1.87-1.03,2.96-.78,1.1,.25,1.94,1.03,2.32,2,.77-.7,1.87-1.03,2.96-.78,1.14,.26,2.01,1.1,2.37,2.13"/><path class="cls-6" d="M67.15,79.86s-.08-.03-.12-.04c-1.1-.25-2.19,.07-2.96,.78-.39-.97-1.23-1.75-2.32-2-1.1-.25-2.19,.07-2.96,.78-.39-.97-1.23-1.75-2.32-2-.01,0-.02,0-.03,0,1.25-5.4,6.49-13.71,10.89-12.69,4.41,1.02,.57,8.01-.17,15.18Z"/></g><g><path class="cls-3" d="M78.03,99.72c.15,1.08-.23,2.22-1.12,2.98-.86,.73-1.98,.94-2.99,.67,.1,1.04-.29,2.11-1.14,2.84-.86,.73-1.98,.94-2.99,.67,.1,1.04-.29,2.11-1.14,2.84-.89,.76-2.08,.96-3.12,.63"/><path class="cls-6" d="M68.55,109.8s.07-.05,.1-.08c.86-.73,1.25-1.8,1.14-2.84,1.01,.27,2.13,.06,2.99-.67,.86-.73,1.25-1.8,1.14-2.84,1.01,.27,2.13,.06,2.99-.67,0,0,.01-.02,.02-.02,3.59,4.22,7.14,13.38,3.7,16.31-3.44,2.93-6.77-4.31-12.08-9.19Z"/></g><g><path class="cls-3" d="M31.27,99.72c-.15,1.08,.23,2.22,1.12,2.98,.86,.73,1.98,.94,2.99,.67-.1,1.04,.29,2.11,1.14,2.84,.86,.73,1.98,.94,2.99,.67-.1,1.04,.29,2.11,1.14,2.84,.89,.76,2.08,.96,3.12,.63"/><path class="cls-6" d="M40.75,109.8s-.07-.05-.1-.08c-.86-.73-1.25-1.8-1.14-2.84-1.01,.27-2.13,.06-2.99-.67-.86-.73-1.25-1.8-1.14-2.84-1.01,.27-2.13,.06-2.99-.67,0,0-.01-.02-.02-.02-3.59,4.22-7.14,13.38-3.7,16.31,3.44,2.93,6.77-4.31,12.08-9.19Z"/></g><g><circle class="cls-1" cx="62.96" cy="93.84" r="7.96"/><circle class="cls-2" cx="62.96" cy="91.97" r="2.84"/></g><g><circle class="cls-1" cx="47.04" cy="93.84" r="7.96"/><circle class="cls-2" cx="47.04" cy="91.97" r="2.84"/></g></g><path class="cls-5" d="M55,3.53c-15.09,0-27.37,11.66-27.37,26,0,12.23,9.14,22.93,21.72,25.44,.49,.1,.91,.4,1.13,.83l3.03,5.75c.28,.53,.85,.86,1.47,.86s1.19-.33,1.47-.86l3.03-5.75c.22-.43,.64-.73,1.13-.83,12.59-2.52,21.72-13.22,21.72-25.44,0-14.34-12.28-26-27.37-26Z"/><g><path d="M54.98,16.56c-3.74,0-7.05,2.52-7.86,5.98-.31,1.32,.57,2.63,1.96,2.92,1.39,.29,2.77-.54,3.08-1.86,.29-1.24,1.48-2.14,2.82-2.14,1.59,0,2.89,1.23,2.89,2.74,0,1.91-.86,2.74-2.17,3.98-1.39,1.33-3.3,3.15-3.3,6.39,0,1.35,1.16,2.45,2.58,2.45s2.58-1.1,2.58-2.45c0-1.17,.55-1.74,1.79-2.93,1.55-1.48,3.67-3.5,3.67-7.44,0-4.22-3.61-7.65-8.05-7.65Z"/><path d="M54.98,39.01c-1.42,0-2.74,1.25-2.74,2.6s1.31,2.6,2.74,2.6,2.74-1.25,2.74-2.6-1.32-2.6-2.74-2.6Z"/></g></svg>