<svg id="GRAPHICS" xmlns="http://www.w3.org/2000/svg" xmlns:xlink="http://www.w3.org/1999/xlink" viewBox="0 0 120 100"><defs><style>.cls-1{fill:url(#New_Gradient_Swatch_1);}.cls-2{fill:#00b841;}.cls-3{fill:#7aff33;}.cls-4{fill:#fff2cc;}</style><linearGradient id="New_Gradient_Swatch_1" x1="60" y1="93.09" x2="60" y2="12.16" gradientUnits="userSpaceOnUse"><stop offset="0" stop-color="#00ff1b"/><stop offset="1" stop-color="#0f9"/></linearGradient></defs><path class="cls-1" d="M104.33,54A12.89,12.89,0,0,0,93.76,31.06c0-.34,0-.67,0-1a12.89,12.89,0,0,0-21.69-9.43,12.9,12.9,0,0,0-24.22,0A12.89,12.89,0,0,0,26.2,30.05c0,.34,0,.67,0,1A12.88,12.88,0,0,0,15.67,54a12.89,12.89,0,0,0,7.6,23.31,12.57,12.57,0,0,0,4-.65v.12a12.9,12.9,0,0,0,21.53,9.59,12.86,12.86,0,0,0,10.94,6.7h.5a12.87,12.87,0,0,0,11-6.7,12.89,12.89,0,0,0,21.52-9.59v-.12a12.63,12.63,0,0,0,4,.65A12.89,12.89,0,0,0,104.33,54Z"/><path d="M60.11,94h-.43a13.78,13.78,0,0,1-11.11-6.23,13.81,13.81,0,0,1-22.16-9.89A13.81,13.81,0,0,1,14.2,54a13.8,13.8,0,0,1,9.07-24.22,13.6,13.6,0,0,1,2,.15A13.81,13.81,0,0,1,47.53,19.11a13.81,13.81,0,0,1,24.94,0A13.81,13.81,0,0,1,94.72,29.94a13.63,13.63,0,0,1,2-.15A13.8,13.8,0,0,1,105.8,54,13.82,13.82,0,0,1,93.59,77.88a13.81,13.81,0,0,1-22.16,9.89A13.8,13.8,0,0,1,60.28,94Zm-11.3-8.55H49a.9.9,0,0,1,.65.47,12,12,0,0,0,10.17,6.22l.11.93v-.92h.33a12,12,0,0,0,10.17-6.22.9.9,0,0,1,.65-.47.92.92,0,0,1,.77.23,12,12,0,0,0,20-8.91,1,1,0,0,1,.37-.81A.93.93,0,0,1,93,75.8a11.81,11.81,0,0,0,3.74.6,12,12,0,0,0,7.05-21.64.93.93,0,0,1-.38-.75.91.91,0,0,1,.38-.74,12,12,0,0,0-7.05-21.64A11.79,11.79,0,0,0,94,32a1,1,0,0,1-.81-.2.94.94,0,0,1-.32-.77c0-.31,0-.63,0-.94a12,12,0,0,0-20.14-8.76.91.91,0,0,1-1.49-.35,12,12,0,0,0-22.5,0,.92.92,0,0,1-1.49.35,12,12,0,0,0-20.14,8.76c0,.31,0,.63,0,.94a.94.94,0,0,1-.32.77A1,1,0,0,1,26,32a11.77,11.77,0,0,0-2.76-.33,12,12,0,0,0-7.06,21.64.91.91,0,0,1,.38.74.93.93,0,0,1-.38.75A12,12,0,0,0,23.27,76.4,11.79,11.79,0,0,0,27,75.8a.92.92,0,0,1,1.2.9,12,12,0,0,0,20,9A.89.89,0,0,1,48.81,85.46Z"/><path class="cls-2" d="M64.94,45.9a4.42,4.42,0,0,0-4.41,4.41.53.53,0,0,1-1.06,0,4.41,4.41,0,1,0-8.81,0,9.34,9.34,0,0,0,18.68,0A4.42,4.42,0,0,0,64.94,45.9Z"/><path d="M60,60.57A10.27,10.27,0,0,1,49.74,50.31a5.32,5.32,0,0,1,10.26-2,5.32,5.32,0,0,1,10.26,2A10.27,10.27,0,0,1,60,60.57ZM55.06,46.82a3.49,3.49,0,0,0-3.48,3.49,8.42,8.42,0,0,0,16.84,0,3.49,3.49,0,1,0-7,0,1.45,1.45,0,1,1-2.9,0A3.49,3.49,0,0,0,55.06,46.82Z"/><path d="M60,56.16a5.86,5.86,0,0,1-5.86-5.85.92.92,0,0,1,1.84,0,4,4,0,0,0,8,0,.92.92,0,0,1,1.84,0A5.86,5.86,0,0,1,60,56.16Z"/><path d="M79.71,28.87a.92.92,0,0,1-.87-.62A3,3,0,0,0,74.05,27a.93.93,0,0,1-.83.22,1,1,0,0,1-.65-.56,2.95,2.95,0,0,0-4.74-1.1.91.91,0,0,1-.83.22.92.92,0,0,1-.65-.56,2.95,2.95,0,0,0-4.83-1,.92.92,0,1,1-1.3-1.31,4.8,4.8,0,0,1,7.3.64A4.79,4.79,0,0,1,73.74,25a4.8,4.8,0,0,1,3.39-.47,4.75,4.75,0,0,1,3.44,3.1A.91.91,0,0,1,80,28.82,1,1,0,0,1,79.71,28.87Z"/><path class="cls-3" d="M77.06,25.49l-.14,0a3.9,3.9,0,0,0-3.49.92,3.88,3.88,0,0,0-6.22-1.44,3.91,3.91,0,0,0-2.74-2.35h0C65.91,16.2,72.07,6.41,77.27,7.61S77.94,17.05,77.06,25.49Z"/><path d="M73.43,27.28l-.21,0a1,1,0,0,1-.65-.56,2.95,2.95,0,0,0-4.74-1.1.91.91,0,0,1-.83.22.94.94,0,0,1-.65-.56,3,3,0,0,0-2.08-1.8.86.86,0,0,1-.6-.39.9.9,0,0,1-.13-.71,30.34,30.34,0,0,1,5.19-10.67c2.94-3.83,6-5.6,8.74-5A3.82,3.82,0,0,1,80,8.4c1.3,2.1.5,5.4-.52,9.59A59.66,59.66,0,0,0,78,25.58a.91.91,0,0,1-.39.66.9.9,0,0,1-.76.14l-.12,0a3,3,0,0,0-2.66.7A.89.89,0,0,1,73.43,27.28ZM69.82,23a4.9,4.9,0,0,1,1.08.12A4.77,4.77,0,0,1,73.74,25a4.83,4.83,0,0,1,2.52-.59,67.13,67.13,0,0,1,1.4-6.87c.84-3.47,1.64-6.75.75-8.19a2,2,0,0,0-1.35-.86c-1.93-.45-4.43,1.12-6.88,4.3A29,29,0,0,0,65.54,22a4.88,4.88,0,0,1,2,1.61A4.74,4.74,0,0,1,69.82,23Z"/><path d="M84.55,80.84a4.75,4.75,0,0,1-1.44-.22.92.92,0,1,1,.55-1.75,3,3,0,0,0,3.82-3.13A.92.92,0,0,1,87.8,75a1,1,0,0,1,.84-.19,3,3,0,0,0,3.71-3.15.91.91,0,0,1,1.15-1A3,3,0,0,0,96.19,70a2.94,2.94,0,0,0,1-2.67A.92.92,0,0,1,99,67.08a4.79,4.79,0,0,1-1.64,4.34,4.72,4.72,0,0,1-3.22,1.14,4.79,4.79,0,0,1-4.87,4.14,4.78,4.78,0,0,1-4.74,4.14Z"/><path class="cls-3" d="M86.93,79.09l.13-.09a3.91,3.91,0,0,0,1.34-3.35,3.87,3.87,0,0,0,4.86-4.14,3.87,3.87,0,0,0,3.52-.79l0,0c4.23,5,8.41,15.76,4.36,19.21S93.19,84.83,86.93,79.09Z"/><path d="M99.22,91.63l-.3,0c-2.46-.21-4.63-2.82-7.39-6.13a58.41,58.41,0,0,0-5.22-5.71.87.87,0,0,1-.29-.71.89.89,0,0,1,.34-.69l.1-.07a3,3,0,0,0,1-2.56A.92.92,0,0,1,87.8,75a1,1,0,0,1,.84-.19,3,3,0,0,0,3.71-3.15.91.91,0,0,1,1.15-1A3,3,0,0,0,96.19,70a.94.94,0,0,1,1.32.08c4.2,4.93,9,16.47,4.25,20.51A3.86,3.86,0,0,1,99.22,91.63Zm-11-12.55a68.32,68.32,0,0,1,4.68,5.22c2.29,2.74,4.45,5.34,6.13,5.48a2,2,0,0,0,1.5-.57c3.25-2.77,0-12.21-3.94-17.27a4.83,4.83,0,0,1-2.47.62,4.82,4.82,0,0,1-1.64,3,4.74,4.74,0,0,1-3.23,1.14A4.77,4.77,0,0,1,88.26,79.08Z"/><path d="M36.67,82.31a4.78,4.78,0,0,1-4.74-4.14A4.67,4.67,0,0,1,28.71,77a4.77,4.77,0,0,1-1.64-3,4.68,4.68,0,0,1-3.22-1.14,4.76,4.76,0,0,1-1.64-4.34.91.91,0,0,1,1-.78.92.92,0,0,1,.78,1,3,3,0,0,0,3.69,3.28.92.92,0,0,1,1.16,1,2.95,2.95,0,0,0,3.71,3.16.9.9,0,0,1,.83.19.92.92,0,0,1,.32.79,3,3,0,0,0,1,2.56,2.92,2.92,0,0,0,2.8.56.92.92,0,0,1,1.15.61.91.91,0,0,1-.6,1.15A4.86,4.86,0,0,1,36.67,82.31Z"/><path class="cls-3" d="M34.29,80.56l-.12-.09a3.85,3.85,0,0,1-1.34-3.35A3.88,3.88,0,0,1,28,73a3.87,3.87,0,0,1-3.52-.79l0,0c-4.24,5-8.42,15.77-4.36,19.22S28,86.3,34.29,80.56Z"/><path d="M22,93.1a3.93,3.93,0,0,1-2.54-1c-2.11-1.8-2.54-5.34-1.22-10a30.37,30.37,0,0,1,5.48-10.52A.92.92,0,0,1,25,71.48a3,3,0,0,0,2.7.61,1,1,0,0,1,.83.19.94.94,0,0,1,.32.8,2.95,2.95,0,0,0,3.71,3.15.9.9,0,0,1,.83.19.92.92,0,0,1,.32.79,3,3,0,0,0,1,2.56l.1.07a.93.93,0,0,1,0,1.4A58.39,58.39,0,0,0,29.7,87c-2.76,3.31-4.94,5.92-7.39,6.13Zm2.59-19.69A29.17,29.17,0,0,0,20,82.59c-1.09,3.86-.86,6.81.65,8.09a2,2,0,0,0,1.49.57c1.69-.15,3.85-2.74,6.14-5.48A64.53,64.53,0,0,1,33,80.55a4.82,4.82,0,0,1-1-2.38A4.67,4.67,0,0,1,28.71,77a4.77,4.77,0,0,1-1.64-3A4.67,4.67,0,0,1,24.59,73.41Z"/><path d="M58.2,71.62a4.67,4.67,0,0,1-3.1-1.18,4.68,4.68,0,0,1-7.07-1,.92.92,0,0,1,1.56-1,2.83,2.83,0,0,0,4.75.1,1,1,0,0,1,1.51,0,2.84,2.84,0,0,0,4.69,0,.92.92,0,0,1,1.52,1A4.7,4.7,0,0,1,58.2,71.62Z"/><path d="M74.72,76.82a4.67,4.67,0,0,1-4-2.2.92.92,0,0,1,1.56-1,2.83,2.83,0,0,0,4.75.1.92.92,0,0,1,1.51,1.05A4.68,4.68,0,0,1,74.72,76.82Z"/><path d="M47.63,33.45a.92.92,0,0,1-.83-1.31A4.69,4.69,0,0,1,54.55,31a.92.92,0,1,1-1.38,1.22,2.83,2.83,0,0,0-4.7.67A.93.93,0,0,1,47.63,33.45Z"/><circle class="cls-4" cx="35.26" cy="51.69" r="10.89"/><path d="M35.26,63.51A11.82,11.82,0,1,1,47.07,51.69,11.83,11.83,0,0,1,35.26,63.51Zm0-21.79a10,10,0,1,0,10,10A10,10,0,0,0,35.26,41.72Z"/><path d="M35.26,57a.92.92,0,0,1-.92-.92V47.29a.92.92,0,0,1,1.84,0V56.1A.92.92,0,0,1,35.26,57Z"/><path d="M39.66,52.61H30.85a.92.92,0,0,1,0-1.84h8.81a.92.92,0,0,1,0,1.84Z"/><circle class="cls-4" cx="84.74" cy="51.69" r="10.89"/><path d="M84.74,63.51A11.82,11.82,0,1,1,96.55,51.69,11.83,11.83,0,0,1,84.74,63.51Zm0-21.79a10,10,0,1,0,10,10A10,10,0,0,0,84.74,41.72Z"/><path d="M84.74,57a.92.92,0,0,1-.92-.92V47.29a.92.92,0,1,1,1.84,0V56.1A.92.92,0,0,1,84.74,57Z"/><path d="M89.15,52.61H80.34a.92.92,0,0,1,0-1.84h8.81a.92.92,0,0,1,0,1.84Z"/></svg>