<svg id="GRAPHICS" xmlns="http://www.w3.org/2000/svg" xmlns:xlink="http://www.w3.org/1999/xlink" viewBox="0 0 150 150"><defs><style>.cls-1{fill:#07f;}.cls-2{fill:#00ff1b;}.cls-3{fill:url(#linear-gradient);}</style><linearGradient id="linear-gradient" x1="75" y1="127.45" x2="75" y2="33.63" gradientUnits="userSpaceOnUse"><stop offset="0" stop-color="#07f"/><stop offset="0.5" stop-color="aqua"/><stop offset="1" stop-color="#00ff1b"/></linearGradient></defs><path class="cls-1" d="M49.12,146.17h-7a1,1,0,1,1,0-2h7a1,1,0,1,1,0,2Z"/><path class="cls-1" d="M63.81,146.17h-7a1,1,0,1,1,0-2h7a1,1,0,0,1,0,2Z"/><path class="cls-1" d="M78.5,146.17h-7a1,1,0,0,1,0-2h7a1,1,0,0,1,0,2Z"/><path class="cls-1" d="M93.2,146.17h-7a1,1,0,0,1,0-2h7a1,1,0,1,1,0,2Z"/><path class="cls-1" d="M107.89,146.17h-7a1,1,0,0,1,0-2h7a1,1,0,1,1,0,2Z"/><path class="cls-2" d="M95.06,3.83H54.94a.6.6,0,0,0-.6.6V17.82a.6.6,0,0,0,.6.6H95.06a.6.6,0,0,0,.6-.6V4.43A.6.6,0,0,0,95.06,3.83Zm-.6,12.85a.53.53,0,0,1-.54.53H56.08a.53.53,0,0,1-.54-.53V5.57A.54.54,0,0,1,56.08,5H93.92a.54.54,0,0,1,.54.54Z"/><path class="cls-2" d="M90.15,10.61H88.58a.54.54,0,0,1-.53-.54V8.14a.6.6,0,1,0-1.2,0v1.93a.54.54,0,0,1-.54.54H77.85a.54.54,0,0,1-.53-.54V8.14a.61.61,0,1,0-1.21,0v3.07a.6.6,0,0,0,.61.6h9.59a.54.54,0,0,1,.54.53v.8a.54.54,0,0,1-.54.54h-9.7a.6.6,0,0,0,0,1.2H87.45a.6.6,0,0,0,.6-.6V12.34a.53.53,0,0,1,.53-.53h1.57a.6.6,0,1,0,0-1.2Z"/><path class="cls-2" d="M73.58,7.53H59.85a.61.61,0,0,0,0,1.21h1.57a.53.53,0,0,1,.53.53v3.87a.54.54,0,0,1-.53.54H59.85a.6.6,0,0,0,0,1.2H73.58a.6.6,0,0,0,.6-.6V8.14A.6.6,0,0,0,73.58,7.53ZM73,13.14a.54.54,0,0,1-.54.54H63.69a.54.54,0,0,1-.54-.54v-.8a.54.54,0,0,1,.54-.53h8.75a.54.54,0,0,1,.54.53Zm0-3.07a.54.54,0,0,1-.54.54H63.69a.54.54,0,0,1-.54-.54v-.8a.54.54,0,0,1,.54-.53h8.75a.54.54,0,0,1,.54.53Z"/><path class="cls-3" d="M75.49,76.28c2.13,0,4.43-3.4,5.06-6.45.43-2,.09-5.24-1.11-6.7a1.92,1.92,0,0,0-1.52-.8,1.84,1.84,0,0,0-1.36.5c-.84.85-.82,2.65-.81,4.23a15,15,0,0,1,0,1.82,22.27,22.27,0,0,1-.77,3.37c-.44,1.57-.86,3.06-.39,3.68A1.07,1.07,0,0,0,75.49,76.28Zm38.59,4.08h0c1-.22,1.62.68,1.91,1.6l0,.1a9,9,0,0,0,1,2.49,2.19,2.19,0,0,0,2.42,1,2,2,0,0,0,1.13-1.11,2.66,2.66,0,0,0,0-2.21A12.23,12.23,0,0,0,117.75,79l-.2-.18c-.77-.69-1.14-1.25-1.14-1.72a2.53,2.53,0,0,1,.79-1.61l.23-.24c.51-.54,1.46-1.55,1.7-1.84a1.47,1.47,0,0,0,.37-1,1,1,0,0,0-.43-.67c-1-.77-2,.09-2.75.94-.23.27-.46.57-.68.85-.83,1.07-1.54,2-2.25,2a.7.7,0,0,1-.52-.21,3,3,0,0,1-.36-1.91v-.27c0-.65.13-2,.38-4.15l0-.13a2,2,0,0,0-.18-1.44,1,1,0,0,0-.73-.28h-.07c-.91,0-2.14.51-2.66,4.48a138.48,138.48,0,0,0-.46,14.14c.07,1,.46,2.19,1.94,2.19a2.62,2.62,0,0,0,1.87-.73,3.25,3.25,0,0,0,.76-2.44c0-.42,0-.81,0-1.17C113.26,81.71,113.21,80.56,114.08,80.36ZM109.36,63c5.91,0,8.6-4.87,8.6-9.4a10.12,10.12,0,0,0-1.67-6.18c-.38-.59-.65-1-.43-1.5s1.52-.71,3.27-.87c.79-.08,1.68-.16,2.53-.3a4.6,4.6,0,0,0,3.08-1.63,1.25,1.25,0,0,0,.09-1.13c-.25-.66-.86-.9-1.7-.9a19.46,19.46,0,0,0-4.95,1.16l-1.42.44a43.69,43.69,0,0,1-5.59,1.21,18.12,18.12,0,0,0-3.33.74c-2.75,1.16-4.19,3.2-4.68,6.6l0,.12c-.24,1.7-1,6.9,1.49,9.75A6,6,0,0,0,109.36,63Zm.85-15.23a2.22,2.22,0,0,1,1.8.58,4.21,4.21,0,0,1,1.11,3c0,1.8-1,3.73-3.14,3.73-1.49,0-2.29-1.74-2.29-3.37C107.69,50.27,108,47.9,110.21,47.72Zm-7.08,39.62c0,1-.08,2.59.56,3.14a1.06,1.06,0,0,0,.91.2c1.82-.32,2.17-1.92,2.17-4.78,0-3.5-.63-5.82-1.81-6.71a2.39,2.39,0,0,0-2.21-.3,4.15,4.15,0,0,0-2.62,2.44c-.14.32-.34.5-.57.51a.55.55,0,0,1-.5-.38c-.23-.44-.52-.88-1-.88a1.34,1.34,0,0,0-.41.08c-1.12.43-1.3,3.12-1.33,5.71v.17c0,2.2-.05,5.21,1.07,6.06a1.32,1.32,0,0,0,1.26.14c1-.3,1.67-1,1.69-3.56v-.67c0-1.66,0-3.55,1.24-4a1.11,1.11,0,0,1,1,0c.47.34.56,1.16.54,2.29C103.14,87,103.14,87.17,103.13,87.34ZM68.2,69.85h0c-1,.4-1.29-.2-1.55-.72s-.43-.87-1.06-.87l-.31,0c-1.55.27-1.56,3.09-1.57,4.95v.36c0,.49,0,4.82,1.59,6.12a1.44,1.44,0,0,0,1.25.32,1.93,1.93,0,0,0,1.35-.87A4.42,4.42,0,0,0,68,75.75c-.49-1.9-.11-3.18,1.11-3.83,2.58-1.36,4.15-2.39,4.17-5.31,0-1.3-.54-2-1.06-2.14a1.22,1.22,0,0,0-1.37.51,6.13,6.13,0,0,0-.63,1.53C69.81,67.8,69.28,69.41,68.2,69.85Zm9.6-11.28h0A2.17,2.17,0,0,0,79.4,58a4,4,0,0,0,.9-2.89,2.92,2.92,0,0,0-.89-2.28,2,2,0,0,0-1.32-.55H78c-1.46.15-2.26,1.74-2.28,3.16A3.91,3.91,0,0,0,76.62,58,1.69,1.69,0,0,0,77.8,58.57ZM84.29,84C87,80,92.18,77.82,96.76,75.9c4.75-2,8.86-3.71,9.58-7,.89-4-3.92-6.56-8.49-8.63-1.4-.62-2.46-1.19-2.46-2.32,0-1.72,1.43-2.83,2.81-3.89.5-.4,1-.77,1.38-1.16a2.33,2.33,0,0,0,.91-2.05,1.46,1.46,0,0,0-1.13-.95c-1.41-.38-2.81,1.08-4.3,2.63-1.22,1.28-2.49,2.6-3.82,2.83A1.39,1.39,0,0,1,90,55.05c-1.22-1.15-.81-4.95-.4-8.63.19-1.78.37-3.46.37-4.79,0-5.46-1-8-3.24-8a2.36,2.36,0,0,0-1.84.76c-1.8,2-1.24,7.64-.65,13.61.32,3.21.65,6.52.65,9.53A66,66,0,0,1,83.8,69c-.13.8-.25,1.48-.31,2a2.68,2.68,0,0,0,.59,2.08,1.72,1.72,0,0,0,1.53.39c1.45-.2,3.92-1.23,4.28-5.83.28-3.43,1.61-5.17,4-5.17h.34c2.46.17,5.08,2.13,5.08,4.77,0,4.13-4.53,7.19-14.68,9.9C74.28,79.9,64,84.12,58.35,87.88c-3.82,2.56-5.11,3.42-5.11,7.05,0,2.66-1.81,3.69-4.31,5.12-.71.41-1.45.83-2.24,1.33l-.51.33c-20.7,13.23-22.56,20-20.47,23.37,3.51,5.65,13.13-.12,18.88-3.58,1-.6,1.86-1.12,2.6-1.52s1.76-1,2.76-1.6c5.14-3,12.17-7.16,16.5-5.5,1.69.64,1.65,2.24,1.61,3.79S68,120,69.67,120.9c3.4,1.91,9.14.23,13.35-3.92,4.59-4.54,6.19-11.37,3.8-16.25C84.51,96,81,88.93,84.29,84ZM92,83c-2.18,0-2.52,2.6-2.56,3.72a67.37,67.37,0,0,0,.14,7.6,2.11,2.11,0,0,0,1.92,1.92,2.42,2.42,0,0,0,2.28-2.42C94,92,94,87.49,94,86.39,94,84.82,93.65,83,92,83Zm36.88-.84a1.58,1.58,0,0,0-.76-.56,1.93,1.93,0,0,0-.52-.08c-.92,0-1.79.8-2.65,2.43a15.07,15.07,0,0,1-6.49,5.67c-1.56.66-3.93,1.38-6.43,2.13a58.44,58.44,0,0,0-8.16,2.85c-9,4.63-10.71,9.3-9.26,12.13a3,3,0,0,0,2.3,1.8c2.12.28,4.79-1.67,6-3l.14-.15c1.11-1.21,3.69-4,5.43-4.12,1.14,0,1.18.66,1.21,1.29s.06,1.32,1,1.66c1.55.54,3.33-.9,4.31-3.5l0-.08a22.51,22.51,0,0,1,9.09-11.55l.67-.43c2-1.26,4.15-2.69,4.47-5A2.13,2.13,0,0,0,128.87,82.12Zm-98.2,22.75a3.16,3.16,0,0,0,2.62-.12h0c1.31-.67,1.81-2.61,1.18-4.61C30,86.25,29.09,77.78,28.94,74a1.72,1.72,0,0,1,1.55-1.91C37,71.2,51.91,67.79,51,54.54c-.36-5.38-4.16-11.66-13.68-11.66a15.33,15.33,0,0,0-12,5.15c-4.45,5.26-5.66,14.17-3.61,26.5C23.77,86.7,25.76,94.39,29,102.91A2.92,2.92,0,0,0,30.67,104.87Zm6-52.9a5.09,5.09,0,0,1,3.79,1.08,4,4,0,0,1,1.45,2.78A5.27,5.27,0,0,1,40.46,60a5.34,5.34,0,0,1-3.78,1.6h-.24a4.24,4.24,0,0,1-4.25-4.29A4.88,4.88,0,0,1,36.64,52Zm8.52,19.7a7.73,7.73,0,0,0-1.62.18c-4,.89-6.81,4.9-7.71,8.25a13.76,13.76,0,0,0,1.6,11.34,4.74,4.74,0,0,0,3.4,2.21,6,6,0,0,0,5.5-2.5A18.29,18.29,0,0,0,47.83,89c.72-1.17,1.3-2.09,2.16-2.09a2.13,2.13,0,0,1,1.39.8c.55.53,1.07,1,2,.59,1.84-.9,1.87-3.7.07-9.37C52.26,75.24,49.25,71.67,45.16,71.67Zm2.48,11.66a2.9,2.9,0,0,1-2.1.82h0a2.92,2.92,0,0,1-2.91-3.09,3.27,3.27,0,0,1,2.68-3.41,2.9,2.9,0,0,1,2.34.68,3.2,3.2,0,0,1,1,2.31A3.86,3.86,0,0,1,47.64,83.33Zm9.94-1.75h0a2.43,2.43,0,0,0,.8,2,1.37,1.37,0,0,0,1.24.1c1-.36,1.61-1.55,1.6-3.26a34.06,34.06,0,0,0-.43-4.61c-.43-3.11-.84-6,.84-7.73a23.88,23.88,0,0,1,2.16-1.84c2.89-2.3,6.49-5.17,5.95-10.46a6.3,6.3,0,0,0-3-4.91,5.65,5.65,0,0,0-2.81-.71,8.82,8.82,0,0,0-3.76.94c-5.33,2.5-6.81,9-4.42,19.31A69.47,69.47,0,0,1,57.58,81.58Zm2.26-22.66h0c.3-1.27,1.29-2.51,2.76-2.26a1.92,1.92,0,0,1,1.23.9,3.08,3.08,0,0,1,.32,2.5,2.75,2.75,0,0,1-2.46,2.21,2.49,2.49,0,0,1-.46-.05,1.75,1.75,0,0,1-1.12-.78A3.32,3.32,0,0,1,59.84,58.92Z"/></svg>