<svg id="GRAPHICS" xmlns="http://www.w3.org/2000/svg" xmlns:xlink="http://www.w3.org/1999/xlink" viewBox="0 0 360 210"><defs><style>.cls-1{fill:#592bff;}.cls-2{fill:url(#New_Gradient_Swatch_1);}.cls-3{fill:#00ff1b;}</style><linearGradient id="New_Gradient_Swatch_1" x1="180" y1="176.26" x2="180" y2="85.49" gradientUnits="userSpaceOnUse"><stop offset="0" stop-color="#00ff1b"/><stop offset="1" stop-color="#0f9"/></linearGradient></defs><path class="cls-1" d="M216.23,4.51a1.39,1.39,0,0,0-1.06,0l-20.6,8.57a.93.93,0,0,1-1.28-.85V5.79a1.35,1.35,0,0,0-.62-1.15,1.37,1.37,0,0,0-1.3-.13l-20.61,8.57a.9.9,0,0,1-.87-.09.94.94,0,0,1-.41-.76V5.79A1.39,1.39,0,0,0,168.1,4.4a1.4,1.4,0,0,0-.53.11l-23.81,9.9a1.39,1.39,0,0,0-.75,1.81,1.42,1.42,0,0,0,1.82.75l20.6-8.57a.93.93,0,0,1,.87.08.91.91,0,0,1,.41.77v6.44a1.38,1.38,0,0,0,.62,1.15,1.4,1.4,0,0,0,1.3.13L189.24,8.4a.92.92,0,0,1,1.28.85v6.44A1.38,1.38,0,0,0,192.43,17l23.81-9.9A1.39,1.39,0,0,0,217,5.26,1.37,1.37,0,0,0,216.23,4.51Z"/><path class="cls-1" d="M180.35,76.62q9.89,0,19.76.24a.6.6,0,0,0,.62-.61V63.65A1.67,1.67,0,0,1,202.44,62q6.31.16,12.63.43c8.48.34,15.37-5.1,15.37-12.31s-6.89-13.51-15.37-13.85q-17.35-.7-34.72-.72a.62.62,0,0,0-.62.62V76A.62.62,0,0,0,180.35,76.62ZM215.71,52q-6.63-.27-13.27-.45a1.75,1.75,0,0,1-1.71-1.74,1.66,1.66,0,0,1,1.71-1.66q6.63.18,13.27.45a1.8,1.8,0,0,1,1.71,1.78A1.62,1.62,0,0,1,215.71,52Z"/><path class="cls-1" d="M72.19,83.43q5.39-.69,10.79-1.3a.71.71,0,0,0,.62-.69V68.84A2,2,0,0,1,85.3,67c2.08-.23,4.15-.46,6.23-.67a1.5,1.5,0,0,1,1.7,1.52V80.41a.54.54,0,0,0,.62.55q12.24-1.23,24.5-2.12a.67.67,0,0,0,.62-.66V73.75a.56.56,0,0,0-.62-.57c-5,.35-10,.76-14.93,1.2a1.52,1.52,0,0,1-1.7-1.54V67a1.9,1.9,0,0,1,1.7-1.85l.19,0C112.08,64.35,119,58,119,50.8S112.07,38.19,103.61,39q-15.73,1.41-31.42,3.4a.73.73,0,0,0-.62.7V82.89A.54.54,0,0,0,72.19,83.43Zm30.92-32.09a1.53,1.53,0,0,1,1.7,1.55,1.91,1.91,0,0,1-1.7,1.85q-8.62.76-17.22,1.72A1.49,1.49,0,0,1,84.19,55a2,2,0,0,1,1.7-1.89Q94.5,52.11,103.11,51.34Z"/><path class="cls-1" d="M20,91.69Q36.7,88.51,53.46,86c9.08-1.34,10.14-6,10.14-9.42,0-5.76-6.91-7.4-11.8-6.64a40.72,40.72,0,0,0-21.33,10.3,1.78,1.78,0,0,1-1.74.42,1.35,1.35,0,0,1-.91-1.34V63.2a2.1,2.1,0,0,1,1.69-2q16.69-3,33.47-5.29a.73.73,0,0,0,.62-.71V44.1a.53.53,0,0,0-.62-.53q-21.54,3-43,7a.77.77,0,0,0-.61.73V91.18A.5.5,0,0,0,20,91.69Z"/><path class="cls-1" d="M235.8,63.34q5,.33,10,.71a1.87,1.87,0,0,1,1.7,1.84V78.67a.67.67,0,0,0,.62.66q7.67.61,15.31,1.36a.55.55,0,0,0,.62-.55V67.36a1.51,1.51,0,0,1,1.7-1.53q5,.49,10,1.06a.53.53,0,0,0,.61-.55V41.6a.7.7,0,0,0-.61-.69q-20-2.25-39.95-3.55a.58.58,0,0,0-.62.58V62.68A.67.67,0,0,0,235.8,63.34Z"/><path class="cls-1" d="M125.72,78.34q22.67-1.44,45.36-1.67a.62.62,0,0,0,.62-.63V36.2a.61.61,0,0,0-.62-.61c-2.42,0-4.85.06-7.27.11a.63.63,0,0,0-.62.63V50.48a1.75,1.75,0,0,1-1.71,1.73q-8.07.18-16.15.51a1.63,1.63,0,0,1-1.63-2.14,23.11,23.11,0,0,0,.91-5.77c0-6.29-2.76-9.12-8.7-8.81-10,.53-10.81,12.73-10.81,16.42,0,10.43,8,14.59,15.86,14.23,9.22-.41,14.88-5.18,19.44-9a1.73,1.73,0,0,1,1.81-.26,1.67,1.67,0,0,1,1,1.52V69.42a1.75,1.75,0,0,1-1.71,1.74q-17.88.38-35.76,1.52a.66.66,0,0,0-.62.65v4.43A.58.58,0,0,0,125.72,78.34Z"/><path class="cls-1" d="M285,83.07q27.62,3.42,55,8.62a.5.5,0,0,0,.61-.51V51.34a.77.77,0,0,0-.61-.73q-27.39-5.2-55-8.62a.53.53,0,0,0-.61.55V82.38A.7.7,0,0,0,285,83.07Zm25.26-15.34-7-1a2,2,0,0,1-1.7-1.94,1.44,1.44,0,0,1,1.7-1.46l7,1a.52.52,0,0,0,.61-.52v-7a1.41,1.41,0,0,1,1.69-1.43,2,2,0,0,1,1.7,2v7a.74.74,0,0,0,.61.71c2.32.37,4.63.75,6.95,1.14a2.1,2.1,0,0,1,1.69,2,1.4,1.4,0,0,1-1.69,1.41c-2.32-.39-4.63-.77-6.95-1.14a.51.51,0,0,0-.61.53v7a1.42,1.42,0,0,1-1.7,1.44,2.07,2.07,0,0,1-1.69-2v-7A.76.76,0,0,0,310.22,67.73Z"/><path class="cls-2" d="M33.16,122.2q-5.32.84-10.63,1.73a1.39,1.39,0,0,1-1.69-1.41,2.1,2.1,0,0,1,1.69-2q9.07-1.53,18.16-2.88c6-.9,12.47-4.58,12.47-12.46,0-5.49-2.22-11-18.54-8.48-2.86.45-5.71.9-8.56,1.37C11.4,100.52,3.68,109.54,3.68,123.66c0,5.45,1.65,9.52,4.91,12.09,5.8,4.58,15.19,3.34,17,3.07,2.78-.46,5.55-.91,8.33-1.35a1.42,1.42,0,0,1,1.69,1.44,2,2,0,0,1-1.69,2l-7.89,1.27-.55.1c-5.39.93-22.91,5.7-22.91,21.74,0,11.61,5.68,14.1,23.47,11.13q6.53-1.08,13-2.06C46,172,62,167.13,62,141.93,62,131.14,57,118.57,33.16,122.2Zm295.5.29q-5.31-.84-10.63-1.63a2,2,0,0,1-1.7-2,1.43,1.43,0,0,1,1.7-1.45q9.09,1.33,18.16,2.86c6,1,12.42-.65,12.42-8.53,0-5.49-2.18-11.66-18.49-14.33q-4.28-.69-8.55-1.33c-14.7-2.21-22.49,4.37-22.49,18.48A19.63,19.63,0,0,0,304,128.27c5.85,6.41,15.26,8.14,17.09,8.45q4.17.63,8.33,1.29a2.07,2.07,0,0,1,1.7,2,1.41,1.41,0,0,1-1.7,1.43l-7.89-1.23-.55-.08c-5.39-.77-23-1.56-23,14.49,0,11.62,5.75,15.91,23.58,18.56q6.51,1,13,2.07c6.88,1.08,22.81,1.3,22.81-23.9C357.4,140.53,352.45,126.37,328.66,122.49Zm-150.91-37c-17.55.1-19.44,16.16-19.44,23v44.12c0,7.34,2.21,10.13,7.88,10.05,3.75-.06,8.22-1.93,8.22-10.69V134.47a1.72,1.72,0,0,1,1.71-1.71,1.69,1.69,0,0,1,1.71,1.69v17.33c0,4,2,10.71,9.75,10.76,1,0,10.23-.19,10.24-10.84V122.26C197.82,103,196.28,85.51,177.75,85.49Zm-.2,35.5a9.1,9.1,0,0,1-9-9.25,9,9,0,1,1,9,9.25Zm98.74-30.6c-10.08-1-14.94,9.28-15,9.38a1.58,1.58,0,0,1-1.91.81A1.88,1.88,0,0,1,258,98.81c0-6.48-3.37-8.12-6.2-8.33-4.86-.37-6.6,3.59-6.6,7.39v55.81c0,7.77,3.1,11.27,10.35,11.85,6.39.51,9.76-2.94,9.76-10.09V115.31a1.53,1.53,0,0,1,1.71-1.54,1.91,1.91,0,0,1,1.7,1.86v38c0,6.8,1.6,13.16,13.21,14.39,7.3.8,11.47-3.33,11.48-11.45V114.39C293.44,104.94,291.68,92,276.29,90.39ZM223,104l.1-.09a1.59,1.59,0,0,1,1.15-.4c10.11.49,15.44-2.08,15.45-7.64,0-6.1-4.68-8.84-16.68-9.4-3.58-.16-7.15-.3-10.73-.43-5.05-.18-13.53.8-13.53,8.65,0,7.36,7.76,8.12,15.7,8.42a1.78,1.78,0,0,1,1.71,1.76v40.26a1.64,1.64,0,0,1-1.55,1.64c-7.6.43-11.61,3.58-11.61,9s3.08,7.09,12.19,7.42q6,.22,11.92.52c7.24.36,12.06-.65,12.05-7.14,0-4.94-5-8.18-14.9-9.41a1.83,1.83,0,0,1-1.17-.66,1.74,1.74,0,0,1-.39-1.27c.73-7.58.67-21-.16-40h-.62l.62-.13A1.59,1.59,0,0,1,223,104ZM80.21,91.24c-22,2.43-23.69,13.29-23.7,16.42,0,5.86,1.94,12.33,17.17,11.75A1.5,1.5,0,0,1,75.25,121c0,.25-1.52,25-1.52,35.07,0,9.61,1.71,12.19,7.63,11.56a6.31,6.31,0,0,0,4.36-2.33c2.31-2.73,4.82-9.23,3.63-24.83-.31-4.08-1.63-11.7-2.8-18.41-.19-1.15-.39-2.29-.59-3.43a1.81,1.81,0,0,1,.35-1.37,1.89,1.89,0,0,1,1.23-.76c16.71-2.61,20.08-7.53,20.08-15C107.62,93.32,97.87,89.39,80.21,91.24Zm49.07-4.4c-15.63.89-17.78,8.71-17.78,16.85V152.9c0,10.71,4.28,11.78,8,11.54,4-.25,5.79-3.1,5.79-9.27,0-3.66.11-31.42.12-31.43a1.83,1.83,0,0,1,1.7-1.79,1.65,1.65,0,0,1,1.21.44,1.58,1.58,0,0,1,.5,1.18q0,12.42-.1,24.83c0,9.56,4.37,15.25,11.42,14.95,4-.17,9.24-1.89,9.24-15.24,0-14.32-9.73-26.05-9.82-26.16a1.68,1.68,0,0,1-.22-1.79,1.81,1.81,0,0,1,1.54-1c.54-.05,13.17-.7,13.17-12.22C154.05,91.37,141.25,86.18,129.28,86.84Zm3.36,17.24,3.76,3.11a1.68,1.68,0,0,1,.16,2.39,1.81,1.81,0,0,1-2.41.27l-3.84-3.17a.64.64,0,0,0-.87.09l-4.63,5.28a1.79,1.79,0,0,1-2.41.25,1.69,1.69,0,0,1-.1-2.4l4.55-5.21a.6.6,0,0,0,.17-.46.61.61,0,0,0-.21-.42l-4-3.23a1.68,1.68,0,0,1-.16-2.39,1.84,1.84,0,0,1,1.17-.65H124a1.65,1.65,0,0,1,1.13.36l4,3.31a.62.62,0,0,0,.86-.09l4.46-5a1.73,1.73,0,0,1,2.41-.22,1.69,1.69,0,0,1,.1,2.4l-4.38,5a.65.65,0,0,0-.16.46A.56.56,0,0,0,132.64,104.08Z"/><path class="cls-3" d="M230.73,185.17c-11.28-.3-20.46,5.56-26.53,9.44-3.31,2.12-5.68,3.65-7.32,3.52a1.56,1.56,0,0,1-1.32-.72c-.7-1.13.13-3.17.86-5,.22-.54.42-1,.54-1.42.63-2,.57-3.55-.2-4.58s-2.61-1.74-5.24-1.74c-5.33,0-12.52,3.61-18.3,6.52-2.46,1.23-4.57,2.29-6.25,2.94-2,.76-3,.33-3.47-.16-.73-.72-.83-2-.27-3.53.82-2.19.87-3.76.14-4.69a3.94,3.94,0,0,0-3.2-1.08,13.76,13.76,0,0,0-1.62.1c-2.65.33-11.66,2.92-20.19,6.91-7.56,3.54-14.9,7.31-14.2,11.11h0a1.38,1.38,0,0,0,.81,1.08c1.17.53,3.26-.06,4.63-.88l1.64-1c2.6-1.59,6.94-4.24,11-6.46,7.15-3.86,11.58-5.51,13.51-5a2.36,2.36,0,0,1,1.64,1.12c.61,1.11.08,2.7-.44,4.23a17.45,17.45,0,0,0-.59,2c-.31,1.52-.22,2.51.28,3.13s1.55,1,3.08,1c2.63,0,7.59-2.79,11.58-5,1.79-1,3.48-1.95,4.8-2.57,6-2.81,11.69-5.47,14-3.13.89.89.58,2.75.21,4.89-.4,2.35-.86,5,.35,6.32.67.73,1.88,1,3.59.86,3-.27,7.25-2.62,11.32-4.88,2-1.12,3.9-2.18,5.66-3a43,43,0,0,1,19.77-4.51c3.14,0,4.57-.59,4.77-2a2.57,2.57,0,0,0-.59-2.07C234.41,185.82,232.8,185.23,230.73,185.17Z"/></svg>