<?xml version="1.0" encoding="UTF-8"?><svg id="GUIDES" xmlns="http://www.w3.org/2000/svg" xmlns:xlink="http://www.w3.org/1999/xlink" viewBox="0 0 220 220"><defs><style>.cls-1,.cls-2{fill:none;}.cls-3{fill:url(#linear-gradient);}.cls-3,.cls-4,.cls-2,.cls-5,.cls-6,.cls-7,.cls-8,.cls-9,.cls-10,.cls-11,.cls-12,.cls-13,.cls-14{stroke:#000;stroke-linecap:round;stroke-linejoin:round;stroke-width:1.42px;}.cls-15{clip-path:url(#clippath);}.cls-16,.cls-9{fill:#00ff1b;}.cls-17{fill:#8f1528;}.cls-5{opacity:.25;}.cls-6{fill:#38cf36;}.cls-7{fill:#45ff43;}.cls-8{fill:#ff2547;}.cls-10{fill:url(#linear-gradient-5);}.cls-11{fill:url(#linear-gradient-6);}.cls-12{fill:url(#linear-gradient-2);}.cls-13{fill:url(#linear-gradient-4);}.cls-14{fill:url(#linear-gradient-3);}.cls-18{fill:#fff2cc;opacity:.5;}</style><linearGradient id="linear-gradient" x1="110" y1="210.1" x2="110" y2="44.67" gradientUnits="userSpaceOnUse"><stop offset="0" stop-color="#592bff"/><stop offset="1" stop-color="#9a33fb"/></linearGradient><clipPath id="clippath"><path class="cls-1" d="M24.23,44.67H195.77c6.89,0,12.48,5.59,12.48,12.48V197.62c0,6.89-5.59,12.48-12.48,12.48H24.23c-6.89,0-12.48-5.59-12.48-12.48V57.15c0-6.89,5.59-12.48,12.48-12.48Z"/></clipPath><linearGradient id="linear-gradient-2" x1="34.73" y1="171.57" x2="184.3" y2="171.57" gradientUnits="userSpaceOnUse"><stop offset=".54" stop-color="#ff2547"/><stop offset=".89" stop-color="#bd1b35"/></linearGradient><linearGradient id="linear-gradient-3" x1="34.73" y1="142.45" x2="184.3" y2="142.45" xlink:href="#linear-gradient-2"/><linearGradient id="linear-gradient-4" x1="109.52" y1="131.32" x2="109.52" y2="81.63" gradientUnits="userSpaceOnUse"><stop offset=".11" stop-color="#36cb34"/><stop offset=".73" stop-color="#45ff43"/></linearGradient><linearGradient id="linear-gradient-5" x1="142.93" y1="176.88" x2="114.64" y2="148.59" gradientUnits="userSpaceOnUse"><stop offset="0" stop-color="#abe0f9"/><stop offset=".56" stop-color="#fff"/></linearGradient><linearGradient id="linear-gradient-6" x1="101.68" y1="176.88" x2="73.39" y2="148.59" xlink:href="#linear-gradient-5"/></defs><path class="cls-3" d="M24.23,44.67H195.77c6.89,0,12.48,5.59,12.48,12.48V197.62c0,6.89-5.59,12.48-12.48,12.48H24.23c-6.89,0-12.48-5.59-12.48-12.48V57.15c0-6.89,5.59-12.48,12.48-12.48Z"/><g class="cls-15"><g><path class="cls-12" d="M109.52,118.99h60.28s14.51,19.49,14.51,46.92c0,35.82-21.87,58.24-74.79,58.24-52.92,0-74.79-22.41-74.79-58.24,0-27.43,14.51-46.92,14.51-46.92h60.28Z"/><g><path class="cls-14" d="M34.73,165.91c0-27.43,14.51-46.92,14.51-46.92h60.28s60.28,0,60.28,0c0,0,14.51,19.49,14.51,46.92"/><g><path class="cls-5" d="M53.39,137.21c3.51,0,6.76-1.63,9.35-3.27,2.59-1.62,5.31-3.24,9.36-3.24s6.76,1.62,9.35,3.24c2.58,1.64,5.84,3.27,9.35,3.27s6.76-1.63,9.35-3.27c2.58-1.62,5.3-3.24,9.35-3.24s6.77,1.62,9.35,3.24c2.59,1.64,5.85,3.27,9.35,3.27s6.76-1.63,9.35-3.27c2.59-1.62,5.3-3.24,9.35-3.24s6.77,1.62,9.36,3.24c2.59,1.64,5.84,3.27,9.35,3.27,4.41,0,8.83-1.8,11.2-5.51-3.56-8.02-7.05-12.71-7.05-12.71H49.24s-3.49,4.7-7.05,12.71c2.36,3.71,6.78,5.51,11.2,5.51Z"/><g><path class="cls-13" d="M109.52,81.63c-36.39,0-65.9,11.66-65.9,38.3,0,7.71,6.19,11.38,12.36,11.38,3.35,0,6.45-1.56,8.92-3.12,2.47-1.54,5.06-3.09,8.93-3.09s6.45,1.55,8.92,3.09c2.47,1.56,5.57,3.12,8.92,3.12s6.45-1.56,8.92-3.12c2.47-1.54,5.06-3.09,8.92-3.09s6.46,1.55,8.92,3.09c2.47,1.56,5.58,3.12,8.92,3.12s6.45-1.56,8.92-3.12c2.47-1.54,5.06-3.09,8.92-3.09s6.46,1.55,8.93,3.09c2.47,1.56,5.57,3.12,8.92,3.12,6.17,0,12.36-3.67,12.36-11.38,0-26.64-29.5-38.3-65.9-38.3Z"/><path class="cls-18" d="M64.57,105.18c-1.02,0-2.03-.32-2.81-.96-1.54-1.28-1.53-3.34,.02-4.61,2.02-1.65,4.36-3.18,6.96-4.54,3.34-1.75,7.17-3.26,11.36-4.5,2.06-.6,4.32,.28,5.05,1.97,.73,1.7-.34,3.56-2.39,4.17-3.64,1.07-6.93,2.37-9.78,3.86-2.11,1.11-4.01,2.34-5.63,3.66-.77,.63-1.78,.94-2.79,.94Z"/><g><polyline class="cls-7" points="115.83 90.54 115.83 72.92 104.24 72.92 104.24 90.54"/><circle class="cls-6" cx="110.03" cy="72.92" r="5.79"/></g></g></g></g><g><path class="cls-17" d="M139.25,192.48c.43,.66,1.31,.85,1.97,.43s.85-1.31,.42-1.97c-.43-.66-1.31-.85-1.97-.42-.66,.43-.85,1.31-.42,1.97Z"/><path class="cls-17" d="M143.4,196.3c.43,.66,1.31,.85,1.97,.43s.85-1.31,.42-1.97-1.31-.85-1.97-.42c-.66,.43-.85,1.31-.43,1.97Z"/><path class="cls-17" d="M144.83,190.58c.43,.66,1.31,.85,1.97,.42s.85-1.31,.42-1.97-1.31-.85-1.97-.42-.85,1.31-.43,1.97Z"/></g><g><path class="cls-2" d="M122.92,192.56c-5.28,3.03-11.51,4.53-18.04,3.93-1.41-.13-2.78-.35-4.12-.66"/><path class="cls-2" d="M128.28,195.53c-.36,.04-.73,.05-1.12,.01-2.87-.26-4.98-2.8-4.72-5.68,.11-1.2,.62-2.27,1.39-3.09"/></g><g><g><path class="cls-10" d="M149.19,162.72c0,10.84-9.12,19.59-20.42,19.59s-20.39-8.75-20.39-19.59,9.14-19.59,20.39-19.59,20.42,8.8,20.42,19.59Z"/><path class="cls-4" d="M139.04,162.71c0,5.47-4.59,9.89-10.29,9.89s-10.22-4.42-10.22-9.89,4.61-9.82,10.22-9.82,10.29,4.46,10.29,9.82Z"/></g><g><path class="cls-11" d="M107.94,162.72c0,10.84-9.12,19.59-20.42,19.59s-20.39-8.75-20.39-19.59,9.14-19.59,20.39-19.59,20.42,8.8,20.42,19.59Z"/><path class="cls-4" d="M97.79,162.71c0,5.47-4.59,9.89-10.29,9.89s-10.22-4.42-10.22-9.89,4.61-9.82,10.22-9.82,10.29,4.46,10.29,9.82Z"/></g><path class="cls-8" d="M108.26,185.82h-4.65c-3.22,0-5.82-2.61-5.82-5.82,0-3.22,2.61-5.83,5.82-5.83h4.65"/></g></g></g><path class="cls-9" d="M195.77,40.23H24.23c-9.33,0-16.92,7.59-16.92,16.92V197.62c0,9.33,7.59,16.92,16.92,16.92H195.77c9.33,0,16.92-7.59,16.92-16.92V57.15c0-9.33-7.59-16.92-16.92-16.92Zm12.48,157.38c0,6.89-5.59,12.48-12.48,12.48H24.23c-6.89,0-12.48-5.59-12.48-12.48V57.15c0-6.89,5.59-12.48,12.48-12.48H195.77c6.89,0,12.48,5.59,12.48,12.48V197.62Z"/><path class="cls-16" d="M103.73,8.84h4.78c.33,0,.6,.27,.6,.6v4.78c0,.49,.4,.9,.9,.9s.9-.4,.9-.9v-4.78c0-.33,.27-.6,.6-.6h4.78c.49,0,.9-.4,.9-.9s-.4-.9-.9-.9h-4.78c-.33,0-.6-.27-.6-.6V1.67c0-.49-.4-.9-.9-.9s-.9,.4-.9,.9V6.45c0,.33-.27,.6-.6,.6h-4.78c-.49,0-.9,.4-.9,.9s.4,.9,.9,.9Z"/><polygon class="cls-9" points="127.41 55.3 127.41 49.99 132.46 49.99 132.46 44.67 137.51 44.67 137.51 40.23 132.46 40.23 132.46 34.92 127.41 34.92 127.41 29.6 92.59 29.6 92.59 34.92 87.54 34.92 87.54 40.23 82.49 40.23 82.49 44.67 87.54 44.67 87.54 49.99 92.59 49.99 92.59 55.3 127.41 55.3"/><g><polyline class="cls-2" points="115.71 49.39 115.71 35.51 119.98 35.51 119.98 44.08 115.71 44.08"/><polyline class="cls-2" points="112.56 42.45 112.56 35.51 109.43 35.51 109.43 49.39"/><g><polyline class="cls-2" points="106.28 49.39 106.28 35.51 100.02 35.51 100.02 49.39"/><line class="cls-2" x1="103.15" y1="49.39" x2="103.15" y2="35.51"/></g></g><g><polygon class="cls-9" points="218.95 127.51 212.68 127.51 212.68 121.25 208.25 121.25 208.25 127.51 201.99 127.51 201.99 131.95 208.25 131.95 208.25 138.21 212.68 138.21 212.68 131.95 218.95 131.95 218.95 127.51"/><polygon class="cls-9" points="18.01 127.51 11.75 127.51 11.75 121.25 7.32 121.25 7.32 127.51 1.05 127.51 1.05 131.95 7.32 131.95 7.32 138.21 11.75 138.21 11.75 131.95 18.01 131.95 18.01 127.51"/></g></svg>