<svg id="GRAPHICS" xmlns="http://www.w3.org/2000/svg" xmlns:xlink="http://www.w3.org/1999/xlink" viewBox="0 0 220 220"><defs><style>.cls-1,.cls-12{fill:none;}.cls-10,.cls-12,.cls-13,.cls-2,.cls-4,.cls-5,.cls-6,.cls-7,.cls-8,.cls-9{stroke:#000;stroke-linecap:round;stroke-linejoin:round;stroke-width:1.42px;}.cls-2{fill:url(#linear-gradient);}.cls-3{clip-path:url(#clip-path);}.cls-11,.cls-4{fill:#003bff;}.cls-5{fill:#9000ad;}.cls-6{fill:#620075;}.cls-7{fill:#fff2cc;}.cls-8{opacity:0.3;}.cls-9{fill:#350040;}.cls-13,.cls-14{fill:#00ff1b;}</style><linearGradient id="linear-gradient" x1="110" y1="210.1" x2="110" y2="49.36" gradientUnits="userSpaceOnUse"><stop offset="0" stop-color="#592bff"/><stop offset="1" stop-color="#9a33fb"/></linearGradient><clipPath id="clip-path"><rect class="cls-1" x="11.75" y="49.36" width="196.5" height="160.73" rx="12.48"/></clipPath></defs><rect class="cls-2" x="11.75" y="49.36" width="196.5" height="160.73" rx="12.48"/><g class="cls-3"><path class="cls-4" d="M156.32,94.61s4.54,3.1,13.94,3.1,14.92-6.16,14.92-15.79c0-8.8-5.27-18.31-17.67-18.28C155.3,63.67,149,73.7,149,73.7s-3.09-8.43-14.35-7.66c-14,.95-14.33,14.34-14.33,14.34A15.33,15.33,0,0,0,107,76.86c-10.41,2-10.67,9.91-10.67,9.91s-14-2.47-14,9.17c0,5.79,5.78,7.32,12,6.85,4.22-.32,9.77-3.38,9.77-3.38a16.53,16.53,0,0,0,14.67,3.38c9-2.07,10.06-9.59,10.06-9.59s5.27,8,15.33,8S156.32,94.61,156.32,94.61Z"/><rect class="cls-5" x="55.44" y="129.58" width="20.61" height="19.58"/><rect class="cls-5" x="76.05" y="129.58" width="20.61" height="19.58"/><rect class="cls-5" x="76.05" y="110" width="20.61" height="19.58"/><rect class="cls-5" x="96.66" y="129.58" width="20.61" height="19.58"/><rect class="cls-5" x="96.66" y="110" width="20.61" height="19.58"/><rect class="cls-5" x="96.66" y="90.42" width="20.61" height="19.58"/><rect class="cls-5" x="117.27" y="129.58" width="20.61" height="19.58"/><rect class="cls-5" x="117.27" y="110" width="20.61" height="19.58"/><rect class="cls-5" x="137.88" y="129.58" width="20.61" height="19.58"/><rect class="cls-5" x="55.44" y="195.54" width="20.61" height="19.58"/><rect class="cls-5" x="76.05" y="195.54" width="20.61" height="19.58"/><rect class="cls-5" x="96.66" y="195.54" width="20.61" height="19.58"/><rect class="cls-5" x="55.44" y="215.12" width="20.61" height="19.58"/><rect class="cls-5" x="55.44" y="175.96" width="20.61" height="19.58"/><rect class="cls-5" x="76.05" y="215.12" width="20.61" height="19.58"/><rect class="cls-5" x="76.05" y="175.96" width="20.61" height="19.58"/><rect class="cls-5" x="96.66" y="215.12" width="20.61" height="19.58"/><rect class="cls-5" x="96.66" y="175.96" width="20.61" height="19.58"/><rect class="cls-5" x="117.27" y="215.12" width="20.61" height="19.58"/><rect class="cls-5" x="117.27" y="195.54" width="20.61" height="19.58"/><rect class="cls-5" x="117.27" y="175.96" width="20.61" height="19.58"/><rect class="cls-5" x="137.88" y="215.12" width="20.61" height="19.58"/><rect class="cls-5" x="137.88" y="195.54" width="20.61" height="19.58"/><rect class="cls-5" x="137.88" y="175.96" width="20.61" height="19.58"/><rect class="cls-6" x="49.16" y="215.12" width="6.28" height="19.58"/><rect class="cls-6" x="49.16" y="195.54" width="6.28" height="19.58"/><rect class="cls-6" x="49.16" y="175.96" width="6.28" height="19.58"/><rect class="cls-6" x="49.16" y="129.58" width="6.28" height="19.58"/><rect class="cls-6" x="69.77" y="110" width="6.28" height="19.58"/><rect class="cls-6" x="90.38" y="90.42" width="6.28" height="19.58"/><path class="cls-6" d="M113.38,182.25a28.1,28.1,0,0,1-4.28.65,42.07,42.07,0,0,1-7,0,29.55,29.55,0,0,1-4.42-.68,9.83,9.83,0,0,0-5.3,18.94,46,46,0,0,0,7.6,1.29c1.86.17,3.75.26,5.61.26s3.78-.08,5.6-.25A41.17,41.17,0,0,0,119,201.1a9.83,9.83,0,0,0-5.57-18.85Z"/><path class="cls-7" d="M115,187.84a32.17,32.17,0,0,1-5.37.85l1.06,8a36.15,36.15,0,0,0,6.62-1.12,4,4,0,0,0-2.31-7.7Z"/><path class="cls-7" d="M105.58,188.85c-1.47,0-2.81-.07-4-.17l-1.06,8c1.49.15,3.19.24,5.06.24s3.59-.09,5.07-.23l-1.06-8C108.42,188.78,107.08,188.85,105.58,188.85Z"/><path class="cls-7" d="M96.16,187.82A4,4,0,1,0,94,195.56a40,40,0,0,0,6.55,1.09l1.06-8A34.13,34.13,0,0,1,96.16,187.82Z"/><path class="cls-8" d="M108.68,89.21l-12,2.08-6.28,1.08v8.73a5.46,5.46,0,0,0,.93.08,5.23,5.23,0,0,0,3.77-1.37A5.28,5.28,0,0,0,96.66,101a5.75,5.75,0,0,0,2.46.53,6.2,6.2,0,0,0,4.27-1.47,6.29,6.29,0,0,0,3.92,1.28,7.4,7.4,0,0,0,4.54-1.36,6.25,6.25,0,0,0,4,1.36,9.92,9.92,0,0,0,1.39-.11v-12Z"/><rect class="cls-9" x="55.44" y="129.58" width="103.06" height="46.38"/><path class="cls-10" d="M126.9,133.62H87c-11,0-20,8.6-20,19.15S76,171.93,87,171.93h39.9c11,0,20-8.56,20-19.16S138,133.62,126.9,133.62Z"/><path class="cls-7" d="M107,152.77c0,10.6-8.92,19.16-20,19.16s-20-8.56-20-19.16S76,133.62,87,133.62,107,142.22,107,152.77Z"/><path class="cls-10" d="M94.88,152.76A7.88,7.88,0,1,1,87,145.23,7.73,7.73,0,0,1,94.88,152.76Z"/><path class="cls-7" d="M146.87,152.77c0,10.6-8.92,19.16-20,19.16S107,163.37,107,152.77s8.94-19.15,19.94-19.15S146.87,142.22,146.87,152.77Z"/><path class="cls-10" d="M134.79,152.76a7.88,7.88,0,1,1-7.89-7.53A7.73,7.73,0,0,1,134.79,152.76Z"/><rect class="cls-9" x="49.16" y="129.58" width="6.28" height="46.38"/><path class="cls-11" d="M87.46,95.48a4.41,4.41,0,0,0,3.85,2,5.23,5.23,0,0,0,3.77-1.37,5.35,5.35,0,0,0,4,1.67,6.25,6.25,0,0,0,4.27-1.46,6.35,6.35,0,0,0,3.92,1.27,7.4,7.4,0,0,0,4.54-1.36,6.25,6.25,0,0,0,4,1.36c5.6,0,6.8-4.43,6.8-4.43V83.07L87.46,89.14Z"/><path class="cls-12" d="M87.46,95.48a4.41,4.41,0,0,0,3.85,2,4.88,4.88,0,0,0,5-3.25"/><path class="cls-12" d="M95.08,96.08a5.37,5.37,0,0,0,4,1.67c4.86,0,5.91-3.85,5.91-3.85"/><path class="cls-12" d="M103.4,96.3a6.34,6.34,0,0,0,3.91,1.26c5.6,0,6.8-4.43,6.8-4.43"/><path class="cls-12" d="M111.85,96.21a6.31,6.31,0,0,0,4,1.35c5.6,0,6.8-4.43,6.8-4.43"/></g><path class="cls-13" d="M195.77,44.93H24.23A16.93,16.93,0,0,0,7.32,61.84V197.62a16.93,16.93,0,0,0,16.91,16.91H195.77a16.93,16.93,0,0,0,16.91-16.91V61.84A16.93,16.93,0,0,0,195.77,44.93Zm12.48,152.69a12.48,12.48,0,0,1-12.48,12.48H24.23a12.48,12.48,0,0,1-12.48-12.48V61.84A12.48,12.48,0,0,1,24.23,49.36H195.77a12.48,12.48,0,0,1,12.48,12.48Z"/><path class="cls-14" d="M103.73,13.54h4.78a.58.58,0,0,1,.59.59v4.78a.9.9,0,0,0,1.8,0V14.13a.58.58,0,0,1,.59-.59h4.78a.9.9,0,0,0,0-1.8h-4.78a.59.59,0,0,1-.59-.6V6.36a.9.9,0,0,0-1.8,0v4.78a.59.59,0,0,1-.59.6h-4.78a.9.9,0,1,0,0,1.8Z"/><polygon class="cls-13" points="127.41 60 127.41 54.68 132.46 54.68 132.46 49.36 137.51 49.36 137.51 44.93 132.46 44.93 132.46 39.61 127.41 39.61 127.41 34.29 92.59 34.29 92.59 39.61 87.54 39.61 87.54 44.93 82.49 44.93 82.49 49.36 87.54 49.36 87.54 54.68 92.59 54.68 92.59 60 127.41 60"/><polyline class="cls-12" points="100.02 54.09 100.02 48.77 119.98 48.77 119.98 54.09"/><line class="cls-12" x1="110" y1="48.77" x2="110" y2="54.09"/><polyline class="cls-12" points="100.02 45.52 100.02 40.21 119.98 40.21 119.98 45.52"/><line class="cls-12" x1="110" y1="40.21" x2="110" y2="45.52"/><polygon class="cls-13" points="218.95 127.51 212.68 127.51 212.68 121.25 208.25 121.25 208.25 127.51 201.99 127.51 201.99 131.95 208.25 131.95 208.25 138.21 212.68 138.21 212.68 131.95 218.95 131.95 218.95 127.51"/><polygon class="cls-13" points="18.02 127.51 11.75 127.51 11.75 121.25 7.32 121.25 7.32 127.51 1.05 127.51 1.05 131.95 7.32 131.95 7.32 138.21 11.75 138.21 11.75 131.95 18.02 131.95 18.02 127.51"/></svg>