<svg id="GRAPHICS" xmlns="http://www.w3.org/2000/svg" xmlns:xlink="http://www.w3.org/1999/xlink" viewBox="0 0 220 220"><defs><style>.cls-1,.cls-9{fill:none;}.cls-10,.cls-11,.cls-12,.cls-2,.cls-4,.cls-5,.cls-6,.cls-9{stroke:#000;stroke-linecap:round;stroke-linejoin:round;stroke-width:1.42px;}.cls-2{fill:url(#linear-gradient);}.cls-3{clip-path:url(#clip-path);}.cls-4{fill:#ff2547;}.cls-5{opacity:0.3;}.cls-6{fill:#36cb34;}.cls-10,.cls-7{fill:#fff2cc;}.cls-7{opacity:0.5;}.cls-8{fill:#8f1528;}.cls-12,.cls-13{fill:#00ff1b;}</style><linearGradient id="linear-gradient" x1="110" y1="210.1" x2="110" y2="49.36" gradientUnits="userSpaceOnUse"><stop offset="0" stop-color="#592bff"/><stop offset="1" stop-color="#9a33fb"/></linearGradient><clipPath id="clip-path"><rect class="cls-1" x="12.08" y="49.36" width="196.5" height="160.73" rx="12.48"/></clipPath></defs><rect class="cls-2" x="11.75" y="49.36" width="196.5" height="160.73" rx="12.48"/><g class="cls-3"><path class="cls-4" d="M112.29,222H66.4s-16.61-26.58-16.61-58.43c0-27.52,12.13-47.08,12.13-47.08H162.66s12.12,19.56,12.12,47.08c0,31.85-16.61,58.43-16.61,58.43H112.29"/><path class="cls-5" d="M68,131.39c2.79,0,5.39-1.58,7.45-3.16s4.23-3.13,7.47-3.13,5.39,1.57,7.45,3.13,4.66,3.16,7.45,3.16,5.4-1.58,7.46-3.16,4.22-3.13,7.45-3.13,5.4,1.57,7.46,3.13,4.66,3.16,7.46,3.16,5.39-1.58,7.45-3.16,4.23-3.13,7.45-3.13,5.4,1.57,7.47,3.13,4.66,3.16,7.45,3.16a9.9,9.9,0,0,0,9.15-5.8,70.39,70.39,0,0,0-4.45-9.09H61.39a62.88,62.88,0,0,0-3.4,6.66A10,10,0,0,0,68,131.39Z"/><path class="cls-6" d="M112.29,85.29c-30.41,0-55.07,9.74-55.07,32,0,6.45,5.17,9.52,10.33,9.52A14.29,14.29,0,0,0,75,124.2c2.07-1.29,4.24-2.58,7.47-2.58s5.39,1.29,7.45,2.58a14.33,14.33,0,0,0,7.45,2.61,14.33,14.33,0,0,0,7.46-2.61c2.06-1.29,4.23-2.58,7.46-2.58s5.39,1.29,7.45,2.58a14.36,14.36,0,0,0,7.46,2.61,14.29,14.29,0,0,0,7.45-2.61c2.06-1.29,4.23-2.58,7.45-2.58s5.4,1.29,7.47,2.58a14.33,14.33,0,0,0,7.45,2.61c5.16,0,10.33-3.07,10.33-9.52C167.35,95,142.7,85.29,112.29,85.29Z"/><path class="cls-7" d="M74.73,105a3.73,3.73,0,0,1-2.35-.8,2.41,2.41,0,0,1,0-3.86,35.1,35.1,0,0,1,5.81-3.79,52.87,52.87,0,0,1,9.49-3.75,3.53,3.53,0,0,1,4.23,1.64,2.62,2.62,0,0,1-2,3.48,45.31,45.31,0,0,0-8.17,3.23,28.25,28.25,0,0,0-4.7,3.06A3.69,3.69,0,0,1,74.73,105Z"/><path class="cls-8" d="M144.49,182.25a1.5,1.5,0,1,0,.45-2.08A1.51,1.51,0,0,0,144.49,182.25Z"/><path class="cls-8" d="M148.89,186.29a1.5,1.5,0,1,0,.45-2.08A1.5,1.5,0,0,0,148.89,186.29Z"/><path class="cls-8" d="M150.4,180.24a1.5,1.5,0,1,0,.45-2.08A1.5,1.5,0,0,0,150.4,180.24Z"/><polyline class="cls-6" points="117.56 92.73 117.56 78.01 107.88 78.01 107.88 92.73"/><circle class="cls-6" cx="112.72" cy="78.01" r="4.84"/><path class="cls-9" d="M127.22,182.34a32.21,32.21,0,0,1-23.43,3.45"/><path class="cls-9" d="M132.89,185.48a5.8,5.8,0,0,1-1.18,0,5.53,5.53,0,0,1-3.53-9.27"/><path class="cls-10" d="M150.29,153.57c0,9.88-8.31,17.85-18.6,17.85s-18.57-8-18.57-17.85,8.32-17.84,18.57-17.84S150.29,143.74,150.29,153.57Z"/><path class="cls-11" d="M141.05,153.56a9.35,9.35,0,1,1-9.37-8.95A9.17,9.17,0,0,1,141.05,153.56Z"/><path class="cls-10" d="M112.72,153.57c0,9.88-8.31,17.85-18.6,17.85s-18.58-8-18.58-17.85,8.33-17.84,18.58-17.84S112.72,143.74,112.72,153.57Z"/><path class="cls-11" d="M103.48,153.56a9.35,9.35,0,1,1-9.37-8.95A9.17,9.17,0,0,1,103.48,153.56Z"/><path class="cls-4" d="M113,174.6h-4.23a5.31,5.31,0,0,1,0-10.61H113"/></g><path class="cls-12" d="M195.77,44.93H24.23A16.93,16.93,0,0,0,7.32,61.84V197.62a16.93,16.93,0,0,0,16.91,16.91H195.77a16.93,16.93,0,0,0,16.91-16.91V61.84A16.93,16.93,0,0,0,195.77,44.93Zm12.48,152.69a12.48,12.48,0,0,1-12.48,12.48H24.23a12.48,12.48,0,0,1-12.48-12.48V61.84A12.48,12.48,0,0,1,24.23,49.36H195.77a12.48,12.48,0,0,1,12.48,12.48Z"/><path class="cls-13" d="M103.73,13.54h4.78a.58.58,0,0,1,.59.59v4.78a.9.9,0,0,0,1.8,0V14.13a.58.58,0,0,1,.59-.59h4.78a.9.9,0,0,0,0-1.8h-4.78a.59.59,0,0,1-.59-.6V6.36a.9.9,0,0,0-1.8,0v4.78a.59.59,0,0,1-.59.6h-4.78a.9.9,0,1,0,0,1.8Z"/><polygon class="cls-12" points="127.41 60 127.41 54.68 132.46 54.68 132.46 49.36 137.51 49.36 137.51 44.93 132.46 44.93 132.46 39.61 127.41 39.61 127.41 34.29 92.59 34.29 92.59 39.61 87.54 39.61 87.54 44.93 82.49 44.93 82.49 49.36 87.54 49.36 87.54 54.68 92.59 54.68 92.59 60 127.41 60"/><polyline class="cls-9" points="115.71 54.09 115.71 40.21 119.98 40.21 119.98 48.77 115.71 48.77"/><polyline class="cls-9" points="112.56 47.15 112.56 40.21 109.43 40.21 109.43 54.09"/><polyline class="cls-9" points="106.28 54.09 106.28 40.21 100.02 40.21 100.02 54.09"/><line class="cls-9" x1="103.15" y1="54.08" x2="103.15" y2="40.21"/><polygon class="cls-12" points="218.95 127.51 212.68 127.51 212.68 121.25 208.25 121.25 208.25 127.51 201.99 127.51 201.99 131.95 208.25 131.95 208.25 138.21 212.68 138.21 212.68 131.95 218.95 131.95 218.95 127.51"/><polygon class="cls-12" points="18.02 127.51 11.75 127.51 11.75 121.25 7.32 121.25 7.32 127.51 1.05 127.51 1.05 131.95 7.32 131.95 7.32 138.21 11.75 138.21 11.75 131.95 18.02 131.95 18.02 127.51"/></svg>