<svg id="GRAPHICS" xmlns="http://www.w3.org/2000/svg" viewBox="0 0 104 18"><defs><style>.cls-1{fill:#00ff1b;}</style></defs><path class="cls-1" d="M45.5,9.5h5.67a.33.33,0,0,1,.33.33V15.5a.5.5,0,0,0,1,0V9.83a.33.33,0,0,1,.33-.33H58.5a.5.5,0,0,0,0-1H52.83a.33.33,0,0,1-.33-.33V2.5a.5.5,0,0,0-1,0V8.17a.33.33,0,0,1-.33.33H45.5a.5.5,0,0,0,0,1Z"/><path class="cls-1" d="M71.63,8.5H83a.5.5,0,0,1,0,1H71.63a.5.5,0,0,1,0-1Z"/><path class="cls-1" d="M87.58,8.5h4.69a.5.5,0,0,1,0,1H87.58a.5.5,0,0,1,0-1Z"/><path class="cls-1" d="M96.89,8.5h2.35a.5.5,0,0,1,0,1H96.89a.5.5,0,0,1,0-1Z"/><path class="cls-1" d="M32.37,9.5H21a.5.5,0,0,1,0-1H32.37a.5.5,0,0,1,0,1Z"/><path class="cls-1" d="M16.42,9.5H11.73a.5.5,0,0,1,0-1h4.69a.5.5,0,0,1,0,1Z"/><path class="cls-1" d="M7.11,9.5H4.76a.5.5,0,0,1,0-1H7.11a.5.5,0,0,1,0,1Z"/></svg>