<?xml version="1.0" encoding="UTF-8"?><svg id="GUIDES" xmlns="http://www.w3.org/2000/svg" xmlns:xlink="http://www.w3.org/1999/xlink" viewBox="0 0 150 160"><defs><style>.cls-1,.cls-2,.cls-3,.cls-4,.cls-5,.cls-6,.cls-7,.cls-8,.cls-9,.cls-10,.cls-11{stroke-linecap:round;stroke-linejoin:round;stroke-width:.85px;}.cls-1,.cls-2,.cls-3,.cls-4,.cls-5,.cls-6,.cls-7,.cls-8,.cls-9,.cls-11{stroke:#000;}.cls-2{fill:#c71b3a;}.cls-3{fill:#dbd0af;}.cls-4{fill:#2bffb8;}.cls-5{fill:#ff6863;}.cls-6{fill:#ff224b;}.cls-7{fill:#fff2cc;}.cls-8{opacity:.3;}.cls-9{fill:url(#linear-gradient);}.cls-10{stroke:#ff224b;}.cls-10,.cls-11{fill:none;}</style><linearGradient id="linear-gradient" x1="75" y1="112.07" x2="75" y2="74.67" gradientUnits="userSpaceOnUse"><stop offset="0" stop-color="#ff224b"/><stop offset="1" stop-color="#ff674b"/></linearGradient></defs><g><path class="cls-7" d="M37.1,25.18c-1.57,0-2.83,1.27-2.83,2.83V121.39c0,1.57,1.27,2.83,2.83,2.83H112.9c1.57,0,2.83-1.27,2.83-2.83V41.19l-16.01-16.01H37.1Z"/><path class="cls-8" d="M104.98,43.61l10.76-2.42-16.01-16.01,2.42,15.59c.29,1.85,1.56,3.12,2.83,2.83Z"/><path class="cls-3" d="M102.56,41.19h13.17l-16.01-16.01v13.18c0,1.57,1.27,2.83,2.83,2.83Z"/></g><g><line class="cls-11" x1="46.87" y1="49.15" x2="62.12" y2="49.15"/><line class="cls-11" x1="46.87" y1="55.22" x2="56.78" y2="55.22"/><line class="cls-11" x1="46.87" y1="61.3" x2="62.44" y2="61.3"/><line class="cls-11" x1="46.87" y1="67.38" x2="55.53" y2="67.38"/><line class="cls-11" x1="58.11" y1="67.38" x2="66.77" y2="67.38"/></g><g><line class="cls-11" x1="66.77" y1="61.26" x2="75.18" y2="61.26"/><g><line class="cls-11" x1="80.44" y1="56.01" x2="75.18" y2="61.26"/><line class="cls-11" x1="80.44" y1="56.01" x2="90.53" y2="56.01"/><g><circle class="cls-1" cx="92.64" cy="56.01" r=".7"/><circle class="cls-11" cx="92.64" cy="56.01" r="2.11"/></g></g><g><line class="cls-11" x1="75.18" y1="61.26" x2="81.05" y2="61.26"/><g><circle class="cls-1" cx="83.16" cy="61.26" r=".7"/><circle class="cls-11" cx="83.16" cy="61.26" r="2.11"/></g></g><g><line class="cls-11" x1="75.82" y1="66.11" x2="70.98" y2="61.26"/><line class="cls-11" x1="75.82" y1="66.11" x2="86.13" y2="66.11"/><g><circle class="cls-1" cx="88.24" cy="66.11" r=".7"/><circle class="cls-11" cx="88.24" cy="66.11" r="2.11"/></g></g></g><g><path class="cls-6" d="M132.93,89.96h0l-9.54-9.54c2.67-4.29,2.15-10-1.58-13.73-4.35-4.35-11.39-4.35-15.74,0s-4.35,11.39,0,15.74c3.73,3.73,9.44,4.25,13.73,1.58l9.54,9.54h0c.99,.99,2.6,.99,3.59,0s.99-2.6,0-3.59Z"/><circle class="cls-4" cx="113.94" cy="74.55" r="7.48"/><g><line class="cls-11" x1="111.23" y1="71.85" x2="116.64" y2="77.26"/><line class="cls-11" x1="116.64" y1="71.85" x2="111.23" y2="77.26"/></g></g><g><path class="cls-9" d="M95.49,94.01c1.51-1.1,2.45-2.88,2.45-4.81,0-3.29-2.67-5.96-5.96-5.96-.46,0-.93,.06-1.37,.16,.01-.16,.02-.31,.02-.47,0-3.29-2.67-5.96-5.96-5.96-1.54,0-2.98,.59-4.07,1.6-.84-2.28-3.03-3.91-5.6-3.91s-4.76,1.63-5.6,3.91c-1.08-1.02-2.52-1.6-4.07-1.6-3.29,0-5.96,2.67-5.96,5.96,0,.16,0,.31,.02,.47-.45-.11-.91-.16-1.37-.16-3.29,0-5.96,2.67-5.96,5.96,0,1.93,.94,3.71,2.45,4.81-1.51,1.1-2.45,2.88-2.45,4.81,0,3.29,2.67,5.96,5.96,5.96,.64,0,1.26-.1,1.86-.3,0,.02,0,.04,0,.06,0,3.29,2.67,5.96,5.96,5.96,1.49,0,2.91-.56,3.99-1.53,1,1.83,2.91,3.04,5.06,3.1,.02,0,.04,0,.06,0h.1s.04,0,.06,0c2.15-.06,4.06-1.27,5.06-3.1,1.08,.98,2.49,1.53,3.99,1.53,3.29,0,5.96-2.67,5.96-5.96,0-.02,0-.04,0-.06,.59,.2,1.22,.3,1.86,.3,3.29,0,5.96-2.67,5.96-5.96,0-1.93-.94-3.71-2.45-4.81Z"/><g><path class="cls-2" d="M72.72,96.62c1.12,0,2.04-.91,2.04-2.04,0-.14,.11-.25,.25-.25s.25,.11,.25,.25c0,1.12,.91,2.04,2.04,2.04s2.04-.91,2.04-2.04c0-2.38-1.94-4.32-4.32-4.32s-4.32,1.94-4.32,4.32c0,1.12,.91,2.04,2.04,2.04Z"/><path class="cls-11" d="M77.28,94.58c0-1.26-1.02-2.28-2.28-2.28s-2.28,1.02-2.28,2.28"/></g><g><g><path class="cls-11" d="M75.4,79.95c.42-.42,1.04-.62,1.67-.48s1.05,.56,1.26,1.09c.42-.38,1.02-.56,1.61-.42,.6,.14,1.05,.56,1.26,1.09,.42-.38,1.02-.56,1.61-.42,.62,.14,1.09,.6,1.29,1.16"/><path class="cls-5" d="M82.89,80.83s-.04-.01-.07-.02c-.6-.14-1.19,.04-1.61,.42-.21-.53-.67-.95-1.26-1.09s-1.19,.04-1.61,.42c-.21-.53-.67-.95-1.26-1.09,0,0-.01,0-.02,0,.68-2.94,3.53-7.47,5.93-6.91,2.4,.55,.31,4.36-.09,8.26Z"/></g><g><path class="cls-11" d="M92.61,100.11c.08,.59-.12,1.21-.61,1.62s-1.08,.51-1.63,.37c.06,.57-.16,1.15-.62,1.55s-1.08,.51-1.63,.37c.06,.57-.16,1.15-.62,1.55s-1.13,.52-1.7,.34"/><path class="cls-5" d="M87.45,105.6s.04-.03,.06-.04c.47-.4,.68-.98,.62-1.55,.55,.15,1.16,.03,1.63-.37s.68-.98,.62-1.55c.55,.15,1.16,.03,1.63-.37,0,0,0,0,.01-.01,1.96,2.3,3.89,7.28,2.01,8.88s-3.69-2.35-6.58-5Z"/></g><g><path class="cls-11" d="M57.95,100.79c-.08,.59,.12,1.21,.61,1.62s1.08,.51,1.63,.37c-.06,.57,.16,1.15,.62,1.55s1.08,.51,1.63,.37c-.06,.57,.16,1.15,.62,1.55s1.13,.52,1.7,.34"/><path class="cls-5" d="M63.12,106.28s-.04-.03-.06-.04c-.47-.4-.68-.98-.62-1.55-.55,.15-1.16,.03-1.63-.37s-.68-.98-.62-1.55c-.55,.15-1.16,.03-1.63-.37,0,0,0,0-.01-.01-1.96,2.3-3.89,7.28-2.01,8.88s3.69-2.35,6.58-5Z"/></g><path class="cls-11" d="M75.6,100.97c-.31,.45-.84,.75-1.43,.75s-1.12-.3-1.43-.75c-.31,.45-.84,.75-1.43,.75s-1.16-.33-1.47-.81"/><path class="cls-11" d="M83.24,103.37c-.31,.45-.84,.75-1.43,.75s-1.16-.33-1.47-.81"/><path class="cls-11" d="M69.28,84.08c.24-.5,.71-.88,1.29-.98s1.2,.13,1.59,.57"/></g><g><circle class="cls-7" cx="63.56" cy="92.94" r="5.04"/><g><line class="cls-1" x1="65" y1="91.5" x2="62.12" y2="94.38"/><line class="cls-1" x1="65" y1="94.38" x2="62.12" y2="91.5"/></g></g><g><circle class="cls-7" cx="86.44" cy="92.94" r="5.04"/><g><line class="cls-1" x1="87.88" y1="91.5" x2="85" y2="94.38"/><line class="cls-1" x1="87.88" y1="94.38" x2="85" y2="91.5"/></g></g></g><g><line class="cls-11" x1="46.87" y1="43.07" x2="67.33" y2="43.07"/><g><g><rect class="cls-11" x="55.29" y="35.58" width="3.61" height="4.49"/><line class="cls-11" x1="58.91" y1="35.58" x2="55.29" y2="40.07"/></g><g><line class="cls-11" x1="53.08" y1="35.58" x2="53.08" y2="40.07"/><polyline class="cls-11" points="53.08 37.82 49.88 37.82 49.88 35.58"/></g><g><line class="cls-11" x1="64.32" y1="35.58" x2="64.32" y2="40.07"/><polyline class="cls-11" points="64.32 37.82 61.13 37.82 61.13 35.58"/></g></g></g><g><g><line class="cls-10" x1="79.36" y1="151.7" x2="82.41" y2="151.7"/><line class="cls-10" x1="73.47" y1="151.7" x2="76.53" y2="151.7"/><line class="cls-10" x1="67.59" y1="151.7" x2="70.64" y2="151.7"/></g><polyline class="cls-10" points="84.31 153.81 86.41 151.7 84.31 149.6"/><polyline class="cls-10" points="65.69 149.6 63.59 151.7 65.69 153.81"/></g><g><path class="cls-6" d="M137.44,128.55H12.56c-3.91,0-7.09,3.17-7.09,7.09s3.17,7.09,7.09,7.09h124.88c3.91,0,7.09-3.17,7.09-7.09s-3.17-7.09-7.09-7.09Z"/><g><g><rect class="cls-11" x="25.76" y="132.61" width="4.88" height="6.06"/><polyline class="cls-11" points="17.97 138.67 17.97 132.61 22.85 138.67 22.85 132.61"/></g><g><rect class="cls-11" x="103.76" y="132.61" width="4.88" height="6.06"/><polyline class="cls-11" points="111.56 132.61 111.56 138.67 116.44 138.67 116.44 132.61"/><polygon class="cls-11" points="129.93 132.61 127.15 132.61 127.15 138.67 132.03 138.67 132.03 134.7 129.93 132.61"/><polyline class="cls-11" points="119.35 138.67 119.35 132.61 124.24 138.67 124.24 132.61"/><line class="cls-11" x1="95.96" y1="132.61" x2="95.96" y2="138.67"/><line class="cls-11" x1="95.96" y1="132.61" x2="100.84" y2="132.61"/><line class="cls-11" x1="95.96" y1="135.64" x2="100.84" y2="135.64"/></g><g><polyline class="cls-11" points="80.36 138.67 80.36 132.61 85.24 138.67 85.24 132.61"/><polyline class="cls-11" points="46.24 132.61 41.36 132.61 41.36 135.64 46.24 135.64 46.24 138.67 41.36 138.67"/><line class="cls-11" x1="54.04" y1="132.61" x2="49.16" y2="132.61"/><line class="cls-11" x1="51.6" y1="132.61" x2="51.6" y2="138.67"/><line class="cls-11" x1="75" y1="132.61" x2="75" y2="138.67"/><polyline class="cls-11" points="56.96 138.67 56.96 132.61 61.84 132.61 61.84 135.64 56.96 135.64"/><line class="cls-11" x1="59.66" y1="135.64" x2="61.84" y2="138.67"/><polyline class="cls-11" points="64.76 138.67 64.76 132.61 69.64 132.61 69.64 138.67"/><line class="cls-11" x1="64.76" y1="135.64" x2="69.64" y2="135.64"/><line class="cls-11" x1="72.56" y1="132.61" x2="77.44" y2="132.61"/><line class="cls-11" x1="72.56" y1="138.67" x2="77.44" y2="138.67"/></g></g></g><g><circle class="cls-6" cx="75" cy="13.52" r="7.33"/><g><line class="cls-1" x1="77.68" y1="10.85" x2="72.32" y2="16.2"/><line class="cls-1" x1="77.68" y1="16.2" x2="72.32" y2="10.85"/></g></g></svg>