<?xml version="1.0" encoding="UTF-8"?><svg id="GRAPHICS" xmlns="http://www.w3.org/2000/svg" viewBox="0 0 320 4"><defs><style>.cls-1{fill:#00ff1b;}</style></defs><path class="cls-1" d="M292.72,2.55H27.28c-.31,0-.56-.25-.56-.55s.25-.55,.56-.55H292.72c.31,0,.56,.25,.56,.55s-.25,.55-.56,.55Z"/><path class="cls-1" d="M304.91,2.55h-6.59c-.31,0-.56-.25-.56-.55s.25-.55,.56-.55h6.59c.31,0,.56,.25,.56,.55s-.25,.55-.56,.55Z"/><path class="cls-1" d="M314.64,2.55h-4.12c-.31,0-.56-.25-.56-.55s.25-.55,.56-.55h4.12c.31,0,.56,.25,.56,.55s-.25,.55-.56,.55Z"/><path class="cls-1" d="M15.09,1.45h6.59c.31,0,.56,.25,.56,.55s-.25,.55-.56,.55h-6.59c-.31,0-.56-.25-.56-.55s.25-.55,.56-.55Z"/><path class="cls-1" d="M5.36,1.45h4.12c.31,0,.56,.25,.56,.55s-.25,.55-.56,.55H5.36c-.31,0-.56-.25-.56-.55s.25-.55,.56-.55Z"/></svg>