<?xml version="1.0" encoding="UTF-8"?><svg id="GRAPHICS" xmlns="http://www.w3.org/2000/svg" viewBox="0 0 90 60"><defs><style>.cls-1{fill:#fff2cc;}.cls-1,.cls-2,.cls-3,.cls-4{stroke:#000;stroke-linecap:round;stroke-linejoin:round;stroke-width:1.28px;}.cls-2{fill:#00ff1b;}.cls-4{fill:none;}</style></defs><g><path class="cls-2" d="M56.7,16.71c-3.13-3.13-7.28-4.85-11.7-4.85s-8.58,1.72-11.7,4.85c-3.13,3.13-4.85,7.28-4.85,11.7,0,1.03,.1,2.08,.3,3.12,0,.03,.01,.07,.02,.1,.21,1.04,.52,2.09,.94,3.1,.42,1,.93,1.97,1.53,2.86l12.23,18.3c.34,.51,.91,.82,1.53,.82s1.19-.31,1.53-.82l12.23-18.3c.59-.89,1.11-1.85,1.53-2.86,.41-1,.73-2.04,.94-3.1,.21-1.06,.32-2.15,.32-3.23,0-4.42-1.72-8.58-4.85-11.7Z"/><g><path class="cls-1" d="M45,18c-2.67,0-5.09,1.08-6.84,2.83-1.75,1.75-2.83,4.17-2.83,6.84s1.08,5.09,2.83,6.84c1.75,1.75,4.17,2.83,6.84,2.83s5.09-1.08,6.84-2.83c1.75-1.75,2.83-4.17,2.83-6.84s-1.08-5.09-2.83-6.84c-1.75-1.75-4.17-2.83-6.84-2.83Z"/><line class="cls-4" x1="45" y1="31.48" x2="45" y2="23.87"/><line class="cls-4" x1="41.19" y1="27.68" x2="48.8" y2="27.68"/></g></g><g><g><circle class="cls-1" cx="51.33" cy="9.6" r="6.33"/><circle class="cls-3" cx="51.33" cy="9.6" r="2.26"/></g><g><circle class="cls-1" cx="38.67" cy="9.6" r="6.33"/><circle class="cls-3" cx="38.67" cy="9.6" r="2.26"/></g></g></svg>