<svg id="GRAPHICS" xmlns="http://www.w3.org/2000/svg" xmlns:xlink="http://www.w3.org/1999/xlink" viewBox="0 0 130 1440"><defs><style>.cls-1{fill:url(#linear-gradient);}.cls-2,.cls-8{fill:#00ff1b;}.cls-2,.cls-3,.cls-4,.cls-5,.cls-6,.cls-7{stroke:#000;stroke-linecap:round;stroke-linejoin:round;}.cls-2,.cls-3,.cls-4,.cls-5,.cls-6{stroke-width:1.28px;}.cls-3{fill:#fff2cc;}.cls-4{fill:none;}.cls-6,.cls-7,.cls-9{fill:#592bff;}.cls-7{stroke-width:0.85px;}.cls-10{fill:#0f9;}.cls-11{fill:aqua;}.cls-12{fill:#07f;}</style><linearGradient id="linear-gradient" x1="65" y1="1348.25" x2="65" y2="91.25" gradientUnits="userSpaceOnUse"><stop offset="0.19" stop-color="#592bff"/><stop offset="0.23" stop-color="#07f"/><stop offset="0.36" stop-color="#0087ff"/><stop offset="0.43" stop-color="aqua"/><stop offset="0.58" stop-color="aqua"/><stop offset="0.63" stop-color="#0f9"/><stop offset="0.79" stop-color="#00ff86"/><stop offset="0.82" stop-color="#00ff1b"/><stop offset="1" stop-color="#00ff1b"/></linearGradient></defs><path class="cls-1" d="M65,1001.25a.5.5,0,0,0-.5.5v3a.5.5,0,0,0,1,0v-3A.5.5,0,0,0,65,1001.25Zm0-35a.5.5,0,0,0-.5.5v3a.5.5,0,0,0,1,0v-3A.5.5,0,0,0,65,966.25Zm0,21a.5.5,0,0,0-.5.5v3a.5.5,0,0,0,1,0v-3A.5.5,0,0,0,65,987.25Zm0,7a.5.5,0,0,0-.5.5v3a.5.5,0,0,0,1,0v-3A.5.5,0,0,0,65,994.25Zm0-14a.5.5,0,0,0-.5.5v3a.5.5,0,0,0,1,0v-3A.5.5,0,0,0,65,980.25Zm0-7a.5.5,0,0,0-.5.5v3a.5.5,0,0,0,1,0v-3A.5.5,0,0,0,65,973.25Zm0-42a.5.5,0,0,0-.5.5v3a.5.5,0,0,0,1,0v-3A.5.5,0,0,0,65,931.25Zm0,7a.5.5,0,0,0-.5.5v3a.5.5,0,0,0,1,0v-3A.5.5,0,0,0,65,938.25Zm0,21a.5.5,0,0,0-.5.5v3a.5.5,0,0,0,1,0v-3A.5.5,0,0,0,65,959.25Zm0-7a.5.5,0,0,0-.5.5v3a.5.5,0,0,0,1,0v-3A.5.5,0,0,0,65,952.25Zm0-7a.5.5,0,0,0-.5.5v3a.5.5,0,0,0,1,0v-3A.5.5,0,0,0,65,945.25Zm0-21a.5.5,0,0,0-.5.5v3a.5.5,0,0,0,1,0v-3A.5.5,0,0,0,65,924.25Zm0,133a.5.5,0,0,0-.5.5v3a.5.5,0,0,0,1,0v-3A.5.5,0,0,0,65,1057.25Zm0,7a.5.5,0,0,0-.5.5v3a.5.5,0,0,0,1,0v-3A.5.5,0,0,0,65,1064.25Zm0,14a.5.5,0,0,0-.5.5v3a.5.5,0,0,0,1,0v-3A.5.5,0,0,0,65,1078.25Zm0-28a.5.5,0,0,0-.5.5v3a.5.5,0,0,0,1,0v-3A.5.5,0,0,0,65,1050.25Zm0,21a.5.5,0,0,0-.5.5v3a.5.5,0,0,0,1,0v-3A.5.5,0,0,0,65,1071.25Zm0-56a.5.5,0,0,0-.5.5v3a.5.5,0,0,0,1,0v-3A.5.5,0,0,0,65,1015.25Zm0,28a.5.5,0,0,0-.5.5v3a.5.5,0,0,0,1,0v-3A.5.5,0,0,0,65,1043.25Zm0-21a.5.5,0,0,0-.5.5v3a.5.5,0,0,0,1,0v-3A.5.5,0,0,0,65,1022.25Zm0-14a.5.5,0,0,0-.5.5v3a.5.5,0,0,0,1,0v-3A.5.5,0,0,0,65,1008.25Zm0,28a.5.5,0,0,0-.5.5v3a.5.5,0,0,0,1,0v-3A.5.5,0,0,0,65,1036.25Zm0-7a.5.5,0,0,0-.5.5v3a.5.5,0,0,0,1,0v-3A.5.5,0,0,0,65,1029.25Zm0-112a.5.5,0,0,0-.5.5v3a.5.5,0,0,0,1,0v-3A.5.5,0,0,0,65,917.25Zm0-119a.5.5,0,0,0-.5.5v3a.5.5,0,0,0,1,0v-3A.5.5,0,0,0,65,798.25Zm0,14a.5.5,0,0,0-.5.5v3a.5.5,0,0,0,1,0v-3A.5.5,0,0,0,65,812.25Zm0-7a.5.5,0,0,0-.5.5v3a.5.5,0,0,0,1,0v-3A.5.5,0,0,0,65,805.25Zm0,21a.5.5,0,0,0-.5.5v3a.5.5,0,0,0,1,0v-3A.5.5,0,0,0,65,826.25Zm0,7a.5.5,0,0,0-.5.5v3a.5.5,0,0,0,1,0v-3A.5.5,0,0,0,65,833.25Zm0-14a.5.5,0,0,0-.5.5v3a.5.5,0,0,0,1,0v-3A.5.5,0,0,0,65,819.25Zm0-49a.5.5,0,0,0-.5.5v3a.5.5,0,0,0,1,0v-3A.5.5,0,0,0,65,770.25Zm0,21a.5.5,0,0,0-.5.5v3a.5.5,0,0,0,1,0v-3A.5.5,0,0,0,65,791.25Zm0-28a.5.5,0,0,0-.5.5v3a.5.5,0,0,0,1,0v-3A.5.5,0,0,0,65,763.25Zm0,21a.5.5,0,0,0-.5.5v3a.5.5,0,0,0,1,0v-3A.5.5,0,0,0,65,784.25Zm0-7a.5.5,0,0,0-.5.5v3a.5.5,0,0,0,1,0v-3A.5.5,0,0,0,65,777.25Zm0,308a.5.5,0,0,0-.5.5v3a.5.5,0,0,0,1,0v-3A.5.5,0,0,0,65,1085.25Zm0-196a.5.5,0,0,0-.5.5v3a.5.5,0,0,0,1,0v-3A.5.5,0,0,0,65,889.25Zm0,7a.5.5,0,0,0-.5.5v3a.5.5,0,0,0,1,0v-3A.5.5,0,0,0,65,896.25Zm0-14a.5.5,0,0,0-.5.5v3a.5.5,0,0,0,1,0v-3A.5.5,0,0,0,65,882.25Zm0,21a.5.5,0,0,0-.5.5v3a.5.5,0,0,0,1,0v-3A.5.5,0,0,0,65,903.25Zm0,7a.5.5,0,0,0-.5.5v3a.5.5,0,0,0,1,0v-3A.5.5,0,0,0,65,910.25Zm0-63a.5.5,0,0,0-.5.5v3a.5.5,0,0,0,1,0v-3A.5.5,0,0,0,65,847.25Zm0,7a.5.5,0,0,0-.5.5v3a.5.5,0,0,0,1,0v-3A.5.5,0,0,0,65,854.25Zm0-14a.5.5,0,0,0-.5.5v3a.5.5,0,0,0,1,0v-3A.5.5,0,0,0,65,840.25Zm0,21a.5.5,0,0,0-.5.5v3a.5.5,0,0,0,1,0v-3A.5.5,0,0,0,65,861.25Zm0,7a.5.5,0,0,0-.5.5v3a.5.5,0,0,0,1,0v-3A.5.5,0,0,0,65,868.25Zm0,7a.5.5,0,0,0-.5.5v3a.5.5,0,0,0,1,0v-3A.5.5,0,0,0,65,875.25Zm0,357a.5.5,0,0,0-.5.5v3a.5.5,0,0,0,1,0v-3A.5.5,0,0,0,65,1232.25Zm0,63a.5.5,0,0,0-.5.5v3a.5.5,0,0,0,1,0v-3A.5.5,0,0,0,65,1295.25Zm0,14a.5.5,0,0,0-.5.5v3a.5.5,0,0,0,1,0v-3A.5.5,0,0,0,65,1309.25Zm0-56a.5.5,0,0,0-.5.5v3a.5.5,0,0,0,1,0v-3A.5.5,0,0,0,65,1253.25Zm0,63a.5.5,0,0,0-.5.5v3a.5.5,0,0,0,1,0v-3A.5.5,0,0,0,65,1316.25Zm0,7a.5.5,0,0,0-.5.5v3a.5.5,0,0,0,1,0v-3A.5.5,0,0,0,65,1323.25Zm0-42a.5.5,0,0,0-.5.5v3a.5.5,0,0,0,1,0v-3A.5.5,0,0,0,65,1281.25Zm0-14a.5.5,0,0,0-.5.5v3a.5.5,0,0,0,1,0v-3A.5.5,0,0,0,65,1267.25Zm0-7a.5.5,0,0,0-.5.5v3a.5.5,0,0,0,1,0v-3A.5.5,0,0,0,65,1260.25Zm0,28a.5.5,0,0,0-.5.5v3a.5.5,0,0,0,1,0v-3A.5.5,0,0,0,65,1288.25Zm0-14a.5.5,0,0,0-.5.5v3a.5.5,0,0,0,1,0v-3A.5.5,0,0,0,65,1274.25Zm0,56a.5.5,0,0,0-.5.5v3a.5.5,0,0,0,1,0v-3A.5.5,0,0,0,65,1330.25Zm0-28a.5.5,0,0,0-.5.5v3a.5.5,0,0,0,1,0v-3A.5.5,0,0,0,65,1302.25Zm0,35a.5.5,0,0,0-.5.5v3a.5.5,0,0,0,1,0v-3A.5.5,0,0,0,65,1337.25Zm0,7a.5.5,0,0,0-.5.5v3a.5.5,0,0,0,1,0v-3A.5.5,0,0,0,65,1344.25Zm0-252a.5.5,0,0,0-.5.5v3a.5.5,0,0,0,1,0v-3A.5.5,0,0,0,65,1092.25Zm0,49a.5.5,0,0,0-.5.5v3a.5.5,0,0,0,1,0v-3A.5.5,0,0,0,65,1141.25Zm0,7a.5.5,0,0,0-.5.5v3a.5.5,0,0,0,1,0v-3A.5.5,0,0,0,65,1148.25Zm0,98a.5.5,0,0,0-.5.5v3a.5.5,0,0,0,1,0v-3A.5.5,0,0,0,65,1246.25Zm0-112a.5.5,0,0,0-.5.5v3a.5.5,0,0,0,1,0v-3A.5.5,0,0,0,65,1134.25Zm0,28a.5.5,0,0,0-.5.5v3a.5.5,0,0,0,1,0v-3A.5.5,0,0,0,65,1162.25Zm0,7a.5.5,0,0,0-.5.5v3a.5.5,0,0,0,1,0v-3A.5.5,0,0,0,65,1169.25Zm0-70a.5.5,0,0,0-.5.5v3a.5.5,0,0,0,1,0v-3A.5.5,0,0,0,65,1099.25Zm0,7a.5.5,0,0,0-.5.5v3a.5.5,0,0,0,1,0v-3A.5.5,0,0,0,65,1106.25Zm0,21a.5.5,0,0,0-.5.5v3a.5.5,0,0,0,1,0v-3A.5.5,0,0,0,65,1127.25Zm0-14a.5.5,0,0,0-.5.5v3a.5.5,0,0,0,1,0v-3A.5.5,0,0,0,65,1113.25Zm0,7a.5.5,0,0,0-.5.5v3a.5.5,0,0,0,1,0v-3A.5.5,0,0,0,65,1120.25Zm0,35a.5.5,0,0,0-.5.5v3a.5.5,0,0,0,1,0v-3A.5.5,0,0,0,65,1155.25Zm0,56a.5.5,0,0,0-.5.5v3a.5.5,0,0,0,1,0v-3A.5.5,0,0,0,65,1211.25Zm0,7a.5.5,0,0,0-.5.5v3a.5.5,0,0,0,1,0v-3A.5.5,0,0,0,65,1218.25Zm0,7a.5.5,0,0,0-.5.5v3a.5.5,0,0,0,1,0v-3A.5.5,0,0,0,65,1225.25Zm0-469a.5.5,0,0,0-.5.5v3a.5.5,0,0,0,1,0v-3A.5.5,0,0,0,65,756.25Zm0,483a.5.5,0,0,0-.5.5v3a.5.5,0,0,0,1,0v-3A.5.5,0,0,0,65,1239.25Zm0-49a.5.5,0,0,0-.5.5v3a.5.5,0,0,0,1,0v-3A.5.5,0,0,0,65,1190.25Zm0-7a.5.5,0,0,0-.5.5v3a.5.5,0,0,0,1,0v-3A.5.5,0,0,0,65,1183.25Zm0-7a.5.5,0,0,0-.5.5v3a.5.5,0,0,0,1,0v-3A.5.5,0,0,0,65,1176.25Zm0,28a.5.5,0,0,0-.5.5v3a.5.5,0,0,0,1,0v-3A.5.5,0,0,0,65,1204.25Zm0-7a.5.5,0,0,0-.5.5v3a.5.5,0,0,0,1,0v-3A.5.5,0,0,0,65,1197.25Zm0-889a.5.5,0,0,0-.5.5v3a.5.5,0,0,0,1,0v-3A.5.5,0,0,0,65,308.25Zm0,441a.5.5,0,0,0-.5.5v3a.5.5,0,0,0,1,0v-3A.5.5,0,0,0,65,749.25Zm0-434a.5.5,0,0,0-.5.5v3a.5.5,0,0,0,1,0v-3A.5.5,0,0,0,65,315.25Zm0,14a.5.5,0,0,0-.5.5v3a.5.5,0,0,0,1,0v-3A.5.5,0,0,0,65,329.25Zm0-35a.5.5,0,0,0-.5.5v3a.5.5,0,0,0,1,0v-3A.5.5,0,0,0,65,294.25Zm0,28a.5.5,0,0,0-.5.5v3a.5.5,0,0,0,1,0v-3A.5.5,0,0,0,65,322.25Zm0-35a.5.5,0,0,0-.5.5v3a.5.5,0,0,0,1,0v-3A.5.5,0,0,0,65,287.25Zm0-28a.5.5,0,0,0-.5.5v3a.5.5,0,0,0,1,0v-3A.5.5,0,0,0,65,259.25Zm0,7a.5.5,0,0,0-.5.5v3a.5.5,0,0,0,1,0v-3A.5.5,0,0,0,65,266.25Zm0,14a.5.5,0,0,0-.5.5v3a.5.5,0,0,0,1,0v-3A.5.5,0,0,0,65,280.25Zm0-28a.5.5,0,0,0-.5.5v3a.5.5,0,0,0,1,0v-3A.5.5,0,0,0,65,252.25Zm0,21a.5.5,0,0,0-.5.5v3a.5.5,0,0,0,1,0v-3A.5.5,0,0,0,65,273.25Zm0,105a.5.5,0,0,0-.5.5v3a.5.5,0,0,0,1,0v-3A.5.5,0,0,0,65,378.25Zm0,7a.5.5,0,0,0-.5.5v3a.5.5,0,0,0,1,0v-3A.5.5,0,0,0,65,385.25Zm0-49a.5.5,0,0,0-.5.5v3a.5.5,0,0,0,1,0v-3A.5.5,0,0,0,65,336.25Zm0,63a.5.5,0,0,0-.5.5v3a.5.5,0,0,0,1,0v-3A.5.5,0,0,0,65,399.25Zm0,7a.5.5,0,0,0-.5.5v3a.5.5,0,0,0,1,0v-3A.5.5,0,0,0,65,406.25Zm0-14a.5.5,0,0,0-.5.5v3a.5.5,0,0,0,1,0v-3A.5.5,0,0,0,65,392.25Zm0-42a.5.5,0,0,0-.5.5v3a.5.5,0,0,0,1,0v-3A.5.5,0,0,0,65,350.25Zm0-7a.5.5,0,0,0-.5.5v3a.5.5,0,0,0,1,0v-3A.5.5,0,0,0,65,343.25Zm0,28a.5.5,0,0,0-.5.5v3a.5.5,0,0,0,1,0v-3A.5.5,0,0,0,65,371.25Zm0-7a.5.5,0,0,0-.5.5v3a.5.5,0,0,0,1,0v-3A.5.5,0,0,0,65,364.25Zm0-7a.5.5,0,0,0-.5.5v3a.5.5,0,0,0,1,0v-3A.5.5,0,0,0,65,357.25Zm0-119a.5.5,0,0,0-.5.5v3a.5.5,0,0,0,1,0v-3A.5.5,0,0,0,65,238.25Zm0-105a.5.5,0,0,0-.5.5v3a.5.5,0,0,0,1,0v-3A.5.5,0,0,0,65,133.25Zm0-7a.5.5,0,0,0-.5.5v3a.5.5,0,0,0,1,0v-3A.5.5,0,0,0,65,126.25Zm0,14a.5.5,0,0,0-.5.5v3a.5.5,0,0,0,1,0v-3A.5.5,0,0,0,65,140.25Zm0,14a.5.5,0,0,0-.5.5v3a.5.5,0,0,0,1,0v-3A.5.5,0,0,0,65,154.25Zm0-7a.5.5,0,0,0-.5.5v3a.5.5,0,0,0,1,0v-3A.5.5,0,0,0,65,147.25Zm0-49a.5.5,0,0,0-.5.5v3a.5.5,0,0,0,1,0v-3A.5.5,0,0,0,65,98.25Zm0,63a.5.5,0,0,0-.5.5v3a.5.5,0,0,0,1,0v-3A.5.5,0,0,0,65,161.25Zm0-70a.5.5,0,0,0-.5.5v3a.5.5,0,0,0,1,0v-3A.5.5,0,0,0,65,91.25Zm0,14a.5.5,0,0,0-.5.5v3a.5.5,0,0,0,1,0v-3A.5.5,0,0,0,65,105.25Zm0,14a.5.5,0,0,0-.5.5v3a.5.5,0,0,0,1,0v-3A.5.5,0,0,0,65,119.25Zm0-7a.5.5,0,0,0-.5.5v3a.5.5,0,0,0,1,0v-3A.5.5,0,0,0,65,112.25Zm0,105a.5.5,0,0,0-.5.5v3a.5.5,0,0,0,1,0v-3A.5.5,0,0,0,65,217.25Zm0,28a.5.5,0,0,0-.5.5v3a.5.5,0,0,0,1,0v-3A.5.5,0,0,0,65,245.25Zm0-21a.5.5,0,0,0-.5.5v3a.5.5,0,0,0,1,0v-3A.5.5,0,0,0,65,224.25Zm0,7a.5.5,0,0,0-.5.5v3a.5.5,0,0,0,1,0v-3A.5.5,0,0,0,65,231.25Zm0,182a.5.5,0,0,0-.5.5v3a.5.5,0,0,0,1,0v-3A.5.5,0,0,0,65,413.25Zm0-203a.5.5,0,0,0-.5.5v3a.5.5,0,0,0,1,0v-3A.5.5,0,0,0,65,210.25Zm0-35a.5.5,0,0,0-.5.5v3a.5.5,0,0,0,1,0v-3A.5.5,0,0,0,65,175.25Zm0,28a.5.5,0,0,0-.5.5v3a.5.5,0,0,0,1,0v-3A.5.5,0,0,0,65,203.25Zm0-21a.5.5,0,0,0-.5.5v3a.5.5,0,0,0,1,0v-3A.5.5,0,0,0,65,182.25Zm0-14a.5.5,0,0,0-.5.5v3a.5.5,0,0,0,1,0v-3A.5.5,0,0,0,65,168.25Zm0,28a.5.5,0,0,0-.5.5v3a.5.5,0,0,0,1,0v-3A.5.5,0,0,0,65,196.25Zm0-7a.5.5,0,0,0-.5.5v3a.5.5,0,0,0,1,0v-3A.5.5,0,0,0,65,189.25Zm0,112a.5.5,0,0,0-.5.5v3a.5.5,0,0,0,1,0v-3A.5.5,0,0,0,65,301.25Zm0,336a.5.5,0,0,0-.5.5v3a.5.5,0,0,0,1,0v-3A.5.5,0,0,0,65,637.25Zm0-7a.5.5,0,0,0-.5.5v3a.5.5,0,0,0,1,0v-3A.5.5,0,0,0,65,630.25Zm0,14a.5.5,0,0,0-.5.5v3a.5.5,0,0,0,1,0v-3A.5.5,0,0,0,65,644.25Zm0,14a.5.5,0,0,0-.5.5v3a.5.5,0,0,0,1,0v-3A.5.5,0,0,0,65,658.25Zm0-7a.5.5,0,0,0-.5.5v3a.5.5,0,0,0,1,0v-3A.5.5,0,0,0,65,651.25Zm0-42a.5.5,0,0,0-.5.5v3a.5.5,0,0,0,1,0v-3A.5.5,0,0,0,65,609.25Zm0-14a.5.5,0,0,0-.5.5v3a.5.5,0,0,0,1,0v-3A.5.5,0,0,0,65,595.25Zm0,7a.5.5,0,0,0-.5.5v3a.5.5,0,0,0,1,0v-3A.5.5,0,0,0,65,602.25Zm0,63a.5.5,0,0,0-.5.5v3a.5.5,0,0,0,1,0v-3A.5.5,0,0,0,65,665.25Zm0-42a.5.5,0,0,0-.5.5v3a.5.5,0,0,0,1,0v-3A.5.5,0,0,0,65,623.25Zm0-7a.5.5,0,0,0-.5.5v3a.5.5,0,0,0,1,0v-3A.5.5,0,0,0,65,616.25Zm0,91a.5.5,0,0,0-.5.5v3a.5.5,0,0,0,1,0v-3A.5.5,0,0,0,65,707.25Zm0,21a.5.5,0,0,0-.5.5v3a.5.5,0,0,0,1,0v-3A.5.5,0,0,0,65,728.25Zm0-7a.5.5,0,0,0-.5.5v3a.5.5,0,0,0,1,0v-3A.5.5,0,0,0,65,721.25Zm0-7a.5.5,0,0,0-.5.5v3a.5.5,0,0,0,1,0v-3A.5.5,0,0,0,65,714.25Zm0,28a.5.5,0,0,0-.5.5v3a.5.5,0,0,0,1,0v-3A.5.5,0,0,0,65,742.25Zm0-7a.5.5,0,0,0-.5.5v3a.5.5,0,0,0,1,0v-3A.5.5,0,0,0,65,735.25Zm0-147a.5.5,0,0,0-.5.5v3a.5.5,0,0,0,1,0v-3A.5.5,0,0,0,65,588.25Zm0,98a.5.5,0,0,0-.5.5v3a.5.5,0,0,0,1,0v-3A.5.5,0,0,0,65,686.25Zm0-7a.5.5,0,0,0-.5.5v3a.5.5,0,0,0,1,0v-3A.5.5,0,0,0,65,679.25Zm0,14a.5.5,0,0,0-.5.5v3a.5.5,0,0,0,1,0v-3A.5.5,0,0,0,65,693.25Zm0-21a.5.5,0,0,0-.5.5v3a.5.5,0,0,0,1,0v-3A.5.5,0,0,0,65,672.25Zm0,28a.5.5,0,0,0-.5.5v3a.5.5,0,0,0,1,0v-3A.5.5,0,0,0,65,700.25Zm0-161a.5.5,0,0,0-.5.5v3a.5.5,0,0,0,1,0v-3A.5.5,0,0,0,65,539.25Zm0-77a.5.5,0,0,0-.5.5v3a.5.5,0,0,0,1,0v-3A.5.5,0,0,0,65,462.25Zm0,7a.5.5,0,0,0-.5.5v3a.5.5,0,0,0,1,0v-3A.5.5,0,0,0,65,469.25Zm0,7a.5.5,0,0,0-.5.5v3a.5.5,0,0,0,1,0v-3A.5.5,0,0,0,65,476.25Zm0,14a.5.5,0,0,0-.5.5v3a.5.5,0,0,0,1,0v-3A.5.5,0,0,0,65,490.25Zm0,7a.5.5,0,0,0-.5.5v3a.5.5,0,0,0,1,0v-3A.5.5,0,0,0,65,497.25Zm0-14a.5.5,0,0,0-.5.5v3a.5.5,0,0,0,1,0v-3A.5.5,0,0,0,65,483.25Zm0,98a.5.5,0,0,0-.5.5v3a.5.5,0,0,0,1,0v-3A.5.5,0,0,0,65,581.25Zm0-154a.5.5,0,0,0-.5.5v3a.5.5,0,0,0,1,0v-3A.5.5,0,0,0,65,427.25Zm0,7a.5.5,0,0,0-.5.5v3a.5.5,0,0,0,1,0v-3A.5.5,0,0,0,65,434.25Zm0,7a.5.5,0,0,0-.5.5v3a.5.5,0,0,0,1,0v-3A.5.5,0,0,0,65,441.25Zm0,7a.5.5,0,0,0-.5.5v3a.5.5,0,0,0,1,0v-3A.5.5,0,0,0,65,448.25Zm0,7a.5.5,0,0,0-.5.5v3a.5.5,0,0,0,1,0v-3A.5.5,0,0,0,65,455.25Zm0,105a.5.5,0,0,0-.5.5v3a.5.5,0,0,0,1,0v-3A.5.5,0,0,0,65,560.25Zm0-56a.5.5,0,0,0-.5.5v3a.5.5,0,0,0,1,0v-3A.5.5,0,0,0,65,504.25Zm0,49a.5.5,0,0,0-.5.5v3a.5.5,0,0,0,1,0v-3A.5.5,0,0,0,65,553.25Zm0,21a.5.5,0,0,0-.5.5v3a.5.5,0,0,0,1,0v-3A.5.5,0,0,0,65,574.25Zm0-7a.5.5,0,0,0-.5.5v3a.5.5,0,0,0,1,0v-3A.5.5,0,0,0,65,567.25Zm0-21a.5.5,0,0,0-.5.5v3a.5.5,0,0,0,1,0v-3A.5.5,0,0,0,65,546.25Zm0-28a.5.5,0,0,0-.5.5v3a.5.5,0,0,0,1,0v-3A.5.5,0,0,0,65,518.25Zm0-7a.5.5,0,0,0-.5.5v3a.5.5,0,0,0,1,0v-3A.5.5,0,0,0,65,511.25Zm0,14a.5.5,0,0,0-.5.5v3a.5.5,0,0,0,1,0v-3A.5.5,0,0,0,65,525.25Zm0,7a.5.5,0,0,0-.5.5v3a.5.5,0,0,0,1,0v-3A.5.5,0,0,0,65,532.25Zm0-112a.5.5,0,0,0-.5.5v3a.5.5,0,0,0,1,0v-3A.5.5,0,0,0,65,420.25Z"/><path class="cls-2" d="M76.7,23.13A16.55,16.55,0,0,0,48.75,38a.36.36,0,0,0,0,.1,16.45,16.45,0,0,0,2.47,6l12.23,18.3a1.84,1.84,0,0,0,3.06,0L78.76,44a16.45,16.45,0,0,0,2.47-6A16.52,16.52,0,0,0,76.7,23.13Z"/><path class="cls-3" d="M65,24.42a9.68,9.68,0,1,0,6.84,2.84A9.65,9.65,0,0,0,65,24.42Z"/><line class="cls-4" x1="65" y1="37.9" x2="65" y2="30.3"/><line class="cls-4" x1="61.19" y1="34.1" x2="68.8" y2="34.1"/><circle class="cls-3" cx="71.33" cy="16.03" r="6.33"/><circle class="cls-5" cx="71.33" cy="16.03" r="2.26"/><circle class="cls-3" cx="58.67" cy="16.03" r="6.33"/><circle class="cls-5" cx="58.67" cy="16.03" r="2.26"/><path class="cls-6" d="M76.7,1390.29a16.54,16.54,0,0,0-27.95,14.82s0,.07,0,.11a17.77,17.77,0,0,0,.94,3.1,17,17,0,0,0,1.53,2.86l12.23,18.31a1.85,1.85,0,0,0,3.06,0l12.23-18.31a16.33,16.33,0,0,0,1.53-2.86,16.6,16.6,0,0,0,1.26-6.33A16.41,16.41,0,0,0,76.7,1390.29Z"/><path class="cls-3" d="M65,1391.58a9.68,9.68,0,1,0,6.84,2.83A9.64,9.64,0,0,0,65,1391.58Z"/><line class="cls-4" x1="65" y1="1405.06" x2="65" y2="1397.45"/><line class="cls-4" x1="61.2" y1="1401.25" x2="68.8" y2="1401.25"/><circle class="cls-3" cx="71.33" cy="1383.18" r="6.33"/><circle class="cls-5" cx="71.33" cy="1383.18" r="2.26"/><circle class="cls-3" cx="58.67" cy="1383.18" r="6.33"/><circle class="cls-5" cx="58.67" cy="1383.18" r="2.26"/><path class="cls-7" d="M43.41,1378.93a1.51,1.51,0,0,0-1.44-1H38.69l-1-3.13a1.51,1.51,0,0,0-2.87,0l-1,3.13H30.5a1.51,1.51,0,0,0-.89,2.73l2.66,1.93-1,3.12a1.51,1.51,0,0,0,2.32,1.69l2.66-1.93,2.65,1.93a1.51,1.51,0,0,0,1.78,0,1.51,1.51,0,0,0,.55-1.69l-1-3.12,2.66-1.93A1.52,1.52,0,0,0,43.41,1378.93Z"/><path class="cls-7" d="M100.94,1378.93a1.53,1.53,0,0,0-1.44-1H96.22l-1-3.13a1.51,1.51,0,0,0-2.87,0l-1,3.13H88a1.51,1.51,0,0,0-.89,2.73l2.66,1.93-1,3.12a1.51,1.51,0,0,0,2.33,1.69l2.66-1.93,2.65,1.93a1.51,1.51,0,0,0,1.78,0,1.51,1.51,0,0,0,.55-1.69l-1-3.12,2.66-1.93A1.52,1.52,0,0,0,100.94,1378.93Z"/><path class="cls-7" d="M55.18,1365.52a1.07,1.07,0,0,0-1-.73h-2.3l-.71-2.19a1.07,1.07,0,0,0-1-.73,1.05,1.05,0,0,0-1,.73l-.72,2.19h-2.3a1.06,1.06,0,0,0-.62,1.92l1.86,1.35-.71,2.19a1.06,1.06,0,0,0,1.63,1.18l1.86-1.35,1.86,1.35a1.06,1.06,0,0,0,.63.21,1.07,1.07,0,0,0,1-1.39l-.71-2.19,1.86-1.35A1.06,1.06,0,0,0,55.18,1365.52Z"/><path class="cls-8" d="M65.35,85.45l3.84-3.84a.5.5,0,0,0,0-.7.51.51,0,0,0-.71,0l-2.74,2.74a.14.14,0,0,1-.16,0,.16.16,0,0,1-.08-.13V72.13a.51.51,0,0,0-.5-.5.5.5,0,0,0-.5.5V83.56a.15.15,0,0,1-.09.13.13.13,0,0,1-.15,0l-2.75-2.74a.49.49,0,1,0-.7.7l3.84,3.84A.48.48,0,0,0,65.35,85.45Z"/><path class="cls-9" d="M65.35,1366.64l3.84-3.83a.5.5,0,0,0,0-.71.5.5,0,0,0-.7,0l-2.75,2.75a.14.14,0,0,1-.15,0,.15.15,0,0,1-.09-.13v-11.43a.5.5,0,0,0-1,0v11.43a.15.15,0,0,1-.09.13.14.14,0,0,1-.15,0l-2.75-2.75a.5.5,0,0,0-.7,0,.51.51,0,0,0,0,.71l3.84,3.83A.48.48,0,0,0,65.35,1366.64Z"/><path class="cls-8" d="M65.5,283.75v-10a.5.5,0,0,0-1,0v10a.5.5,0,0,0,1,0Z"/><path class="cls-8" d="M127.32,278.4l-3.84-3.84a.5.5,0,0,0-.7,0,.5.5,0,0,0,0,.71l2.74,2.74a.15.15,0,0,1,0,.16.13.13,0,0,1-.13.08H65a.5.5,0,0,0-.5.5.5.5,0,0,0,.5.5h60.42a.14.14,0,0,1,.13.09.14.14,0,0,1,0,.15l-2.74,2.75a.48.48,0,0,0,0,.7.5.5,0,0,0,.7,0l3.84-3.83A.51.51,0,0,0,127.32,278.4Z"/><path class="cls-8" d="M64.5,147.75v10a.5.5,0,0,0,1,0v-10a.5.5,0,0,0-1,0Z"/><path class="cls-8" d="M2.68,153.11l3.84,3.83a.49.49,0,0,0,.7-.7l-2.74-2.75a.14.14,0,0,1,0-.15.14.14,0,0,1,.13-.09H65a.5.5,0,0,0,.5-.5.5.5,0,0,0-.5-.5H4.58a.13.13,0,0,1-.13-.08.15.15,0,0,1,0-.16l2.74-2.74a.5.5,0,0,0,0-.71.5.5,0,0,0-.7,0L2.68,152.4A.51.51,0,0,0,2.68,153.11Z"/><path class="cls-10" d="M65.5,535.75v-10a.5.5,0,0,0-1,0v10a.5.5,0,0,0,1,0Z"/><path class="cls-10" d="M127.32,530.4l-3.84-3.84a.5.5,0,0,0-.7,0,.5.5,0,0,0,0,.71l2.74,2.74a.15.15,0,0,1,0,.16.13.13,0,0,1-.13.08H65a.5.5,0,0,0-.5.5.5.5,0,0,0,.5.5h60.42a.14.14,0,0,1,.13.09.14.14,0,0,1,0,.15l-2.74,2.75a.48.48,0,0,0,0,.7.5.5,0,0,0,.7,0l3.84-3.83A.51.51,0,0,0,127.32,530.4Z"/><path class="cls-10" d="M64.5,399.75v10a.5.5,0,0,0,1,0v-10a.5.5,0,0,0-1,0Z"/><path class="cls-10" d="M2.68,405.11l3.84,3.83a.49.49,0,1,0,.7-.7l-2.74-2.75a.14.14,0,0,1,0-.15.14.14,0,0,1,.13-.09H65a.5.5,0,0,0,.5-.5.5.5,0,0,0-.5-.5H4.58a.13.13,0,0,1-.13-.08.15.15,0,0,1,0-.16l2.74-2.74a.5.5,0,0,0,0-.71.5.5,0,0,0-.7,0L2.68,404.4A.51.51,0,0,0,2.68,405.11Z"/><path class="cls-11" d="M65.5,787.75v-10a.5.5,0,0,0-1,0v10a.5.5,0,0,0,1,0Z"/><path class="cls-11" d="M127.32,782.4l-3.84-3.84a.5.5,0,0,0-.7,0,.5.5,0,0,0,0,.71l2.74,2.74a.15.15,0,0,1,0,.16.13.13,0,0,1-.13.08H65a.5.5,0,0,0-.5.5.5.5,0,0,0,.5.5h60.42a.14.14,0,0,1,.13.09.14.14,0,0,1,0,.15l-2.74,2.75a.48.48,0,0,0,0,.7.5.5,0,0,0,.7,0l3.84-3.83A.51.51,0,0,0,127.32,782.4Z"/><path class="cls-11" d="M64.5,651.75v10a.5.5,0,0,0,1,0v-10a.5.5,0,0,0-1,0Z"/><path class="cls-11" d="M2.68,657.11l3.84,3.83a.49.49,0,0,0,.7-.7l-2.74-2.75a.14.14,0,0,1,0-.15.14.14,0,0,1,.13-.09H65a.5.5,0,0,0,.5-.5.5.5,0,0,0-.5-.5H4.58a.13.13,0,0,1-.13-.08.15.15,0,0,1,0-.16l2.74-2.74a.5.5,0,0,0,0-.71.5.5,0,0,0-.7,0L2.68,656.4A.51.51,0,0,0,2.68,657.11Z"/><path class="cls-12" d="M65.5,1039.75v-10a.5.5,0,0,0-1,0v10a.5.5,0,0,0,1,0Z"/><path class="cls-12" d="M127.32,1034.4l-3.84-3.84a.5.5,0,0,0-.7,0,.5.5,0,0,0,0,.71l2.74,2.74a.15.15,0,0,1,0,.16.13.13,0,0,1-.13.08H65a.5.5,0,0,0-.5.5.5.5,0,0,0,.5.5h60.42a.14.14,0,0,1,.13.09.14.14,0,0,1,0,.15l-2.74,2.75a.48.48,0,0,0,0,.7.5.5,0,0,0,.7,0l3.84-3.83A.51.51,0,0,0,127.32,1034.4Z"/><path class="cls-12" d="M64.5,903.75v10a.5.5,0,0,0,1,0v-10a.5.5,0,0,0-1,0Z"/><path class="cls-12" d="M2.68,909.11l3.84,3.83a.49.49,0,0,0,.7-.7l-2.74-2.75a.14.14,0,0,1,0-.15.14.14,0,0,1,.13-.09H65a.5.5,0,0,0,.5-.5.5.5,0,0,0-.5-.5H4.58a.13.13,0,0,1-.13-.08.15.15,0,0,1,0-.16l2.74-2.74a.5.5,0,0,0,0-.71.5.5,0,0,0-.7,0L2.68,908.4A.51.51,0,0,0,2.68,909.11Z"/><path class="cls-9" d="M64.5,1155.75v10a.5.5,0,0,0,1,0v-10a.5.5,0,0,0-1,0Z"/><path class="cls-9" d="M2.68,1161.11l3.84,3.83a.49.49,0,1,0,.7-.7l-2.74-2.75a.14.14,0,0,1,0-.15.14.14,0,0,1,.13-.09H65a.5.5,0,0,0,.5-.5.5.5,0,0,0-.5-.5H4.58a.13.13,0,0,1-.13-.08.15.15,0,0,1,0-.16l2.74-2.74a.5.5,0,0,0,0-.71.5.5,0,0,0-.7,0l-3.84,3.84A.51.51,0,0,0,2.68,1161.11Z"/></svg>