<svg id="GRAPHICS" xmlns="http://www.w3.org/2000/svg" xmlns:xlink="http://www.w3.org/1999/xlink" viewBox="0 0 380 4"><defs><style>.cls-1{fill:url(#New_Gradient_Swatch_3);}.cls-2{fill:url(#New_Gradient_Swatch_3-2);}.cls-3{fill:url(#New_Gradient_Swatch_3-3);}.cls-4{fill:url(#New_Gradient_Swatch_3-4);}.cls-5{fill:url(#New_Gradient_Swatch_3-5);}</style><linearGradient id="New_Gradient_Swatch_3" x1="27.72" y1="2" x2="354.31" y2="2" gradientUnits="userSpaceOnUse"><stop offset="0" stop-color="#5f592c"/><stop offset="0.06" stop-color="#877f3f"/><stop offset="0.13" stop-color="#aba04f"/><stop offset="0.19" stop-color="#c4b85a"/><stop offset="0.25" stop-color="#d4c662"/><stop offset="0.29" stop-color="#d9cb64"/><stop offset="0.42" stop-color="#bbaf57"/><stop offset="0.53" stop-color="#9c9249"/><stop offset="0.54" stop-color="#c0b56b"/><stop offset="0.55" stop-color="#dbd185"/><stop offset="0.55" stop-color="#efe497"/><stop offset="0.56" stop-color="#fbf0a2"/><stop offset="0.57" stop-color="#fff4a6"/><stop offset="0.59" stop-color="#fff4a6"/><stop offset="0.72" stop-color="#fff4a6"/><stop offset="0.8" stop-color="#cdc276"/><stop offset="0.89" stop-color="#9c9147"/><stop offset="0.91" stop-color="#a3984c"/><stop offset="0.93" stop-color="#b6aa59"/><stop offset="0.97" stop-color="#d4c86e"/><stop offset="1" stop-color="#fff18c"/></linearGradient><linearGradient id="New_Gradient_Swatch_3-2" x1="358.36" x2="365.3" xlink:href="#New_Gradient_Swatch_3"/><linearGradient id="New_Gradient_Swatch_3-3" x1="369.35" x2="374.06" xlink:href="#New_Gradient_Swatch_3"/><linearGradient id="New_Gradient_Swatch_3-4" x1="16.73" x2="23.66" xlink:href="#New_Gradient_Swatch_3"/><linearGradient id="New_Gradient_Swatch_3-5" x1="7.96" x2="12.67" xlink:href="#New_Gradient_Swatch_3"/></defs><path class="cls-1" d="M353.81,2.5H28.22a.5.5,0,0,1,0-1H353.81a.5.5,0,0,1,0,1Z"/><path class="cls-2" d="M364.8,2.5h-5.94a.5.5,0,0,1,0-1h5.94a.5.5,0,0,1,0,1Z"/><path class="cls-3" d="M373.56,2.5h-3.71a.5.5,0,0,1,0-1h3.71a.5.5,0,0,1,0,1Z"/><path class="cls-4" d="M17.23,1.5h5.93a.5.5,0,0,1,0,1H17.23a.5.5,0,0,1,0-1Z"/><path class="cls-5" d="M8.46,1.5h3.71a.5.5,0,0,1,0,1H8.46a.5.5,0,0,1,0-1Z"/></svg>