<?xml version="1.0" encoding="UTF-8"?><svg id="GRAPHICS" xmlns="http://www.w3.org/2000/svg" xmlns:xlink="http://www.w3.org/1999/xlink" viewBox="0 0 140 80"><defs><style>.cls-1{fill:url(#linear-gradient);}.cls-2{fill:#00ff1b;}.cls-3{fill:url(#New_Gradient_Swatch_1);}</style><linearGradient id="linear-gradient" x1="70" y1="30.59" x2="70" y2="5.7" gradientUnits="userSpaceOnUse"><stop offset="0" stop-color="#592bff"/><stop offset="1" stop-color="#07f"/></linearGradient><linearGradient id="New_Gradient_Swatch_1" x1="70" y1="54.69" x2="70" y2="28.82" gradientUnits="userSpaceOnUse"><stop offset="0" stop-color="#00ff1b"/><stop offset="1" stop-color="#0f9"/></linearGradient></defs><g><path class="cls-2" d="M65.51,77.51h-2.82c-.22,0-.4-.18-.4-.4s.18-.4,.4-.4h2.82c.22,0,.4,.18,.4,.4s-.18,.4-.4,.4Z"/><path class="cls-2" d="M71.41,77.51h-2.82c-.22,0-.4-.18-.4-.4s.18-.4,.4-.4h2.82c.22,0,.4,.18,.4,.4s-.18,.4-.4,.4Z"/><path class="cls-2" d="M77.31,77.51h-2.82c-.22,0-.4-.18-.4-.4s.18-.4,.4-.4h2.82c.22,0,.4,.18,.4,.4s-.18,.4-.4,.4Z"/></g><path class="cls-1" d="M48.17,23.01s.04,0,.06,0c2.41-.22,4.38-2.02,4.38-4.08,0-2.05-1.96-3.59-4.38-3.38-2.99,.27-5.98,.59-8.96,.97-.1,.01-.18,.1-.18,.2v11.36c0,.1,.08,.17,.18,.15,1.03-.13,2.05-.25,3.08-.37,.1-.01,.18-.1,.18-.2v-3.59c0-.27,.22-.51,.48-.54,.59-.07,1.18-.13,1.77-.19,.27-.03,.48,.17,.48,.43v3.59c0,.1,.08,.17,.18,.16,2.33-.24,4.65-.44,6.98-.6,.1,0,.18-.09,.18-.19,0-.42,0-.84,0-1.26,0-.1-.08-.17-.18-.16-1.42,.1-2.84,.22-4.26,.34-.27,.02-.49-.17-.49-.44,0-.56,0-1.11,0-1.67,0-.27,.22-.51,.49-.53Zm-5-2.47c-.27,.03-.48-.16-.48-.43,0-.27,.22-.51,.48-.54,1.63-.18,3.27-.34,4.91-.49,.27-.02,.49,.17,.49,.44,0,.27-.22,.5-.49,.53-1.64,.15-3.27,.31-4.91,.49Zm16.8-11.26l5.87-2.44c.08-.03,.17-.02,.25,.02,.07,.05,.12,.13,.12,.22v1.84c0,.13,.07,.26,.18,.33,.11,.07,.25,.09,.37,.04l5.87-2.44c.08-.03,.17-.02,.25,.02,.07,.05,.12,.13,.12,.22v1.84c0,.13,.07,.26,.18,.33,.11,.07,.25,.09,.37,.04l6.79-2.82c.1-.04,.17-.12,.21-.21,.04-.1,.04-.2,0-.3-.04-.1-.12-.17-.21-.21-.1-.04-.2-.04-.3,0l-5.87,2.44c-.08,.03-.17,.02-.25-.02-.07-.05-.12-.13-.12-.22v-1.84c0-.13-.07-.26-.18-.33-.11-.07-.25-.09-.37-.04l-5.87,2.44c-.08,.03-.17,.02-.25-.02-.07-.05-.12-.13-.12-.22v-1.84c0-.13-.07-.26-.18-.33-.07-.04-.14-.07-.22-.07-.05,0-.1,.01-.15,.03l-6.79,2.82c-.1,.04-.17,.12-.21,.21-.04,.1-.04,.2,0,.3,.08,.2,.32,.3,.52,.21Zm-23.33,7.58c-4.09,.56-8.18,1.23-12.25,2.01-.1,.02-.17,.11-.17,.21,0,3.79,0,7.57,0,11.36,0,.1,.08,.16,.17,.14,3.17-.6,6.35-1.14,9.53-1.62,2.59-.38,2.89-1.71,2.89-2.68,0-1.64-1.97-2.11-3.36-1.89-2.25,.34-4.23,1.3-6.08,2.94-.15,.13-.34,.18-.5,.12-.16-.06-.26-.2-.26-.38v-4.6c0-.27,.22-.52,.48-.57,3.17-.57,6.35-1.07,9.54-1.51,.1-.01,.18-.1,.18-.2v-3.16c0-.1-.08-.17-.18-.15Zm78.96,2.01c-5.21-.99-10.44-1.81-15.68-2.45-.1-.01-.18,.06-.18,.15v11.36c0,.1,.08,.19,.18,.2,5.25,.65,10.48,1.47,15.68,2.45,.1,.02,.17-.05,.17-.14v-11.36c0-.1-.08-.19-.17-.21Zm-5.19,5.41c-.66-.11-1.32-.22-1.98-.32-.1-.02-.17,.05-.18,.15v1.99c0,.27-.22,.45-.48,.41-.27-.04-.48-.29-.48-.56,0-.66,0-1.33,0-1.99,0-.1-.08-.19-.18-.2-.66-.1-1.32-.2-1.98-.3-.27-.04-.48-.29-.48-.55,0-.27,.22-.45,.48-.41,.66,.1,1.32,.19,1.98,.3,.1,.01,.18-.05,.18-.15,0-.66,0-1.33,0-1.99,0-.27,.22-.45,.48-.41,.27,.04,.48,.29,.48,.56v1.99c0,.1,.08,.19,.18,.2,.66,.11,1.32,.21,1.98,.32,.27,.04,.48,.3,.48,.57,0,.27-.22,.45-.48,.4Zm-13.12-8.18c-3.79-.43-7.58-.76-11.39-1.01-.1,0-.18,.07-.18,.16v7.05c0,.1,.08,.18,.18,.19,.95,.06,1.9,.13,2.85,.2,.27,.02,.49,.26,.49,.52,0,1.21,0,2.43,0,3.64,0,.1,.08,.18,.18,.19,1.46,.12,2.91,.25,4.36,.39,.1,0,.18-.06,.18-.16v-3.64c0-.27,.22-.46,.49-.44,.95,.1,1.9,.2,2.85,.3,.1,.01,.18-.06,.18-.16v-7.05c0-.1-.08-.19-.18-.2Zm-17.3-1.32c-3.3-.13-6.6-.2-9.9-.2-.1,0-.18,.08-.18,.18,0,3.79,0,7.57,0,11.36,0,.1,.08,.18,.18,.18,1.88,0,3.76,.02,5.63,.07,.1,0,.18-.07,.18-.17v-3.59c0-.27,.22-.48,.49-.47,1.2,.03,2.4,.07,3.6,.12,2.42,.1,4.38-1.45,4.38-3.51,0-2.05-1.96-3.85-4.38-3.95Zm.18,4.49c-1.26-.05-2.52-.1-3.78-.13-.27,0-.49-.23-.49-.5,0-.27,.22-.48,.49-.47,1.26,.03,2.52,.08,3.78,.13,.27,.01,.49,.24,.49,.51,0,.27-.22,.48-.49,.46Zm-12.72-4.69c-.69,0-1.38,.02-2.07,.03-.1,0-.18,.08-.18,.18,0,1.34,0,2.69,0,4.03,0,.27-.22,.49-.49,.49-1.54,.03-3.07,.08-4.6,.14-.15,0-.3-.06-.39-.18-.09-.12-.12-.28-.07-.43,0,0,.26-.86,.26-1.64,0-1.79-.79-2.6-2.48-2.51-2.86,.15-3.08,3.63-3.08,4.68,0,2.97,2.27,4.16,4.52,4.06,2.63-.12,4.24-1.48,5.54-2.57,.14-.12,.35-.15,.52-.07,.17,.08,.28,.25,.28,.43,0,1,0,2,0,3,0,.27-.22,.49-.49,.49-3.4,.07-6.8,.22-10.19,.43-.1,0-.18,.09-.18,.19v1.26c0,.1,.08,.17,.18,.16,4.31-.27,8.62-.43,12.93-.48,.1,0,.18-.08,.18-.18V14.77c0-.1-.08-.18-.18-.17Z"/><path class="cls-3" d="M28.14,39.28c-1.01,.16-2.02,.32-3.03,.49-.27,.05-.48-.14-.48-.4,0-.27,.22-.52,.48-.57,1.72-.29,3.45-.56,5.18-.82,1.72-.26,3.55-1.31,3.55-3.55,0-1.57-.63-3.12-5.28-2.42-.81,.13-1.63,.26-2.44,.39-4.18,.69-6.38,3.27-6.38,7.29,0,1.56,.47,2.71,1.4,3.45,1.65,1.31,4.33,.95,4.85,.87,.79-.13,1.58-.26,2.37-.38,.27-.04,.48,.14,.48,.41,0,.27-.22,.52-.48,.56-.75,.12-1.5,.24-2.25,.36-.02,0-.07,.01-.16,.03-1.54,.26-6.53,1.62-6.53,6.2,0,3.31,1.62,4.02,6.69,3.17,1.24-.2,2.48-.4,3.72-.59,1.96-.31,6.53-1.69,6.53-8.87,0-3.08-1.43-6.66-8.22-5.62Zm84.23,.08c-1.01-.16-2.02-.32-3.03-.46-.27-.04-.48-.29-.48-.56,0-.27,.22-.45,.48-.41,1.73,.25,3.45,.53,5.18,.81,1.71,.29,3.54-.18,3.54-2.43,0-1.56-.62-3.32-5.27-4.08-.81-.13-1.63-.26-2.44-.38-4.19-.63-6.41,1.25-6.41,5.27,0,1.55,.47,2.86,1.41,3.89,1.67,1.83,4.35,2.32,4.87,2.41,.79,.12,1.58,.24,2.37,.37,.27,.04,.48,.3,.48,.56,0,.27-.22,.45-.48,.41-.75-.12-1.5-.24-2.25-.35-.02,0-.07,0-.16-.02-1.53-.22-6.56-.44-6.56,4.13,0,3.31,1.64,4.54,6.72,5.29,1.24,.19,2.48,.38,3.72,.59,1.96,.31,6.5,.37,6.5-6.81,0-3.08-1.41-7.11-8.19-8.22Zm-43.02-10.55c-5,.03-5.54,4.61-5.54,6.54,0,4.19,0,8.38,0,12.58,0,2.09,.63,2.89,2.25,2.87,1.07-.02,2.34-.55,2.34-3.05v-4.97c0-.27,.22-.49,.49-.49,.27,0,.49,.22,.49,.48v4.94c0,1.14,.59,3.05,2.78,3.07,.3,0,2.92-.05,2.92-3.09v-8.39c0-5.49-.44-10.48-5.72-10.48Zm-.06,10.12c-1.41,0-2.56-1.17-2.56-2.64,0-1.46,1.15-2.67,2.56-2.67,1.41,0,2.56,1.2,2.56,2.66,0,1.46-1.15,2.64-2.56,2.65Zm28.15-8.72c-2.87-.29-4.26,2.64-4.27,2.67-.09,.2-.32,.3-.54,.23-.22-.07-.39-.28-.39-.51,0-1.85-.96-2.31-1.77-2.37-1.39-.1-1.88,1.02-1.88,2.11v15.91c0,2.22,.88,3.21,2.95,3.38,1.82,.15,2.78-.84,2.78-2.87v-11.44c0-.27,.22-.47,.49-.44,.27,.02,.48,.26,.49,.53,0,3.61,0,7.22,0,10.83,0,1.94,.46,3.75,3.77,4.1,2.08,.23,3.27-.95,3.27-3.27v-12.02c0-2.69-.5-6.38-4.89-6.84Zm-15.21,3.88s.02-.02,.03-.03c.09-.08,.21-.12,.33-.11,2.88,.14,4.4-.59,4.4-2.18,0-1.74-1.33-2.52-4.75-2.68-1.02-.05-2.04-.09-3.06-.12-1.44-.05-3.86,.23-3.86,2.47,0,2.1,2.21,2.31,4.48,2.4,.27,0,.49,.24,.49,.5v11.48c0,.25-.19,.45-.44,.47-2.16,.12-3.31,1.02-3.31,2.56,0,1.5,.88,2.02,3.47,2.11,1.13,.04,2.27,.09,3.4,.15,2.06,.1,3.44-.19,3.44-2.04,0-1.41-1.43-2.33-4.25-2.68-.13-.02-.25-.08-.33-.19-.08-.1-.12-.23-.11-.36,.21-2.16,.19-6-.05-11.4-.06,0-.12,0-.18,0,.06-.01,.12-.02,.18-.04,0-.12,.05-.23,.13-.31Zm-40.69-3.64c-6.27,.69-6.75,3.79-6.76,4.68,0,1.67,.55,3.51,4.9,3.35,.26,0,.46,.2,.45,.46,0,.07-.43,7.14-.43,10,0,2.74,.49,3.47,2.18,3.3,.5-.05,.91-.27,1.24-.66,.66-.78,1.38-2.63,1.03-7.08-.09-1.16-.46-3.33-.8-5.25-.06-.33-.11-.65-.17-.98-.02-.13,.01-.28,.1-.39,.09-.12,.21-.2,.35-.22,4.76-.74,5.72-2.14,5.72-4.26,0-2.35-2.78-3.47-7.81-2.95Zm13.99-1.25c-4.45,.25-5.07,2.48-5.07,4.8v14.03c0,3.05,1.22,3.36,2.28,3.29,1.14-.07,1.65-.88,1.65-2.64,0-1.04,.03-8.96,.03-8.96,0-.27,.22-.5,.49-.51,.13,0,.25,.04,.35,.12,.09,.09,.14,.21,.14,.34,0,2.36-.02,4.72-.03,7.08,0,2.73,1.25,4.35,3.26,4.26,1.13-.05,2.63-.54,2.63-4.34,0-4.08-2.77-7.43-2.8-7.45-.12-.14-.14-.34-.06-.51,.08-.17,.25-.29,.44-.3,.15-.02,3.75-.2,3.75-3.48,0-4.43-3.65-5.91-7.06-5.72Zm.96,4.91c.36,.29,.72,.59,1.07,.89,.2,.17,.22,.47,.04,.68-.17,.2-.5,.23-.69,.08-.37-.3-.73-.6-1.1-.9-.07-.06-.18-.05-.25,.03-.44,.5-.88,1-1.32,1.5-.17,.2-.5,.23-.69,.07-.2-.17-.21-.48-.03-.68,.43-.5,.87-.99,1.3-1.48,.03-.04,.05-.08,.05-.13,0-.05-.02-.09-.06-.12-.38-.31-.75-.62-1.13-.92-.2-.16-.22-.47-.04-.68,.09-.1,.2-.17,.33-.18,.01,0,.02,0,.03,0,.12,0,.23,.03,.32,.1,.38,.31,.77,.63,1.15,.94,.07,.06,.18,.05,.25-.03,.42-.48,.85-.96,1.27-1.44,.18-.2,.49-.23,.69-.06,.2,.17,.21,.48,.03,.68-.42,.47-.83,.94-1.25,1.41-.03,.04-.05,.08-.05,.13,0,.05,.02,.09,.06,.12Z"/><path class="cls-2" d="M84.46,57.23c-3.21-.09-5.83,1.58-7.56,2.69-.94,.6-1.62,1.04-2.09,1-.17-.01-.3-.08-.38-.21-.2-.32,.04-.91,.25-1.42,.06-.15,.12-.29,.15-.41,.18-.58,.16-1.01-.06-1.31-.24-.33-.75-.5-1.49-.5-1.52,0-3.57,1.03-5.22,1.86-.7,.35-1.3,.65-1.78,.84-.56,.22-.85,.1-.99-.04-.21-.21-.24-.58-.08-1.01,.23-.62,.25-1.07,.04-1.34-.16-.21-.47-.31-.91-.31-.14,0-.29,.01-.46,.03-.76,.09-3.32,.83-5.75,1.97-2.16,1.01-4.25,2.09-4.05,3.17h0c.03,.15,.1,.25,.23,.31,.33,.15,.93-.02,1.32-.25,.12-.07,.28-.17,.47-.28,.74-.45,1.98-1.21,3.15-1.84,2.04-1.1,3.3-1.57,3.85-1.44,.22,.05,.38,.16,.47,.32,.17,.32,.02,.77-.13,1.21-.06,.19-.13,.39-.17,.57-.09,.43-.06,.71,.08,.89,.15,.18,.44,.27,.88,.27,.75,0,2.16-.79,3.3-1.43,.51-.29,.99-.56,1.37-.73,1.71-.8,3.33-1.56,4-.89,.25,.25,.16,.78,.06,1.39-.11,.67-.24,1.43,.1,1.8,.19,.21,.54,.29,1.02,.25,.87-.08,2.07-.75,3.23-1.39,.57-.32,1.11-.62,1.61-.85,2.3-1.07,3.91-1.29,5.63-1.29,.9,0,1.3-.17,1.36-.57,.03-.22-.03-.42-.17-.59-.24-.29-.7-.46-1.29-.47Z"/></svg>