<?xml version="1.0" encoding="UTF-8"?><svg id="GRAPHICS" xmlns="http://www.w3.org/2000/svg" viewBox="0 0 120 4"><defs><style>.cls-1{fill:#00ff1b;}</style></defs><path class="cls-1" d="M78.55,2.55H41.45c-.31,0-.56-.25-.56-.55s.25-.55,.56-.55h37.11c.31,0,.56,.25,.56,.55s-.25,.55-.56,.55Z"/><path class="cls-1" d="M90.75,2.55h-6.59c-.31,0-.56-.25-.56-.55s.25-.55,.56-.55h6.59c.31,0,.56,.25,.56,.55s-.25,.55-.56,.55Z"/><path class="cls-1" d="M100.48,2.55h-4.12c-.31,0-.56-.25-.56-.55s.25-.55,.56-.55h4.12c.31,0,.56,.25,.56,.55s-.25,.55-.56,.55Z"/><path class="cls-1" d="M29.25,1.45h6.59c.31,0,.56,.25,.56,.55s-.25,.55-.56,.55h-6.59c-.31,0-.56-.25-.56-.55s.25-.55,.56-.55Z"/><path class="cls-1" d="M19.52,1.45h4.12c.31,0,.56,.25,.56,.55s-.25,.55-.56,.55h-4.12c-.31,0-.56-.25-.56-.55s.25-.55,.56-.55Z"/></svg>