<?xml version="1.0" encoding="UTF-8"?><svg id="GRAPHICS" xmlns="http://www.w3.org/2000/svg" xmlns:xlink="http://www.w3.org/1999/xlink" viewBox="0 0 110 80"><defs><style>.cls-1{fill:url(#linear-gradient);}</style><linearGradient id="linear-gradient" x1="55" y1="73.52" x2="55" y2="6.48" gradientUnits="userSpaceOnUse"><stop offset="0" stop-color="#07f"/><stop offset=".5" stop-color="aqua"/><stop offset="1" stop-color="#00ff1b"/></linearGradient></defs><path class="cls-1" d="M55.35,36.96c1.52,0,3.17-2.43,3.62-4.61,.3-1.47,.06-3.74-.79-4.79-.31-.38-.67-.57-1.09-.57s-.74,.12-.98,.36c-.6,.61-.59,1.89-.57,3.02,0,.48,0,.93-.03,1.3-.09,.8-.33,1.65-.55,2.41-.32,1.12-.62,2.19-.28,2.63,.13,.17,.35,.25,.67,.25Zm27.57,2.92s0,0,0,0c.7-.16,1.16,.49,1.36,1.14l.02,.07c.18,.57,.45,1.43,.74,1.78,.38,.45,.91,.92,1.73,.67,.34-.1,.63-.39,.81-.79,.22-.51,.21-1.08-.03-1.58-.44-.91-1.54-1.87-2-2.28l-.15-.13c-.54-.49-.81-.89-.81-1.22,0-.46,.31-.88,.56-1.15l.16-.17c.36-.39,1.04-1.11,1.21-1.31,.09-.11,.3-.4,.26-.71-.02-.18-.12-.34-.3-.48-.72-.55-1.47,.06-1.97,.67-.16,.2-.32,.4-.48,.61-.59,.77-1.11,1.43-1.61,1.43-.15,0-.27-.05-.37-.15-.27-.27-.26-.85-.26-1.37v-.19c0-.47,.09-1.47,.28-2.97v-.09c.05-.26,.11-.76-.12-1.03-.11-.13-.28-.2-.52-.2-.02,0-.03,0-.05,0-.65,0-1.53,.37-1.9,3.2-.32,2.46-.4,9.03-.33,10.11,.05,.71,.32,1.56,1.39,1.56,.31,0,.89-.07,1.33-.52,.38-.39,.57-.98,.54-1.74,0-.3-.02-.58-.03-.84-.06-1.36-.1-2.17,.52-2.32Zm-3.37-12.45c4.22,0,6.15-3.48,6.15-6.71,0-2.55-.75-3.72-1.19-4.42-.27-.42-.47-.73-.31-1.08,.19-.42,1.09-.51,2.34-.62,.56-.05,1.2-.11,1.81-.21,.84-.14,1.84-.55,2.2-1.17,.15-.25,.17-.53,.06-.8-.18-.47-.62-.65-1.22-.65-.91,0-2.2,.41-3.53,.83-.34,.11-.68,.21-1.01,.32-1.38,.42-2.83,.67-4,.86-1.02,.17-1.89,.32-2.37,.52-1.96,.83-3,2.29-3.35,4.72v.08c-.19,1.22-.72,4.93,1.05,6.97,.78,.89,1.91,1.35,3.38,1.35Zm.61-10.88c.5-.04,.94,.1,1.29,.42,.58,.54,.79,1.46,.79,2.15,0,1.28-.7,2.66-2.24,2.66-1.06,0-1.64-1.24-1.64-2.4,0-1,.23-2.69,1.8-2.82Zm-5.06,28.32c-.02,.74-.06,1.85,.4,2.24,.16,.14,.37,.19,.65,.14,1.3-.22,1.54-1.37,1.54-3.41,0-2.5-.45-4.16-1.29-4.8-.42-.32-.95-.39-1.58-.21-1.17,.33-1.7,1.33-1.88,1.75-.09,.22-.24,.35-.4,.36-.08,0-.24-.03-.36-.27-.16-.32-.37-.63-.74-.63-.09,0-.18,.02-.29,.06-.8,.3-.93,2.23-.95,4.07v.12c-.02,1.57-.04,3.73,.76,4.33,.24,.18,.53,.21,.9,.1,.73-.22,1.19-.72,1.21-2.55,0-.15,0-.31,0-.48,0-1.19-.02-2.54,.89-2.85,.31-.11,.56-.1,.75,.03,.34,.24,.4,.83,.39,1.63,0,.11,0,.22,0,.35Zm-24.96-12.5h0c-.71,.29-.92-.14-1.11-.51-.16-.32-.31-.62-.76-.62-.07,0-.14,0-.22,.02-1.11,.19-1.11,2.2-1.12,3.53v.26c0,.35,.01,3.44,1.13,4.37,.26,.22,.56,.29,.9,.23,.43-.08,.76-.29,.96-.62,.33-.53,.36-1.35,.07-2.45-.34-1.35-.08-2.27,.8-2.73,1.85-.97,2.97-1.71,2.98-3.8,0-.93-.39-1.4-.76-1.53-.34-.12-.71,.02-.98,.37-.15,.2-.3,.63-.45,1.09-.3,.92-.68,2.07-1.45,2.38Zm6.86-8.06h.02c.45,0,.83-.15,1.12-.43,.42-.42,.64-1.13,.64-2.07,0-.88-.34-1.37-.63-1.63-.32-.29-.68-.39-.94-.39-.03,0-.06,0-.09,0-1.05,.11-1.62,1.24-1.63,2.26,0,.74,.25,1.46,.67,1.88,.25,.25,.53,.38,.84,.38Zm4.63,18.2c1.94-2.89,5.64-4.44,8.91-5.81,3.4-1.42,6.34-2.65,6.85-4.99,.64-2.87-2.8-4.68-6.07-6.16-.99-.45-1.76-.85-1.76-1.66,0-1.23,1.02-2.02,2.01-2.78,.36-.28,.7-.55,.99-.83,.52-.51,.76-1.05,.65-1.46-.08-.32-.37-.56-.81-.68-1.01-.27-2.01,.77-3.07,1.88-.88,.91-1.78,1.86-2.73,2.02-.37,.06-.67-.02-.9-.23-.88-.82-.58-3.54-.29-6.17,.14-1.27,.27-2.47,.27-3.42,0-3.9-.74-5.72-2.32-5.72-.55,0-.98,.18-1.31,.55-1.29,1.42-.89,5.46-.47,9.72,.23,2.29,.46,4.66,.46,6.81,0,3.59-.46,6.34-.76,8.16-.09,.57-.18,1.06-.22,1.45-.04,.33,0,1.07,.42,1.49,.26,.25,.63,.35,1.1,.28,1.03-.15,2.8-.88,3.06-4.17,.2-2.45,1.15-3.69,2.83-3.69,.08,0,.16,0,.25,0,1.75,.12,3.63,1.52,3.63,3.41,0,2.95-3.24,5.14-10.5,7.08-7.37,1.97-14.73,4.99-18.76,7.68-2.73,1.83-3.65,2.44-3.65,5.04,0,1.9-1.29,2.64-3.08,3.66-.51,.29-1.04,.59-1.6,.95l-.37,.24c-14.79,9.45-16.12,14.29-14.62,16.7,2.51,4.04,9.38-.09,13.49-2.56,.71-.43,1.33-.8,1.86-1.09,.59-.33,1.26-.72,1.97-1.14,3.67-2.16,8.7-5.12,11.79-3.94,1.21,.46,1.18,1.6,1.15,2.71-.03,1.15-.05,2.34,1.15,3.02,2.43,1.37,6.53,.16,9.53-2.8,3.29-3.24,4.43-8.13,2.72-11.61-1.65-3.36-4.15-8.44-1.81-11.93Zm5.5-.77c-1.56,0-1.8,1.86-1.83,2.65-.04,1.02-.05,4.64,.1,5.43,.16,.82,.71,1.37,1.38,1.37,1,0,1.54-.87,1.63-1.73,.13-1.29,.16-4.49,.16-5.28,0-1.12-.25-2.45-1.43-2.45Zm26.36-.6c-.15-.19-.34-.33-.55-.4-.12-.04-.25-.06-.37-.06-.66,0-1.28,.57-1.89,1.74-.98,1.85-3.31,3.48-4.64,4.05-1.11,.48-2.81,.99-4.59,1.53-2.22,.67-4.52,1.36-5.83,2.03-6.46,3.31-7.65,6.65-6.61,8.67,.39,.76,.94,1.19,1.64,1.28,1.51,.2,3.42-1.19,4.26-2.12l.1-.11c.79-.86,2.63-2.89,3.88-2.94,.82-.04,.85,.47,.87,.93,.02,.46,.04,.94,.73,1.18,1.11,.38,2.38-.65,3.08-2.5l.02-.06c.59-1.57,1.98-5.26,6.5-8.25,.15-.1,.31-.21,.48-.31,1.39-.9,2.97-1.92,3.2-3.59,.05-.37-.06-.78-.27-1.07ZM23.32,57.39c.69,.29,1.42,.15,1.87-.09h0c.93-.48,1.29-1.86,.85-3.3-3.19-9.92-3.84-15.98-3.95-18.7-.04-.9,.55-1.29,1.11-1.37,4.62-.61,15.3-3.05,14.67-12.51-.26-3.85-2.98-8.34-9.78-8.34-2.5,0-6.01,.64-8.6,3.69-3.18,3.75-4.05,10.12-2.58,18.94,1.48,8.7,2.9,14.19,5.25,20.28,.21,.69,.61,1.17,1.16,1.4Zm4.27-37.8c1-.11,1.98,.18,2.7,.77,.61,.51,.97,1.2,1.03,1.98,.09,1.14-.27,2.19-1.01,2.96-.7,.72-1.7,1.14-2.7,1.14-.06,0-.11,0-.17,0-.67-.03-2.87-.34-3.04-3.07-.14-2.25,1.5-3.61,3.18-3.78Zm6.08,14.08c-.37,0-.76,.04-1.15,.13-2.87,.63-4.87,3.5-5.51,5.89-.95,3.51,.02,6.56,1.14,8.11,.71,.97,1.57,1.53,2.43,1.58,2.12,.11,3.07-.78,3.93-1.79,.43-.5,.77-1.05,1.07-1.53,.52-.83,.93-1.49,1.55-1.49,.41,0,.7,.29,.99,.57,.4,.38,.77,.74,1.42,.43,1.32-.65,1.34-2.65,.05-6.7-.84-2.65-2.99-5.19-5.92-5.19Zm1.77,8.33c-.39,.39-.9,.59-1.5,.59,0,0-.01,0-.01,0-1.37-.01-2.09-1.12-2.08-2.21,0-1.1,.67-2.28,1.92-2.43,.65-.08,1.23,.09,1.67,.49,.45,.4,.73,1.04,.73,1.65,0,.75-.27,1.47-.73,1.92Zm7.1-1.24h0c.03,.7,.23,1.19,.57,1.42,.24,.16,.55,.19,.88,.07,.73-.26,1.15-1.11,1.15-2.33,0-1.09-.16-2.21-.31-3.29-.31-2.22-.6-4.32,.6-5.52,.43-.43,.97-.86,1.54-1.32,2.07-1.65,4.64-3.7,4.26-7.47-.16-1.52-.97-2.83-2.17-3.51-.48-.27-1.15-.51-2.01-.51-.75,0-1.64,.18-2.68,.67-3.81,1.79-4.87,6.44-3.16,13.8,.78,3.34,1.25,6.18,1.33,7.99Zm1.61-16.2h0c.21-.91,.92-1.8,1.97-1.61,.33,.05,.66,.29,.88,.64,.32,.49,.4,1.12,.23,1.79-.21,.81-.88,1.58-1.76,1.58-.11,0-.21-.01-.32-.03-.34-.07-.61-.26-.8-.56-.29-.45-.36-1.1-.2-1.8Z"/></svg>