<?xml version="1.0" encoding="UTF-8"?><svg id="GRAPHICS" xmlns="http://www.w3.org/2000/svg" viewBox="0 0 20 20"><defs><style>.cls-1{fill:#592bff;}</style></defs><path class="cls-1" d="M9.42,16.02l-3.89-3.89c-.32-.32-.32-.85,0-1.17,.32-.32,.85-.32,1.17,0l2.07,2.07c.07,.07,.17,.09,.26,.05,.09-.04,.14-.12,.14-.22V4.57c0-.46,.37-.83,.83-.83s.83,.37,.83,.83V12.86c0,.09,.06,.18,.14,.22,.09,.04,.19,.02,.26-.05l2.07-2.07c.32-.32,.85-.32,1.17,0,.31,.31,.31,.86,0,1.17l-3.89,3.89c-.32,.32-.85,.32-1.17,0Z"/></svg>