<svg id="GRAPHICS" xmlns="http://www.w3.org/2000/svg" viewBox="0 0 104 4"><defs><style>.cls-1{fill:#00ff1b;}</style></defs><path class="cls-1" d="M89.61,2.5H14.39a.5.5,0,0,1,0-1H89.61a.5.5,0,0,1,0,1Z"/><path class="cls-1" d="M97,2.5H93.45a.5.5,0,0,1,0-1H97a.5.5,0,0,1,0,1Z"/><path class="cls-1" d="M102.08,2.5H100.8a.5.5,0,0,1,0-1h1.28a.5.5,0,0,1,0,1Z"/><path class="cls-1" d="M7,1.5h3.51a.5.5,0,0,1,0,1H7a.5.5,0,1,1,0-1Z"/><path class="cls-1" d="M1.92,1.5H3.2a.5.5,0,0,1,0,1H1.92a.5.5,0,0,1,0-1Z"/></svg>