<?xml version="1.0" encoding="UTF-8"?><svg id="GRAPHICS" xmlns="http://www.w3.org/2000/svg" viewBox="0 0 50 60"><defs><style>.cls-1,.cls-2{fill:#592bff;}.cls-3,.cls-4,.cls-2,.cls-5,.cls-6,.cls-7,.cls-8,.cls-9,.cls-10,.cls-11,.cls-12,.cls-13{stroke-linecap:round;stroke-linejoin:round;}.cls-3,.cls-2,.cls-5,.cls-6,.cls-7,.cls-8,.cls-9,.cls-10,.cls-11,.cls-12,.cls-13{stroke:#000;stroke-width:.85px;}.cls-4{fill:none;stroke:#592bff;stroke-width:.57px;}.cls-5{fill:#5f0;}.cls-6{fill:#af0;}.cls-7{fill:#ff9bcc;}.cls-8{fill:#ff0;}.cls-9{fill:red;}.cls-10{fill:#fa0;}.cls-11{fill:#f50;}.cls-12{fill:#0f5;}.cls-13{fill:#0fa;}</style></defs><path class="cls-3" d="M6.39,1.98H43.61c2.56,0,4.64,2.08,4.64,4.64V53.38c0,2.56-2.08,4.64-4.64,4.64H6.39c-2.56,0-4.64-2.08-4.64-4.64V6.62C1.76,4.06,3.83,1.98,6.39,1.98Z"/><g><g><g><g><circle class="cls-7" cx="18.07" cy="45.01" r="6.93"/><circle class="cls-3" cx="18.07" cy="45.01" r="2.47"/></g><path class="cls-2" d="M18.07,38.08c-3.36,0-6.15,2.39-6.79,5.56h13.58c-.64-3.17-3.43-5.56-6.79-5.56Z"/></g><g><g><circle class="cls-7" cx="31.93" cy="45.01" r="6.93"/><circle class="cls-3" cx="31.93" cy="45.01" r="2.47"/></g><path class="cls-2" d="M31.93,38.08c-3.36,0-6.15,2.39-6.79,5.56h13.58c-.64-3.17-3.43-5.56-6.79-5.56Z"/></g></g><g><g><path class="cls-8" d="M30.03,16.29l1.13-2.72c-1.9-.79-3.97-1.22-6.15-1.22v2.94c1.78,0,3.48,.36,5.03,1Z"/><path class="cls-6" d="M25,15.29v-2.94c-2.18,0-4.26,.44-6.15,1.22l1.13,2.72c1.55-.64,3.24-1,5.03-1Z"/><path class="cls-5" d="M19.97,16.29l-1.13-2.72c-1.96,.81-3.73,2.01-5.21,3.49l2.08,2.08c1.21-1.21,2.66-2.18,4.26-2.85Z"/><path class="cls-9" d="M38.13,28.43h2.94c0-2.18-.44-4.26-1.22-6.15l-2.72,1.13c.64,1.55,1,3.24,1,5.03Z"/><path class="cls-10" d="M34.29,19.14l2.08-2.08c-1.48-1.48-3.25-2.67-5.21-3.49l-1.13,2.72c1.61,.67,3.05,1.64,4.26,2.85Z"/><path class="cls-12" d="M15.71,19.14l-2.08-2.08c-1.48,1.48-2.67,3.25-3.49,5.21l2.72,1.13c.67-1.61,1.64-3.05,2.85-4.26Z"/><path class="cls-11" d="M37.13,23.4l2.72-1.13c-.81-1.96-2.01-3.73-3.49-5.21l-2.08,2.08c1.21,1.21,2.18,2.66,2.85,4.26Z"/><path class="cls-13" d="M12.87,23.4l-2.72-1.13c-.79,1.9-1.22,3.97-1.22,6.15h2.94c0-1.78,.36-3.48,1-5.03Z"/></g><path class="cls-1" d="M28.86,21.7l-3.46-3.46c-.29-.29-.76-.29-1.05,0l-3.46,3.46c-.14,.14-.22,.33-.22,.53s.08,.39,.22,.53c.29,.29,.76,.29,1.05,0l1.77-1.77c.07-.07,.18-.09,.27-.05,.09,.04,.15,.13,.15,.23v6.52c0,.41,.33,.74,.74,.74s.74-.33,.74-.74v-6.52c0-.1,.06-.19,.15-.23,.09-.04,.2-.02,.27,.05l1.77,1.77c.28,.28,.77,.28,1.05,0,.14-.14,.22-.33,.22-.53s-.08-.39-.22-.53Z"/><line class="cls-4" x1="8.93" y1="32" x2="41.08" y2="32"/><polyline class="cls-4" points="5.89 26.26 5.89 28.43 7.23 28.43"/><g><line class="cls-4" x1="44.11" y1="28.43" x2="44.11" y2="26.26"/><line class="cls-4" x1="42.77" y1="27.35" x2="44.11" y2="27.35"/><line class="cls-4" x1="42.77" y1="26.26" x2="42.77" y2="28.43"/></g><g><line class="cls-4" x1="25" y1="10.65" x2="25" y2="8.49"/><polyline class="cls-4" points="26.34 10.65 26.34 8.49 23.66 8.49 23.66 10.65"/></g></g></g></svg>