<?xml version="1.0" encoding="UTF-8"?><svg id="GRAPHICS" xmlns="http://www.w3.org/2000/svg" xmlns:xlink="http://www.w3.org/1999/xlink" viewBox="0 0 50 60"><defs><style>.cls-1{fill:#fb00e9;}.cls-1,.cls-2,.cls-3,.cls-4,.cls-5,.cls-6,.cls-7{stroke:#000;}.cls-1,.cls-2,.cls-3,.cls-4,.cls-5,.cls-6,.cls-7,.cls-8{stroke-linecap:round;stroke-linejoin:round;stroke-width:.85px;}.cls-3{fill:#03ff74;}.cls-4{fill:#ff7800;}.cls-5{fill:#0357ff;}.cls-6{fill:#fff2cc;}.cls-7{fill:url(#linear-gradient);}.cls-8{fill:none;stroke:#592bff;}</style><linearGradient id="linear-gradient" x1="9.78" y1="21.36" x2="40.22" y2="21.36" gradientUnits="userSpaceOnUse"><stop offset="0" stop-color="#ff7800"/><stop offset=".26" stop-color="#fb00e9"/><stop offset=".3" stop-color="#ea05ea"/><stop offset=".38" stop-color="#c114ee"/><stop offset=".48" stop-color="#7d2cf4"/><stop offset=".62" stop-color="#214cfc"/><stop offset=".66" stop-color="#0357ff"/><stop offset="1" stop-color="#03ff74"/></linearGradient></defs><path class="cls-2" d="M6.39,1.98H43.61c2.56,0,4.64,2.08,4.64,4.64V53.38c0,2.56-2.08,4.64-4.64,4.64H6.39c-2.56,0-4.64-2.08-4.64-4.64V6.62C1.76,4.06,3.83,1.98,6.39,1.98Z"/><g><g><path class="cls-7" d="M38.6,21.78c1-.73,1.63-1.91,1.63-3.19,0-2.18-1.77-3.96-3.95-3.96-.31,0-.61,.04-.91,.11,.08-.95-.2-1.95-.84-2.79-.42-.55-1-.98-1.66-1.22-1.54-.56-3.1-.18-4.15,.8-.56-1.51-2.01-2.6-3.71-2.6s-3.16,1.08-3.71,2.59c-1.05-.99-2.62-1.36-4.15-.8-.65,.24-1.24,.67-1.66,1.22-.63,.84-.91,1.83-.83,2.78-.3-.07-.6-.11-.91-.11-2.18,0-3.96,1.77-3.96,3.96,0,1.28,.62,2.46,1.63,3.19-1.34,.98-2,2.75-1.41,4.5,.45,1.32,1.61,2.32,2.98,2.58,.68,.13,1.36,.08,1.99-.13v.04c-.01,1.42,.72,2.79,1.98,3.45,1.64,.87,3.43,.56,4.62-.51,.66,1.22,1.93,2.02,3.36,2.06,.01,0,.03,0,.04,0h.07s.03,0,.04,0c1.43-.04,2.69-.84,3.36-2.06,1.19,1.07,2.99,1.38,4.63,.51,1.25-.67,1.98-2.03,1.97-3.45v-.04c.78,.26,1.63,.27,2.47,0,1.08-.33,1.97-1.16,2.4-2.2,.75-1.83,.09-3.73-1.31-4.75Z"/><g><g><circle class="cls-6" cx="29.26" cy="20.35" r="4.26"/><circle class="cls-2" cx="29.26" cy="20.35" r="1.52"/></g><g><circle class="cls-6" cx="20.74" cy="20.35" r="4.26"/><circle class="cls-2" cx="20.74" cy="20.35" r="1.52"/></g></g></g><g><g><g><line class="cls-8" x1="7.39" y1="9.14" x2="7.39" y2="6.1"/><line class="cls-8" x1="5.87" y1="7.62" x2="8.91" y2="7.62"/></g><g><line class="cls-8" x1="42.61" y1="9.14" x2="42.61" y2="6.1"/><line class="cls-8" x1="41.09" y1="7.62" x2="44.13" y2="7.62"/></g></g><g><g><line class="cls-8" x1="7.39" y1="36.61" x2="7.39" y2="33.57"/><line class="cls-8" x1="5.87" y1="35.09" x2="8.91" y2="35.09"/></g><g><line class="cls-8" x1="42.61" y1="36.61" x2="42.61" y2="33.57"/><line class="cls-8" x1="41.09" y1="35.09" x2="44.13" y2="35.09"/></g></g></g><g><g><line class="cls-8" x1="7.39" y1="50.89" x2="7.39" y2="53.64"/><line class="cls-8" x1="11.82" y1="52.27" x2="11.82" y2="53.64"/><line class="cls-8" x1="16.24" y1="50.89" x2="16.24" y2="53.64"/></g><g><line class="cls-8" x1="16.24" y1="50.89" x2="16.24" y2="53.64"/><line class="cls-8" x1="20.66" y1="52.27" x2="20.66" y2="53.64"/><line class="cls-8" x1="25.09" y1="50.89" x2="25.09" y2="53.64"/></g><g><line class="cls-8" x1="25.09" y1="50.89" x2="25.09" y2="53.64"/><line class="cls-8" x1="29.51" y1="52.27" x2="29.51" y2="53.64"/><line class="cls-8" x1="33.93" y1="50.89" x2="33.93" y2="53.64"/></g><g><line class="cls-8" x1="33.93" y1="50.89" x2="33.93" y2="53.64"/><line class="cls-8" x1="38.36" y1="52.27" x2="38.36" y2="53.64"/><line class="cls-8" x1="42.78" y1="50.89" x2="42.78" y2="53.64"/></g></g><g><rect class="cls-4" x="7.39" y="44.31" width="8.85" height="4.12"/><rect class="cls-1" x="16.24" y="44.31" width="8.85" height="4.12"/><rect class="cls-5" x="25.09" y="44.31" width="8.85" height="4.12"/><rect class="cls-3" x="33.76" y="44.31" width="8.85" height="4.12"/></g></g></svg>