<?xml version="1.0" encoding="UTF-8"?><svg id="GRAPHICS" xmlns="http://www.w3.org/2000/svg" viewBox="0 0 110 124"><defs><style>.cls-1{fill:#fff2cc;}.cls-1,.cls-2,.cls-3,.cls-4,.cls-5,.cls-6,.cls-7,.cls-8,.cls-9,.cls-10,.cls-11,.cls-12,.cls-13,.cls-14{stroke:#000;stroke-linecap:round;stroke-linejoin:round;stroke-width:1.28px;}.cls-2{fill:#fb0;}.cls-3{fill:#b38300;}.cls-4{fill:#bdb397;}.cls-5{fill:#bf9926;}.cls-6{fill:#00b35f;}.cls-7{fill:#007840;}.cls-8{fill:#00ff1b;}.cls-9{fill:aqua;}.cls-11{fill:none;}.cls-12{fill:#592bff;}.cls-13{fill:#3b1cab;}.cls-14{fill:#7aff33;}</style></defs><g><path class="cls-12" d="M12.43,2.59c-2.19,0-3.96,1.77-3.96,3.96V105.44c0,2.19,1.77,3.96,3.96,3.96H97.57c2.19,0,3.96-1.77,3.96-3.96V22.04L82.08,2.59H12.43Z"/><path class="cls-13" d="M86.04,22.04h15.49L82.08,2.59v15.49c0,2.19,1.77,3.96,3.96,3.96Z"/></g><g><line class="cls-11" x1="56.74" y1="40.51" x2="56.74" y2="25.29"/><g><line class="cls-11" x1="46.36" y1="23.81" x2="53.42" y2="30.87"/><line class="cls-11" x1="46.36" y1="23.81" x2="46.36" y2="15.42"/><g><circle class="cls-5" cx="46.36" cy="11.92" r="3.5"/><circle class="cls-10" cx="46.36" cy="11.92" r="1.16"/></g></g><g><line class="cls-11" x1="56.74" y1="31.05" x2="56.74" y2="23.35"/><g><circle class="cls-5" cx="56.74" cy="19.85" r="3.5"/><circle class="cls-10" cx="56.74" cy="19.85" r="1.16"/></g></g><g><line class="cls-11" x1="66.44" y1="25.88" x2="60.06" y2="32.26"/><line class="cls-11" x1="66.44" y1="25.88" x2="66.44" y2="18.74"/><g><circle class="cls-5" cx="66.44" cy="15.24" r="3.5"/><circle class="cls-10" cx="66.44" cy="15.24" r="1.16"/></g></g><line class="cls-11" x1="53.42" y1="30.87" x2="53.42" y2="40.51"/><line class="cls-11" x1="60.06" y1="40.51" x2="60.06" y2="32.26"/><line class="cls-11" x1="63.38" y1="40.51" x2="63.38" y2="36.45"/><line class="cls-11" x1="66.7" y1="40.51" x2="66.7" y2="36.45"/><line class="cls-11" x1="70.02" y1="40.51" x2="70.02" y2="36.45"/><line class="cls-11" x1="50.06" y1="40.51" x2="50.06" y2="36.45"/><line class="cls-11" x1="46.7" y1="40.51" x2="46.7" y2="36.45"/><line class="cls-11" x1="39.98" y1="40.51" x2="39.98" y2="36.45"/></g><g><path class="cls-8" d="M77.5,111.98l-5.71-7.44c-.23-.3-.6-.48-.98-.48h-31.63c-.39,0-.74,.18-.98,.48l-5.71,7.44c-.17,.21-.26,.48-.26,.75s.09,.54,.26,.75l5.71,7.44c.24,.31,.59,.48,.98,.48h31.63c.38,0,.75-.18,.98-.48h0s5.71-7.44,5.71-7.44c.34-.44,.34-1.06,0-1.5Z"/><g><g><line class="cls-11" x1="64.57" y1="109.4" x2="64.57" y2="116.06"/><line class="cls-11" x1="67.79" y1="109.4" x2="61.36" y2="109.4"/></g><g><line class="cls-11" x1="42.21" y1="109.4" x2="42.21" y2="116.06"/><line class="cls-11" x1="48.64" y1="116.06" x2="48.64" y2="109.4"/><line class="cls-11" x1="48.64" y1="112.73" x2="42.21" y2="109.4"/></g><g><line class="cls-11" x1="51.79" y1="109.4" x2="51.79" y2="116.06"/><line class="cls-11" x1="58.21" y1="109.4" x2="51.79" y2="109.4"/><line class="cls-11" x1="58.21" y1="112.73" x2="51.79" y2="112.73"/></g></g></g><g><path class="cls-9" d="M19.89,40.51H90.11c3.01,0,5.45,2.44,5.45,5.45v47.38c0,3.01-2.44,5.45-5.45,5.45H19.89c-3.01,0-5.45-2.44-5.45-5.45V45.96c0-3.01,2.44-5.45,5.45-5.45Z"/><g><path class="cls-3" d="M66.88,48.68h-3.29c-4.85,0-8.79,3.93-8.79,8.79s3.93,8.79,8.79,8.79h3.29c4.85,0,8.79-3.93,8.79-8.79s-3.93-8.79-8.79-8.79Z"/><g><circle class="cls-2" cx="66.88" cy="57.46" r="8.79"/><g><g><circle class="cls-10" cx="64.85" cy="55" r=".84"/><circle class="cls-10" cx="68.96" cy="55" r=".84"/></g><path class="cls-11" d="M63.53,58.2c0,1.86,1.51,3.38,3.38,3.38s3.38-1.51,3.38-3.38"/></g></g></g><g><path class="cls-8" d="M95.57,93.34v-19.79c-1.02-1.06-2.45-1.73-4.04-1.73-1.45,0-2.8,.55-3.82,1.51-.79-2.14-2.85-3.68-5.26-3.68s-4.48,1.53-5.26,3.68c-1.02-.95-2.37-1.51-3.82-1.51-3.09,0-5.6,2.51-5.6,5.6,0,.15,0,.29,.02,.44-.42-.1-.86-.15-1.29-.15-3.09,0-5.6,2.51-5.6,5.61,0,1.81,.88,3.49,2.3,4.52-1.42,1.04-2.3,2.71-2.3,4.52,0,3.09,2.51,5.6,5.6,5.6,.6,0,1.19-.1,1.75-.28,0,.02,0,.04,0,.05,0,.36,.04,.71,.11,1.05h21.78c3.01,0,5.45-2.44,5.45-5.45Z"/><g><g><circle class="cls-1" cx="87.14" cy="85.12" r="4.69"/><circle class="cls-10" cx="87.14" cy="85.12" r="1.67"/></g><g><circle class="cls-1" cx="77.75" cy="85.12" r="4.69"/><circle class="cls-10" cx="77.75" cy="85.12" r="1.67"/></g></g><g><path class="cls-11" d="M82.76,75.61c-.52-.44-1.24-.62-1.94-.41s-1.15,.72-1.35,1.34c-.51-.4-1.2-.56-1.87-.35-.67,.21-1.15,.72-1.35,1.34-.51-.4-1.2-.56-1.87-.35s-1.19,.77-1.37,1.42"/><path class="cls-14" d="M74.32,77.21s.05-.02,.07-.03c.67-.21,1.36-.05,1.87,.35,.2-.62,.68-1.14,1.35-1.34,.67-.21,1.36-.05,1.87,.35,.2-.62,.68-1.14,1.35-1.34,0,0,.01,0,.02,0-1.01-3.29-4.63-8.21-7.32-7.38-2.69,.83,0,4.99,.78,9.4Z"/></g></g><g><path class="cls-7" d="M38.58,59.29h-6.3c-2.82,0-5.52,1.27-7.51,3.54l-10.33,11.74v18.78c0,3.01,2.44,5.45,5.45,5.45h57.87l-31.67-35.98c-1.99-2.26-4.69-3.54-7.51-3.54Z"/><path class="cls-4" d="M34.27,69.75c1.8,0,3.05,2.05,5.74,2.05,3.15,0,4.47-1.84,5-3.05l-.12-.14h6.3l-5.09-5.78c-1.99-2.26-4.69-3.54-7.51-3.54h-6.3c-.7,0-1.4,.08-2.08,.23-2.04,.46-3.94,1.6-5.43,3.3l-5.09,5.78h14.1l.48,1.15Z"/><path class="cls-6" d="M38.58,59.29c-2.82,0-5.52,1.27-7.51,3.54l-16.63,18.89v11.63c0,3.01,2.44,5.45,5.45,5.45h57.87l-31.67-35.98c-1.99-2.26-4.69-3.54-7.51-3.54Z"/><path class="cls-1" d="M32.83,73.68c3.85,0,4.29-3.93,7.73-3.93,1.8,0,3.05,2.05,5.74,2.05,3.15,0,4.47-1.84,5-3.05l-5.21-5.92c-1.99-2.26-4.69-3.54-7.51-3.54-2.82,0-5.52,1.27-7.51,3.54l-5.09,5.78c.86,1.91,2.89,5.08,6.86,5.08Z"/><g><g><circle class="cls-10" cx="36.28" cy="79.02" r=".94"/><circle class="cls-10" cx="40.87" cy="79.02" r=".94"/></g><path class="cls-11" d="M31.04,81.36c0,4.16,3.37,7.54,7.54,7.54s7.54-3.37,7.54-7.54"/></g></g></g></svg>