<?xml version="1.0" encoding="UTF-8"?><svg id="GRAPHICS" xmlns="http://www.w3.org/2000/svg" viewBox="0 0 96 54"><defs><style>.cls-1,.cls-2,.cls-3,.cls-4,.cls-5,.cls-6,.cls-7,.cls-8,.cls-9{stroke:#000;stroke-linecap:round;stroke-linejoin:round;stroke-width:.85px;}.cls-2{fill:#592bff;}.cls-3{fill:#3d1dad;}.cls-4{fill:#545454;}.cls-5{fill:#7aff33;}.cls-6{fill:#fff2cc;}.cls-7{fill:red;}.cls-8{fill:#00ff1b;}.cls-9{fill:none;}</style></defs><g><path class="cls-8" d="M43.63,23.7c1.46-1.07,2.37-2.78,2.37-4.65,0-3.17-2.58-5.76-5.76-5.76-.45,0-.89,.05-1.33,.16,.01-.15,.02-.3,.02-.45,0-3.17-2.58-5.76-5.76-5.76-1.49,0-2.88,.57-3.93,1.55-.81-2.2-2.93-3.78-5.41-3.78s-4.6,1.58-5.41,3.78c-1.05-.98-2.44-1.55-3.93-1.55-3.17,0-5.76,2.58-5.76,5.76,0,.15,0,.3,.02,.45-.43-.1-.88-.16-1.33-.16-3.17,0-5.76,2.58-5.76,5.76,0,1.86,.91,3.58,2.37,4.65-1.46,1.06-2.37,2.78-2.37,4.65,0,3.17,2.58,5.76,5.76,5.76,.62,0,1.22-.1,1.79-.29,0,.02,0,.04,0,.05,0,3.17,2.58,5.76,5.76,5.76,1.44,0,2.81-.54,3.85-1.48,.96,1.77,2.81,2.93,4.89,2.99,.02,0,.04,0,.06,0h.1s.04,0,.06,0c2.08-.06,3.92-1.22,4.89-2.99,1.04,.94,2.41,1.48,3.85,1.48,3.17,0,5.76-2.58,5.76-5.76,0-.02,0-.04,0-.05,.57,.19,1.18,.29,1.79,.29,3.17,0,5.76-2.58,5.76-5.76,0-1.86-.91-3.58-2.37-4.65Z"/><g><path class="cls-9" d="M22.73,11.75c.54-.54,1.33-.79,2.13-.61,.76,.18,1.35,.71,1.62,1.39,.54-.49,1.3-.72,2.06-.54s1.35,.71,1.62,1.39c.54-.49,1.3-.72,2.06-.54,.8,.18,1.4,.76,1.65,1.48"/><path class="cls-5" d="M32.3,12.87s-.06-.02-.09-.03c-.76-.18-1.52,.05-2.06,.54-.27-.68-.85-1.21-1.62-1.39s-1.52,.05-2.06,.54c-.27-.68-.85-1.21-1.62-1.39,0,0-.01,0-.02,0,.87-3.76,4.51-9.54,7.58-8.84,3.07,.71,.4,5.58-.12,10.56Z"/></g><g><path class="cls-9" d="M39.88,26.69c.11,.75-.16,1.54-.78,2.07-.6,.51-1.38,.66-2.08,.47,.07,.72-.2,1.47-.79,1.98s-1.38,.66-2.08,.47c.07,.72-.2,1.47-.79,1.98s-1.45,.67-2.17,.44"/><path class="cls-5" d="M33.28,33.71s.05-.03,.07-.05c.6-.51,.87-1.25,.79-1.98,.7,.19,1.48,.04,2.08-.47,.6-.51,.87-1.25,.79-1.98,.7,.19,1.48,.04,2.08-.47,0,0,.01-.01,.02-.02,2.5,2.94,4.97,9.31,2.57,11.35-2.4,2.04-4.71-3-8.41-6.39Z"/></g><g><path class="cls-9" d="M7.33,26.69c-.11,.75,.16,1.54,.78,2.07,.6,.51,1.38,.66,2.08,.47-.07,.72,.2,1.47,.79,1.98,.6,.51,1.38,.66,2.08,.47-.07,.72,.2,1.47,.79,1.98s1.45,.67,2.17,.44"/><path class="cls-5" d="M13.93,33.71s-.05-.03-.07-.05c-.6-.51-.87-1.25-.79-1.98-.7,.19-1.48,.04-2.08-.47s-.87-1.25-.79-1.98c-.7,.19-1.48,.04-2.08-.47,0,0-.01-.01-.02-.02-2.5,2.94-4.97,9.31-2.57,11.35,2.4,2.04,4.71-3,8.41-6.39Z"/></g><g><circle class="cls-6" cx="29.39" cy="22.61" r="5.54"/><circle class="cls-1" cx="29.39" cy="22.61" r="1.98"/></g><g><circle class="cls-6" cx="18.3" cy="22.61" r="5.54"/><circle class="cls-1" cx="18.3" cy="22.61" r="1.98"/></g></g><g><path class="cls-2" d="M51.68,5.56c-1.34,0-2.42,1.08-2.42,2.42V40.87c0,1.34,1.09,2.42,2.42,2.42h31.84c1.34,0,2.42-1.09,2.42-2.42V13.83l-8.27-8.27h-25.99Z"/><path class="cls-3" d="M80.09,13.83h5.85l-8.27-8.27v5.85c0,1.34,1.09,2.42,2.42,2.42Z"/><g><g><g><line class="cls-2" x1="63.24" y1="11.87" x2="74.77" y2="11.87"/><line class="cls-2" x1="63.24" y1="16.16" x2="69.01" y2="16.16"/><line class="cls-2" x1="63.24" y1="14.02" x2="66.53" y2="14.02"/></g><g><circle class="cls-8" cx="56.91" cy="14.02" r="3.87"/><polyline class="cls-9" points="55.28 14.26 56.64 15.62 58.3 12.85"/></g></g><g><g><line class="cls-2" x1="63.24" y1="22.28" x2="74.77" y2="22.28"/><line class="cls-2" x1="63.24" y1="26.57" x2="69.01" y2="26.57"/><line class="cls-2" x1="63.24" y1="24.43" x2="66.53" y2="24.43"/></g><g><circle class="cls-8" cx="56.91" cy="24.43" r="3.87"/><polyline class="cls-9" points="55.28 24.67 56.64 26.03 58.3 23.26"/></g></g><g><circle class="cls-7" cx="56.91" cy="34.84" r="3.87"/><g><line class="cls-2" x1="63.24" y1="32.7" x2="64.88" y2="32.7"/><line class="cls-2" x1="66.53" y1="32.7" x2="72.45" y2="32.7"/><line class="cls-2" x1="63.24" y1="36.98" x2="65.71" y2="36.98"/><line class="cls-2" x1="63.24" y1="34.84" x2="69.49" y2="34.84"/></g><g><line class="cls-9" x1="55.51" y1="36.23" x2="58.3" y2="33.45"/><line class="cls-9" x1="55.51" y1="33.45" x2="58.3" y2="36.23"/></g></g></g></g><g><path class="cls-1" d="M85.85,39.98c-1.83,0-3.32,1.49-3.32,3.32s1.49,3.32,3.32,3.32,3.32-1.49,3.32-3.32-1.49-3.32-3.32-3.32Z"/><path class="cls-4" d="M94.11,45.11c.13-.58,.2-1.19,.2-1.81s-.07-1.23-.2-1.81h-1.32c-.17-.65-.42-1.26-.75-1.82l.93-.93c-.66-1.03-1.53-1.9-2.56-2.56l-.93,.93c-.56-.33-1.17-.58-1.82-.75v-1.32c-.58-.13-1.19-.2-1.81-.2s-1.23,.07-1.81,.2v1.32c-.65,.17-1.26,.42-1.82,.75l-.93-.93c-1.03,.66-1.9,1.53-2.56,2.56l.93,.93c-.33,.56-.58,1.17-.75,1.82h-1.32c-.13,.58-.2,1.19-.2,1.81s.07,1.23,.2,1.81h1.32c.17,.65,.42,1.26,.75,1.82l-.93,.93c.66,1.03,1.53,1.9,2.56,2.56l.93-.93c.56,.33,1.17,.58,1.82,.75v1.32c.58,.13,1.19,.2,1.81,.2s1.23-.07,1.81-.2v-1.32c.65-.17,1.26-.42,1.82-.75l.93,.93c1.03-.66,1.9-1.53,2.56-2.56l-.93-.93c.33-.56,.58-1.17,.75-1.82h1.32Zm-8.26,1.51c-1.83,0-3.32-1.49-3.32-3.32s1.49-3.32,3.32-3.32,3.32,1.49,3.32,3.32-1.49,3.32-3.32,3.32Z"/></g></svg>