<?xml version="1.0" encoding="UTF-8"?><svg id="GRAPHICS" xmlns="http://www.w3.org/2000/svg" xmlns:xlink="http://www.w3.org/1999/xlink" viewBox="0 0 50 60"><defs><style>.cls-1{fill:#fb00e9;}.cls-1,.cls-2,.cls-3,.cls-4,.cls-5,.cls-6,.cls-7,.cls-8{stroke:#000;}.cls-1,.cls-2,.cls-3,.cls-4,.cls-5,.cls-6,.cls-7,.cls-8,.cls-9{stroke-linecap:round;stroke-linejoin:round;stroke-width:.85px;}.cls-3{fill:#03ff74;}.cls-4{fill:#ff7800;}.cls-5{fill:#0357ff;}.cls-6{fill:#fff2cc;}.cls-7{fill:url(#linear-gradient);}.cls-8,.cls-9{fill:none;}.cls-9{stroke:#592bff;}</style><linearGradient id="linear-gradient" x1="1.76" y1="21.36" x2="48.24" y2="21.36" gradientUnits="userSpaceOnUse"><stop offset="0" stop-color="#ff7800"/><stop offset=".26" stop-color="#fb00e9"/><stop offset=".3" stop-color="#ea05ea"/><stop offset=".38" stop-color="#c114ee"/><stop offset=".48" stop-color="#7d2cf4"/><stop offset=".62" stop-color="#214cfc"/><stop offset=".66" stop-color="#0357ff"/><stop offset="1" stop-color="#03ff74"/></linearGradient></defs><path class="cls-2" d="M6.39,1.98H43.61c2.56,0,4.64,2.08,4.64,4.64V53.38c0,2.56-2.08,4.64-4.64,4.64H6.39c-2.56,0-4.64-2.08-4.64-4.64V6.62C1.76,4.06,3.83,1.98,6.39,1.98Z"/><g><path class="cls-7" d="M6.39,1.98H43.61c2.56,0,4.64,2.08,4.64,4.64v29.47c0,2.56-2.08,4.64-4.64,4.64H6.39c-2.56,0-4.64-2.08-4.64-4.64V6.62C1.76,4.06,3.83,1.98,6.39,1.98Z"/><g><g><g><line class="cls-8" x1="7.39" y1="9.14" x2="7.39" y2="6.1"/><line class="cls-8" x1="5.87" y1="7.62" x2="8.91" y2="7.62"/></g><g><line class="cls-8" x1="42.61" y1="9.14" x2="42.61" y2="6.1"/><line class="cls-8" x1="41.09" y1="7.62" x2="44.13" y2="7.62"/></g></g><g><g><line class="cls-8" x1="7.39" y1="36.61" x2="7.39" y2="33.57"/><line class="cls-8" x1="5.87" y1="35.09" x2="8.91" y2="35.09"/></g><g><line class="cls-8" x1="42.61" y1="36.61" x2="42.61" y2="33.57"/><line class="cls-8" x1="41.09" y1="35.09" x2="44.13" y2="35.09"/></g></g></g><g><path d="M28.06,31.51c.06-.11,.17-.19,.3-.22,.13-.03,.26,.02,.36,.1,1.12,1.01,2.75,1.19,4.15,.45,1.07-.57,1.75-1.77,1.75-3.07,0-.14,.06-.28,.17-.36,.11-.08,.25-.12,.38-.08,.71,.23,1.47,.24,2.21,0,.95-.3,1.75-1.03,2.13-1.96,.63-1.54,.15-3.28-1.17-4.25-.11-.08-.17-.21-.17-.34s.06-.26,.17-.34c.91-.66,1.45-1.73,1.45-2.85,0-1.95-1.58-3.53-3.53-3.53-.27,0-.55,.03-.81,.1-.13,.03-.27,0-.38-.09-.1-.09-.16-.22-.15-.36,.07-.88-.2-1.76-.75-2.5-.37-.48-.89-.86-1.46-1.07-1.33-.48-2.72-.22-3.71,.71-.1,.1-.25,.14-.39,.1-.14-.03-.25-.13-.3-.27-.51-1.39-1.84-2.32-3.31-2.32s-2.81,.93-3.32,2.32c-.05,.13-.16,.23-.3,.27-.14,.04-.28,0-.39-.1-.98-.92-2.41-1.19-3.72-.71-.58,.21-1.1,.59-1.46,1.08-.55,.73-.82,1.62-.75,2.49,.01,.14-.04,.27-.15,.36-.1,.09-.25,.12-.38,.09-.27-.06-.54-.1-.81-.1-1.95,0-3.53,1.58-3.53,3.53,0,1.12,.54,2.19,1.45,2.85,.11,.08,.17,.21,.17,.34s-.06,.26-.17,.34c-1.25,.92-1.76,2.53-1.26,4.02,.4,1.17,1.44,2.07,2.65,2.3,.6,.11,1.22,.07,1.78-.11,.13-.04,.27-.02,.38,.06,.11,.08,.18,.21,.18,.34,0,1.34,.68,2.55,1.75,3.11,1.39,.73,3.02,.56,4.14-.45,.08-.07,.18-.11,.29-.11,.02,0,.05,0,.07,0,.13,.02,.24,.1,.3,.22,.6,1.1,1.75,1.8,3,1.83l.1,.43v-.43c1.28-.04,2.43-.74,3.03-1.83Z"/><g><g><circle class="cls-6" cx="29.26" cy="20.35" r="4.26"/><circle class="cls-2" cx="29.26" cy="20.35" r="1.52"/></g><g><circle class="cls-6" cx="20.74" cy="20.35" r="4.26"/><circle class="cls-2" cx="20.74" cy="20.35" r="1.52"/></g></g></g><g><rect class="cls-4" x="7.39" y="44.31" width="8.85" height="4.12"/><rect class="cls-1" x="16.24" y="44.31" width="8.85" height="4.12"/><rect class="cls-5" x="25.09" y="44.31" width="8.85" height="4.12"/><rect class="cls-3" x="33.76" y="44.31" width="8.85" height="4.12"/></g><g><g><line class="cls-9" x1="7.39" y1="50.89" x2="7.39" y2="53.64"/><line class="cls-9" x1="11.82" y1="52.27" x2="11.82" y2="53.64"/><line class="cls-9" x1="16.24" y1="50.89" x2="16.24" y2="53.64"/></g><g><line class="cls-9" x1="16.24" y1="50.89" x2="16.24" y2="53.64"/><line class="cls-9" x1="20.66" y1="52.27" x2="20.66" y2="53.64"/><line class="cls-9" x1="25.09" y1="50.89" x2="25.09" y2="53.64"/></g><g><line class="cls-9" x1="25.09" y1="50.89" x2="25.09" y2="53.64"/><line class="cls-9" x1="29.51" y1="52.27" x2="29.51" y2="53.64"/><line class="cls-9" x1="33.93" y1="50.89" x2="33.93" y2="53.64"/></g><g><line class="cls-9" x1="33.93" y1="50.89" x2="33.93" y2="53.64"/><line class="cls-9" x1="38.36" y1="52.27" x2="38.36" y2="53.64"/><line class="cls-9" x1="42.78" y1="50.89" x2="42.78" y2="53.64"/></g></g></g></svg>