<?xml version="1.0" encoding="UTF-8"?><svg id="GRAPHICS" xmlns="http://www.w3.org/2000/svg" xmlns:xlink="http://www.w3.org/1999/xlink" viewBox="0 0 50 60"><defs><style>.cls-1,.cls-2{fill:none;}.cls-3{fill:#ff24af;}.cls-4,.cls-5,.cls-6,.cls-2,.cls-7{stroke:#000;stroke-linecap:round;stroke-linejoin:round;stroke-width:.85px;}.cls-5{fill:#7aff33;}.cls-6{fill:#fff2cc;}.cls-7{fill:url(#New_Gradient_Swatch_1);}</style><linearGradient id="New_Gradient_Swatch_1" x1="25" y1="36.68" x2="25" y2="8.89" gradientUnits="userSpaceOnUse"><stop offset="0" stop-color="#00ff1b"/><stop offset="1" stop-color="#0f9"/></linearGradient></defs><path class="cls-4" d="M6.39,1.98H43.61c2.56,0,4.64,2.08,4.64,4.64V53.38c0,2.56-2.08,4.64-4.64,4.64H6.39c-2.56,0-4.64-2.08-4.64-4.64V6.62C1.76,4.06,3.83,1.98,6.39,1.98Z"/><g><g><path class="cls-7" d="M40.22,23.26c1.12-.82,1.82-2.14,1.82-3.57,0-2.44-1.99-4.43-4.43-4.43-.34,0-.69,.04-1.02,.12,0-.12,.01-.23,.01-.35,0-2.44-1.99-4.43-4.43-4.43-1.15,0-2.22,.44-3.02,1.19-.62-1.69-2.25-2.91-4.16-2.91s-3.54,1.21-4.16,2.91c-.8-.75-1.87-1.19-3.02-1.19-2.44,0-4.43,1.99-4.43,4.43,0,.12,0,.23,.01,.35-.33-.08-.68-.12-1.02-.12-2.44,0-4.43,1.99-4.43,4.43,0,1.43,.7,2.75,1.82,3.57-1.12,.82-1.82,2.14-1.82,3.57,0,2.44,1.99,4.43,4.43,4.43,.47,0,.94-.07,1.38-.22,0,.01,0,.03,0,.04,0,2.44,1.99,4.43,4.43,4.43,1.11,0,2.16-.41,2.96-1.14,.74,1.36,2.16,2.26,3.76,2.3,.02,0,.03,0,.05,0h.08s.03,0,.05,0c1.6-.04,3.02-.94,3.76-2.3,.8,.72,1.85,1.14,2.96,1.14,2.44,0,4.43-1.99,4.43-4.43,0-.01,0-.03,0-.04,.44,.15,.91,.22,1.38,.22,2.44,0,4.43-1.99,4.43-4.43,0-1.43-.7-2.75-1.82-3.57Z"/><g><path class="cls-2" d="M24.14,14.07c.42-.41,1.03-.61,1.64-.47s1.04,.55,1.24,1.07c.41-.38,1-.55,1.59-.42,.59,.14,1.04,.55,1.24,1.07,.41-.38,1-.55,1.59-.42,.61,.14,1.07,.59,1.27,1.14"/><path class="cls-5" d="M31.5,14.93s-.04-.01-.07-.02c-.59-.14-1.17,.04-1.59,.42-.21-.52-.66-.93-1.24-1.07-.59-.14-1.17,.04-1.59,.42-.21-.52-.66-.93-1.24-1.07,0,0-.01,0-.02,0,.67-2.89,3.47-7.34,5.83-6.8s.31,4.29-.09,8.13Z"/></g><g><path class="cls-2" d="M37.33,25.56c.08,.58-.12,1.19-.6,1.59s-1.06,.5-1.6,.36c.06,.56-.15,1.13-.61,1.52-.46,.39-1.06,.5-1.6,.36,.06,.56-.15,1.13-.61,1.52s-1.11,.51-1.67,.34"/><path class="cls-5" d="M32.25,30.96s.04-.03,.06-.04c.46-.39,.67-.96,.61-1.52,.54,.14,1.14,.03,1.6-.36,.46-.39,.67-.96,.61-1.52,.54,.14,1.14,.03,1.6-.36,0,0,0,0,.01-.01,1.92,2.26,3.82,7.16,1.98,8.73-1.84,1.57-3.63-2.31-6.47-4.92Z"/></g><g><path class="cls-2" d="M12.29,25.56c-.08,.58,.12,1.19,.6,1.59s1.06,.5,1.6,.36c-.06,.56,.15,1.13,.61,1.52,.46,.39,1.06,.5,1.6,.36-.06,.56,.15,1.13,.61,1.52s1.11,.51,1.67,.34"/><path class="cls-5" d="M17.37,30.96s-.04-.03-.06-.04c-.46-.39-.67-.96-.61-1.52-.54,.14-1.14,.03-1.6-.36-.46-.39-.67-.96-.61-1.52-.54,.14-1.14,.03-1.6-.36,0,0,0,0-.01-.01-1.92,2.26-3.82,7.16-1.98,8.73,1.84,1.57,3.63-2.31,6.47-4.92Z"/></g><g><circle class="cls-6" cx="29.26" cy="22.42" r="4.26"/><circle class="cls-4" cx="29.26" cy="22.42" r="1.52"/></g><g><circle class="cls-6" cx="20.74" cy="22.42" r="4.26"/><circle class="cls-4" cx="20.74" cy="22.42" r="1.52"/></g></g><g><g><path class="cls-3" d="M35.82,40.91H17.68c-.42,0-.82,.19-1.09,.53l-3.5,4.41c-.4,.51-.4,1.22,0,1.73l3.5,4.41c.26,.33,.66,.53,1.09,.53h18.14c.77,0,1.39-.62,1.39-1.39v-8.82c0-.77-.62-1.39-1.39-1.39Zm-18.73,7.4c-.88,0-1.6-.71-1.6-1.6s.71-1.6,1.6-1.6,1.6,.71,1.6,1.6-.71,1.6-1.6,1.6Z"/><g><circle class="cls-6" cx="24.84" cy="46.71" r="3.39"/><circle class="cls-1" cx="24.84" cy="46.71" r="1.7"/><path class="cls-2" d="M26.04,45.51c-.31-.31-.73-.5-1.2-.5-.94,0-1.7,.76-1.7,1.7s.76,1.7,1.7,1.7c.47,0,.89-.19,1.2-.5"/></g></g><g><line class="cls-2" x1="30.54" y1="44.53" x2="34.91" y2="44.53"/><line class="cls-2" x1="30.54" y1="48.9" x2="34.91" y2="48.9"/><line class="cls-2" x1="31.83" y1="44.53" x2="31.83" y2="48.9"/><line class="cls-2" x1="33.62" y1="44.53" x2="33.62" y2="48.9"/></g></g></g></svg>